<?xml version="1.0" encoding="UTF-8" standalone="no"?>
<!-- Created with Inkscape (http://www.inkscape.org/) -->

<svg
   width="107.20975mm"
   height="115.39454mm"
   viewBox="0 0 107.20975 115.39454"
   version="1.1"
   id="svg5"
   xml:space="preserve"
   inkscape:version="1.2.2 (732a01da63, 2022-12-09)"
   sodipodi:docname="sejoli-kasmaran-preloader.svg"
   xmlns:inkscape="http://www.inkscape.org/namespaces/inkscape"
   xmlns:sodipodi="http://sodipodi.sourceforge.net/DTD/sodipodi-0.dtd"
   xmlns="http://www.w3.org/2000/svg"
   xmlns:svg="http://www.w3.org/2000/svg"><sodipodi:namedview
     id="namedview7"
     pagecolor="#ffffff"
     bordercolor="#000000"
     borderopacity="0.25"
     inkscape:showpageshadow="2"
     inkscape:pageopacity="0.0"
     inkscape:pagecheckerboard="0"
     inkscape:deskcolor="#d1d1d1"
     inkscape:document-units="mm"
     showgrid="false"
     inkscape:zoom="2.0913615"
     inkscape:cx="-1539.6669"
     inkscape:cy="1492.5683"
     inkscape:window-width="1920"
     inkscape:window-height="991"
     inkscape:window-x="-9"
     inkscape:window-y="-9"
     inkscape:window-maximized="1"
     inkscape:current-layer="layer1" /><defs
     id="defs2" /><g
     inkscape:label="Layer 1"
     inkscape:groupmode="layer"
     id="layer1"
     transform="translate(354.68038,93.700263)"><g
       id="g1688"
       inkscape:export-filename="OneDrive\Desktop\sejolikasmaran\public\assets\imgs\logos\sejoli-kasmaran-preloader.svg"
       inkscape:export-xdpi="96"
       inkscape:export-ydpi="96"
       transform="translate(0,-206.11085)"><path
         style="fill:#f012be;fill-opacity:1;stroke-width:0.0985167"
         d="m -281.4356,184.22492 c -1.90665,-0.28912 -4.37147,-0.95273 -4.60884,-1.24086 -0.0729,-0.0884 0.05,-0.52732 0.43326,-1.54752 0.29424,-0.78324 0.58338,-1.45399 0.64255,-1.49056 0.0592,-0.0366 0.51256,-0.0964 1.00754,-0.13298 3.56984,-0.26374 7.40591,-1.70162 9.37019,-3.51223 0.29534,-0.27223 0.49642,-0.38714 0.60474,-0.34557 0.29972,0.11501 4.09977,2.76164 4.14886,2.88957 0.12699,0.33095 -1.60814,2.05479 -3.02735,3.00764 -1.58421,1.06363 -3.60198,1.91052 -5.43889,2.2828 -0.68977,0.13979 -2.46624,0.19067 -3.13206,0.0897 z m -22.01847,-19.10869 c -0.81277,-0.51077 -2.16334,-1.35998 -3.00127,-1.88714 -5.62286,-3.53742 -8.63968,-6.5539 -9.89798,-9.8969 -0.29183,-0.77531 -0.87239,-3.61496 -1.0528,-5.14945 -0.15188,-1.29185 -0.15524,-4.84348 -0.005,-5.80624 0.12765,-0.82064 0.52758,-1.45541 1.86981,-2.96776 1.14112,-1.28574 2.62923,-2.49064 2.82914,-2.29072 0.02,0.02 -0.004,0.21247 -0.0542,0.42769 -0.20569,0.88831 -0.58942,3.23632 -0.73211,4.47974 -0.46129,4.0196 -0.42478,7.32401 0.10615,9.60537 0.59816,2.57024 3.11523,5.86365 9.09174,11.89589 1.13983,1.42187 4.04233,3.59428 0.84702,1.58952 z m 24.77522,-15.97295 c -0.004,-0.88895 -0.49497,-2.37714 -0.95737,-2.90257 -0.27791,-0.3158 -0.0801,-0.43049 1.22045,-0.70763 7.96026,-1.69626 11.00561,-2.53759 13.61175,-3.76045 2.27529,-1.06763 3.52218,-2.32098 4.36199,-4.38465 0.36612,-0.89967 0.62537,-1.9126 0.97918,-3.82578 0.15438,-0.83481 0.34044,-1.57759 0.41348,-1.65062 0.13744,-0.13744 7.66115,-2.79181 7.91328,-2.79181 0.0782,0 0.14214,0.0208 0.14214,0.0463 0,0.12058 -1.76329,4.61518 -2.35877,6.01246 -2.24741,5.27357 -5.06745,9.86891 -6.68629,10.89555 -1.53972,0.97647 -6.03515,1.99955 -10.55976,2.40323 -0.40638,0.0363 -2.3497,0.28405 -4.31849,0.55066 -1.96879,0.2666 -3.62018,0.48474 -3.66975,0.48474 -0.0496,0 -0.0909,-0.16625 -0.0918,-0.36944 z"
         id="path1676"
         sodipodi:nodetypes="sssssssssssscssscsscsscccssssssssssssssss" /><path
         style="fill:#ffc000;fill-opacity:1;stroke-width:0.0985167"
         d="m -270.09032,173.14478 -2.29927,-1.58782 0.0662,-0.35265 c 0.12198,-0.65022 0.0675,-3.20379 -0.0907,-4.25414 -0.55716,-3.6981 -2.33958,-7.37901 -5.82004,-12.01904 -0.89012,-1.18668 -0.85556,-1.12059 -0.74212,-1.41897 0.053,-0.13931 0.1381,-0.58989 0.18917,-1.00128 0.0511,-0.41139 0.11663,-0.77174 0.14567,-0.80078 0.066,-0.066 1.89099,0.90396 3.05484,1.62361 1.14669,0.70903 3.13015,2.19227 3.70012,2.76696 0.62531,0.63049 2.01273,2.3748 2.59594,3.26371 2.26621,3.45408 3.10085,7.81712 2.34174,12.24133 -0.21035,1.22596 -0.68736,3.12741 -0.78448,3.12708 -0.0317,-1e-4 -1.09241,-0.71472 -2.35701,-1.58801 z m -20.92822,-31.39025 c -0.0365,-0.0701 0.0445,-7.09336 0.20173,-17.51134 l 0.0714,-4.7288 h 2.70921 2.70921 l -0.0337,7.95522 c -0.0292,6.88814 -0.0146,7.95522 0.10867,7.95522 0.37619,0 2.81344,-2.8394 4.82014,-5.61545 0.56792,-0.78567 1.59348,-2.20431 2.279,-3.15253 3.41742,-4.72701 5.65773,-7.18375 8.50533,-9.32698 1.09687,-0.82556 1.50957,-1.03955 3.72839,-1.93317 3.14483,-1.26658 6.26168,-2.24321 8.60272,-2.69556 1.87388,-0.36208 4.25021,-0.38953 5.29404,-0.0611 0.38255,0.12035 0.87722,0.35043 1.09928,0.51129 0.58329,0.42253 1.44323,1.53167 1.84455,2.37906 0.68631,1.44917 0.69228,2.93113 0.021,5.2155 -0.5034,1.71315 -1.05436,3.48559 -1.09664,3.52786 -0.0207,0.0207 -0.84984,0.29572 -1.84253,0.61115 -0.9927,0.31542 -2.87956,0.91745 -4.19303,1.33783 -1.31347,0.42039 -2.41336,0.73911 -2.44419,0.70828 -0.0308,-0.0308 -0.005,-0.69253 0.0579,-1.47044 0.0627,-0.7779 0.0986,-1.90565 0.0798,-2.50609 -0.0317,-1.01196 -0.0539,-1.11756 -0.30428,-1.44547 -0.14903,-0.1952 -0.5137,-0.47295 -0.81357,-0.61966 -0.53542,-0.26196 -0.56571,-0.26515 -2.04504,-0.21576 -1.74349,0.0582 -2.28317,0.18731 -4.10377,0.98172 l -1.18958,0.51907 -8.38483,8.81724 c -4.61165,4.84948 -8.76731,9.20999 -9.2348,9.69002 l -0.84998,0.87278 -0.54353,-0.17622 c -1.17432,-0.38072 -3.34958,-0.25544 -4.52135,0.26042 -0.49299,0.21703 -0.48034,0.21427 -0.53151,0.11595 z"
         id="path1678"
         sodipodi:nodetypes="ccscsssssssssscsscccssssssssssssssscssssscsscssss" /><path
         style="fill:#00b0f0;fill-opacity:1;stroke-width:0.0985167"
         d="m -295.57274,185.74861 c -3.94778,-0.96567 -7.72698,-3.82786 -11.55308,-8.74974 -2.85042,-3.66678 -5.56268,-8.45447 -6.55772,-11.57571 -0.47312,-1.48409 -0.44616,-1.77408 0.0939,-1.0098 1.54712,2.18959 6.89378,7.46184 10.87447,10.72313 3.9853,3.26506 6.82199,4.9143 7.80138,4.53569 0.32559,-0.12587 0.84225,-0.91173 1.4661,-2.22999 1.06712,-2.25494 1.82977,-5.24473 2.17376,-8.52169 0.24538,-2.33762 0.12186,-6.5538 -0.25624,-8.74603 -0.068,-0.39431 -0.0931,-0.73581 -0.0558,-0.75888 0.0373,-0.0231 0.33312,0.0652 0.6573,0.19613 1.27493,0.51496 2.87036,0.77488 4.41946,0.71999 l 0.88665,-0.0314 0.11439,0.69072 c 0.20036,1.20983 0.42757,3.6638 0.4912,5.3052 0.14842,3.82861 -0.60378,8.95314 -1.83756,12.5188 -1.32955,3.84242 -3.41992,6.27708 -5.91678,6.89128 -0.71164,0.17506 -2.16879,0.19707 -2.80143,0.0423 z m 7.09919,-27.08332 c -0.86446,-0.11664 -2.15711,-0.55954 -2.88637,-0.98896 -0.30967,-0.18235 -0.96809,-0.73053 -1.46316,-1.21819 -1.00506,-0.99 -1.53919,-1.8395 -1.98219,-3.15253 -0.24408,-0.72344 -0.2662,-0.91753 -0.26939,-2.3644 -0.003,-1.5138 0.008,-1.60983 0.29872,-2.42311 0.47564,-1.33285 0.96039,-2.11041 1.90349,-3.05328 1.34788,-1.34755 2.76431,-2.04424 4.57419,-2.2499 3.77144,-0.42854 7.25059,1.99714 8.25577,5.75595 0.15984,0.59773 0.21076,1.07374 0.21076,1.97034 0,0.89659 -0.0509,1.3726 -0.21076,1.97033 -0.59863,2.23852 -2.06354,4.03419 -4.10232,5.02856 -1.36954,0.66796 -2.87887,0.92082 -4.32874,0.72519 z"
         id="path1680"
         sodipodi:nodetypes="sssssssssssscssssssssssccsssssss" /><path
         style="fill:#7030a0;fill-opacity:1;stroke-width:0.0985167"
         d="m -314.93127,184.62072 c -1.02494,-0.12989 -2.64817,-0.46075 -3.35329,-0.6835 -3.30567,-1.04426 -6.0069,-3.02845 -7.4339,-5.4606 -1.10783,-1.88814 -2.01597,-4.2475 -2.43069,-6.31493 -0.31512,-1.57093 -0.31522,-4.10789 -2e-4,-5.57602 0.41385,-1.92876 0.91097,-3.14921 2.35954,-5.7928 1.07707,-1.96561 2.99771,-4.17865 4.91886,-5.6677 0.58471,-0.45321 1.38008,-1.10342 1.76747,-1.44493 0.38739,-0.34151 0.73097,-0.62092 0.7635,-0.62092 0.17381,0 -0.046,0.51331 -1.08926,2.54334 -2.36466,4.60144 -2.86156,5.6106 -3.25895,6.61871 -1.79654,4.5574 -1.61135,8.18194 0.59899,11.72348 1.42733,2.28697 3.40558,4.10402 5.18699,4.76432 1.71187,0.63453 3.65679,0.69344 7.2416,0.21934 1.15812,-0.15317 1.83261,-0.20294 1.94428,-0.14347 0.25549,0.13606 2.63673,2.93095 2.63673,3.09477 0,0.33947 -2.16829,1.5884 -3.58095,2.06261 -1.46632,0.49223 -2.45938,0.65311 -4.25112,0.68872 -0.92114,0.0183 -1.82995,0.0136 -2.0196,-0.0104 z m 15.02379,-9.2924 c -0.75857,-0.64092 -1.39325,-1.23492 -1.41038,-1.32 -0.0171,-0.0851 0.25755,-0.50938 0.61042,-0.9429 2.43868,-2.99608 3.44721,-6.48548 3.12353,-10.80705 -0.15816,-2.11165 -0.29768,-2.86099 -1.25052,-6.71625 -1.15265,-4.66368 -2.21601,-7.67202 -3.83758,-10.85672 -1.57685,-3.09689 -2.78087,-4.41758 -4.5047,-4.94118 -1.1887,-0.36105 -1.88873,-0.14045 -3.22875,1.01751 -0.54351,0.46966 -0.83382,0.66038 -0.90178,0.59242 -0.17878,-0.17878 -0.28035,-1.75664 -0.17368,-2.69823 0.26323,-2.32369 1.3377,-3.97624 3.15027,-4.84518 0.58587,-0.28086 0.72419,-0.30689 1.62553,-0.30585 0.84571,9.9e-4 1.05489,0.0354 1.47775,0.24332 1.47295,0.72418 3.53676,3.72772 6.0598,8.81908 2.35312,4.74849 3.61347,8.31314 4.37146,12.36384 0.76438,4.08479 0.9875,6.39302 0.92088,9.52648 -0.0394,1.85518 -0.0924,2.48745 -0.30396,3.63153 -0.53235,2.87822 -1.31861,4.91018 -2.60892,6.74236 -0.59343,0.84264 -1.38398,1.67638 -1.58202,1.66846 -0.087,-0.003 -0.77877,-0.53072 -1.53735,-1.17164 z m -27.68318,-23.51305 c -7.08018,-0.31867 -13.10819,-1.32774 -15.15815,-2.53743 -0.7041,-0.41549 -2.26644,-2.01574 -2.84854,-2.91766 -1.99814,-3.09594 -3.61178,-7.74639 -5.84542,-16.84635 -0.51205,-2.08609 -1.14703,-4.52438 -1.41107,-5.41841 -0.70288,-2.37994 -0.74122,-2.58466 -0.73807,-3.94067 0.003,-1.08234 0.0345,-1.31855 0.26451,-1.95067 0.34207,-0.94024 1.00376,-1.92273 1.79074,-2.65891 0.69558,-0.65068 1.27189,-0.92024 2.38003,-1.11322 0.83411,-0.14525 3.11144,-0.0668 4.32556,0.14902 3.31183,0.5887 7.70216,2.04511 11.96977,3.97074 3.90462,1.76183 12.52354,6.17353 16.44682,8.41849 3.14555,1.79993 3.82692,2.31334 3.28114,2.47237 -0.0948,0.0276 -1.0208,0.2988 -2.05774,0.60259 -1.03694,0.3038 -1.99873,0.55236 -2.13733,0.55236 -0.13859,0 -1.37382,-0.41713 -2.74494,-0.92695 -1.37113,-0.50982 -3.86726,-1.43677 -5.54697,-2.05988 -8.32335,-3.08766 -10.13272,-3.76593 -11.27441,-4.22636 -0.68047,-0.27442 -1.52537,-0.58299 -1.87757,-0.6857 -0.81296,-0.23708 -2.39681,-0.33039 -3.33858,-0.19668 -0.79578,0.11299 -1.23195,0.37679 -1.67241,1.01151 l -0.23294,0.33566 0.0565,2.31515 c 0.17794,7.28667 1.85688,12.77127 4.93658,16.12635 2.37527,2.58766 6.9128,3.75747 17.49123,4.50937 2.51603,0.17883 2.72166,0.20884 2.79821,0.40832 0.0323,0.0842 0.0588,0.72404 0.0588,1.42179 0,0.69775 0.05,1.60468 0.11107,2.0154 0.0611,0.41072 0.0821,0.77572 0.0467,0.81111 -0.0354,0.0354 -0.38461,0.12417 -0.77606,0.19729 -0.70015,0.13078 -6.4797,0.24319 -8.2975,0.16137 z m 20.28093,-20.24169 c -1.1431,-0.19106 -2.62342,-0.89929 -3.56121,-1.70379 -0.87198,-0.74805 -1.48526,-1.53942 -1.99363,-2.57258 -0.64262,-1.30598 -0.81891,-2.06948 -0.81891,-3.5466 0,-1.48685 0.17675,-2.2465 0.83046,-3.56921 0.8162,-1.65151 2.31234,-3.06989 3.96169,-3.75579 3.73273,-1.5523 8.04196,0.023 9.90787,3.62186 0.69463,1.33977 0.84928,2.01412 0.84928,3.70314 0,1.2752 -0.0317,1.57854 -0.23092,2.21315 -0.91387,2.91032 -3.12835,4.96435 -6.01081,5.57531 -0.71436,0.15141 -2.13446,0.16811 -2.93382,0.0345 z"
         id="path1682"
         sodipodi:nodetypes="sssssssssssssssssssssssssssssssssssscsssssssscssssssssssssssscsssssssssssssssssscss" /></g><text
       xml:space="preserve"
       style="font-size:13.215px;line-height:1.5;font-family:'Product Sans';-inkscape-font-specification:'Product Sans';text-align:justify;letter-spacing:0px;opacity:0.935644;fill:#000000;fill-opacity:1;stroke-width:13.4215;stroke-linecap:round;stroke-linejoin:round;paint-order:stroke fill markers"
       x="-355.07199"
       y="0.72805321"
       id="text57473"><tspan
         sodipodi:role="line"
         id="tspan57471"
         style="font-style:normal;font-variant:normal;font-weight:500;font-stretch:normal;font-family:Poppins;-inkscape-font-specification:'Poppins Medium';fill:#000000;fill-opacity:1;stroke-width:13.4215"
         x="-355.07199"
         y="0.72805321">Sejoli Kasmaran</tspan></text><text
       xml:space="preserve"
       style="font-size:13.215px;line-height:1.2;font-family:'Product Sans';-inkscape-font-specification:'Product Sans';text-align:center;letter-spacing:0px;text-anchor:middle;white-space:pre;inline-size:258.127;opacity:0.935644;fill:#000000;fill-opacity:1;stroke-width:13.4215;stroke-linecap:round;stroke-linejoin:round;paint-order:stroke fill markers"
       x="-355.07199"
       y="23.43095"
       id="text57700"
       transform="matrix(0.41820351,0,0,0.41820351,-152.74095,3.6087041)"><tspan
         x="-355.07199"
         y="23.43095"
         id="tspan57766"><tspan
           style="font-family:Poppins;-inkscape-font-specification:'Poppins Medium'"
           id="tspan57764">Sekolah Jelang Lahiran Keluarga Sehat</tspan><tspan
           y="23.43095"
           id="tspan57768"> </tspan></tspan><tspan
         x="-355.07199"
         y="39.8364"
         id="tspan57772"><tspan
           style="font-family:Poppins;-inkscape-font-specification:'Poppins Medium'"
           id="tspan57770">Persalinan Aman dan Nyaman</tspan></tspan></text></g></svg>
