<?xml version="1.0" encoding="UTF-8" standalone="no"?>
<!-- Created with Inkscape (http://www.inkscape.org/) -->

<svg
   width="105.03314mm"
   height="97.85807mm"
   viewBox="0 0 105.03314 97.85807"
   version="1.1"
   id="svg5"
   xml:space="preserve"
   inkscape:version="1.2.2 (732a01da63, 2022-12-09)"
   sodipodi:docname="sejoli kasmaran.svg"
   xmlns:inkscape="http://www.inkscape.org/namespaces/inkscape"
   xmlns:sodipodi="http://sodipodi.sourceforge.net/DTD/sodipodi-0.dtd"
   xmlns="http://www.w3.org/2000/svg"
   xmlns:svg="http://www.w3.org/2000/svg"><sodipodi:namedview
     id="namedview7"
     pagecolor="#ffffff"
     bordercolor="#000000"
     borderopacity="0.25"
     inkscape:showpageshadow="2"
     inkscape:pageopacity="0.0"
     inkscape:pagecheckerboard="0"
     inkscape:deskcolor="#d1d1d1"
     inkscape:document-units="mm"
     showgrid="false"
     inkscape:zoom="2.0913615"
     inkscape:cx="-1539.6669"
     inkscape:cy="1492.5683"
     inkscape:window-width="1920"
     inkscape:window-height="991"
     inkscape:window-x="-9"
     inkscape:window-y="-9"
     inkscape:window-maximized="1"
     inkscape:current-layer="layer1" /><defs
     id="defs2" /><g
     inkscape:label="Layer 1"
     inkscape:groupmode="layer"
     id="layer1"
     transform="translate(353.59208,-112.41059)"><g
       id="g1688"
       inkscape:export-filename="OneDrive\Desktop\sejolikasmaran\public\assets\imgs\logos\sejoli-kasmaran-preloader.svg"
       inkscape:export-xdpi="96"
       inkscape:export-ydpi="96"><path
         style="fill:#f012be;fill-opacity:1;stroke-width:0.0985167"
         d="m -281.4356,184.22492 c -1.90665,-0.28912 -4.37147,-0.95273 -4.60884,-1.24086 -0.0729,-0.0884 0.05,-0.52732 0.43326,-1.54752 0.29424,-0.78324 0.58338,-1.45399 0.64255,-1.49056 0.0592,-0.0366 0.51256,-0.0964 1.00754,-0.13298 3.56984,-0.26374 7.40591,-1.70162 9.37019,-3.51223 0.29534,-0.27223 0.49642,-0.38714 0.60474,-0.34557 0.29972,0.11501 4.09977,2.76164 4.14886,2.88957 0.12699,0.33095 -1.60814,2.05479 -3.02735,3.00764 -1.58421,1.06363 -3.60198,1.91052 -5.43889,2.2828 -0.68977,0.13979 -2.46624,0.19067 -3.13206,0.0897 z m -22.01847,-19.10869 c -0.81277,-0.51077 -2.16334,-1.35998 -3.00127,-1.88714 -5.62286,-3.53742 -8.63968,-6.5539 -9.89798,-9.8969 -0.29183,-0.77531 -0.87239,-3.61496 -1.0528,-5.14945 -0.15188,-1.29185 -0.15524,-4.84348 -0.005,-5.80624 0.12765,-0.82064 0.52758,-1.45541 1.86981,-2.96776 1.14112,-1.28574 2.62923,-2.49064 2.82914,-2.29072 0.02,0.02 -0.004,0.21247 -0.0542,0.42769 -0.20569,0.88831 -0.58942,3.23632 -0.73211,4.47974 -0.46129,4.0196 -0.42478,7.32401 0.10615,9.60537 0.59816,2.57024 3.11523,5.86365 9.09174,11.89589 1.13983,1.42187 4.04233,3.59428 0.84702,1.58952 z m 24.77522,-15.97295 c -0.004,-0.88895 -0.49497,-2.37714 -0.95737,-2.90257 -0.27791,-0.3158 -0.0801,-0.43049 1.22045,-0.70763 7.96026,-1.69626 11.00561,-2.53759 13.61175,-3.76045 2.27529,-1.06763 3.52218,-2.32098 4.36199,-4.38465 0.36612,-0.89967 0.62537,-1.9126 0.97918,-3.82578 0.15438,-0.83481 0.34044,-1.57759 0.41348,-1.65062 0.13744,-0.13744 7.66115,-2.79181 7.91328,-2.79181 0.0782,0 0.14214,0.0208 0.14214,0.0463 0,0.12058 -1.76329,4.61518 -2.35877,6.01246 -2.24741,5.27357 -5.06745,9.86891 -6.68629,10.89555 -1.53972,0.97647 -6.03515,1.99955 -10.55976,2.40323 -0.40638,0.0363 -2.3497,0.28405 -4.31849,0.55066 -1.96879,0.2666 -3.62018,0.48474 -3.66975,0.48474 -0.0496,0 -0.0909,-0.16625 -0.0918,-0.36944 z"
         id="path1676"
         sodipodi:nodetypes="sssssssssssscssscsscsscccssssssssssssssss" /><path
         style="fill:#ffc000;fill-opacity:1;stroke-width:0.0985167"
         d="m -270.09032,173.14478 -2.29927,-1.58782 0.0662,-0.35265 c 0.12198,-0.65022 0.0675,-3.20379 -0.0907,-4.25414 -0.55716,-3.6981 -2.33958,-7.37901 -5.82004,-12.01904 -0.89012,-1.18668 -0.85556,-1.12059 -0.74212,-1.41897 0.053,-0.13931 0.1381,-0.58989 0.18917,-1.00128 0.0511,-0.41139 0.11663,-0.77174 0.14567,-0.80078 0.066,-0.066 1.89099,0.90396 3.05484,1.62361 1.14669,0.70903 3.13015,2.19227 3.70012,2.76696 0.62531,0.63049 2.01273,2.3748 2.59594,3.26371 2.26621,3.45408 3.10085,7.81712 2.34174,12.24133 -0.21035,1.22596 -0.68736,3.12741 -0.78448,3.12708 -0.0317,-1e-4 -1.09241,-0.71472 -2.35701,-1.58801 z m -20.92822,-31.39025 c -0.0365,-0.0701 0.0445,-7.09336 0.20173,-17.51134 l 0.0714,-4.7288 h 2.70921 2.70921 l -0.0337,7.95522 c -0.0292,6.88814 -0.0146,7.95522 0.10867,7.95522 0.37619,0 2.81344,-2.8394 4.82014,-5.61545 0.56792,-0.78567 1.59348,-2.20431 2.279,-3.15253 3.41742,-4.72701 5.65773,-7.18375 8.50533,-9.32698 1.09687,-0.82556 1.50957,-1.03955 3.72839,-1.93317 3.14483,-1.26658 6.26168,-2.24321 8.60272,-2.69556 1.87388,-0.36208 4.25021,-0.38953 5.29404,-0.0611 0.38255,0.12035 0.87722,0.35043 1.09928,0.51129 0.58329,0.42253 1.44323,1.53167 1.84455,2.37906 0.68631,1.44917 0.69228,2.93113 0.021,5.2155 -0.5034,1.71315 -1.05436,3.48559 -1.09664,3.52786 -0.0207,0.0207 -0.84984,0.29572 -1.84253,0.61115 -0.9927,0.31542 -2.87956,0.91745 -4.19303,1.33783 -1.31347,0.42039 -2.41336,0.73911 -2.44419,0.70828 -0.0308,-0.0308 -0.005,-0.69253 0.0579,-1.47044 0.0627,-0.7779 0.0986,-1.90565 0.0798,-2.50609 -0.0317,-1.01196 -0.0539,-1.11756 -0.30428,-1.44547 -0.14903,-0.1952 -0.5137,-0.47295 -0.81357,-0.61966 -0.53542,-0.26196 -0.56571,-0.26515 -2.04504,-0.21576 -1.74349,0.0582 -2.28317,0.18731 -4.10377,0.98172 l -1.18958,0.51907 -8.38483,8.81724 c -4.61165,4.84948 -8.76731,9.20999 -9.2348,9.69002 l -0.84998,0.87278 -0.54353,-0.17622 c -1.17432,-0.38072 -3.34958,-0.25544 -4.52135,0.26042 -0.49299,0.21703 -0.48034,0.21427 -0.53151,0.11595 z"
         id="path1678"
         sodipodi:nodetypes="ccscsssssssssscsscccssssssssssssssscssssscsscssss" /><path
         style="fill:#00b0f0;fill-opacity:1;stroke-width:0.0985167"
         d="m -295.57274,185.74861 c -3.94778,-0.96567 -7.72698,-3.82786 -11.55308,-8.74974 -2.85042,-3.66678 -5.56268,-8.45447 -6.55772,-11.57571 -0.47312,-1.48409 -0.44616,-1.77408 0.0939,-1.0098 1.54712,2.18959 6.89378,7.46184 10.87447,10.72313 3.9853,3.26506 6.82199,4.9143 7.80138,4.53569 0.32559,-0.12587 0.84225,-0.91173 1.4661,-2.22999 1.06712,-2.25494 1.82977,-5.24473 2.17376,-8.52169 0.24538,-2.33762 0.12186,-6.5538 -0.25624,-8.74603 -0.068,-0.39431 -0.0931,-0.73581 -0.0558,-0.75888 0.0373,-0.0231 0.33312,0.0652 0.6573,0.19613 1.27493,0.51496 2.87036,0.77488 4.41946,0.71999 l 0.88665,-0.0314 0.11439,0.69072 c 0.20036,1.20983 0.42757,3.6638 0.4912,5.3052 0.14842,3.82861 -0.60378,8.95314 -1.83756,12.5188 -1.32955,3.84242 -3.41992,6.27708 -5.91678,6.89128 -0.71164,0.17506 -2.16879,0.19707 -2.80143,0.0423 z m 7.09919,-27.08332 c -0.86446,-0.11664 -2.15711,-0.55954 -2.88637,-0.98896 -0.30967,-0.18235 -0.96809,-0.73053 -1.46316,-1.21819 -1.00506,-0.99 -1.53919,-1.8395 -1.98219,-3.15253 -0.24408,-0.72344 -0.2662,-0.91753 -0.26939,-2.3644 -0.003,-1.5138 0.008,-1.60983 0.29872,-2.42311 0.47564,-1.33285 0.96039,-2.11041 1.90349,-3.05328 1.34788,-1.34755 2.76431,-2.04424 4.57419,-2.2499 3.77144,-0.42854 7.25059,1.99714 8.25577,5.75595 0.15984,0.59773 0.21076,1.07374 0.21076,1.97034 0,0.89659 -0.0509,1.3726 -0.21076,1.97033 -0.59863,2.23852 -2.06354,4.03419 -4.10232,5.02856 -1.36954,0.66796 -2.87887,0.92082 -4.32874,0.72519 z"
         id="path1680"
         sodipodi:nodetypes="sssssssssssscssssssssssccsssssss" /><path
         style="fill:#7030a0;fill-opacity:1;stroke-width:0.0985167"
         d="m -314.93127,184.62072 c -1.02494,-0.12989 -2.64817,-0.46075 -3.35329,-0.6835 -3.30567,-1.04426 -6.0069,-3.02845 -7.4339,-5.4606 -1.10783,-1.88814 -2.01597,-4.2475 -2.43069,-6.31493 -0.31512,-1.57093 -0.31522,-4.10789 -2e-4,-5.57602 0.41385,-1.92876 0.91097,-3.14921 2.35954,-5.7928 1.07707,-1.96561 2.99771,-4.17865 4.91886,-5.6677 0.58471,-0.45321 1.38008,-1.10342 1.76747,-1.44493 0.38739,-0.34151 0.73097,-0.62092 0.7635,-0.62092 0.17381,0 -0.046,0.51331 -1.08926,2.54334 -2.36466,4.60144 -2.86156,5.6106 -3.25895,6.61871 -1.79654,4.5574 -1.61135,8.18194 0.59899,11.72348 1.42733,2.28697 3.40558,4.10402 5.18699,4.76432 1.71187,0.63453 3.65679,0.69344 7.2416,0.21934 1.15812,-0.15317 1.83261,-0.20294 1.94428,-0.14347 0.25549,0.13606 2.63673,2.93095 2.63673,3.09477 0,0.33947 -2.16829,1.5884 -3.58095,2.06261 -1.46632,0.49223 -2.45938,0.65311 -4.25112,0.68872 -0.92114,0.0183 -1.82995,0.0136 -2.0196,-0.0104 z m 15.02379,-9.2924 c -0.75857,-0.64092 -1.39325,-1.23492 -1.41038,-1.32 -0.0171,-0.0851 0.25755,-0.50938 0.61042,-0.9429 2.43868,-2.99608 3.44721,-6.48548 3.12353,-10.80705 -0.15816,-2.11165 -0.29768,-2.86099 -1.25052,-6.71625 -1.15265,-4.66368 -2.21601,-7.67202 -3.83758,-10.85672 -1.57685,-3.09689 -2.78087,-4.41758 -4.5047,-4.94118 -1.1887,-0.36105 -1.88873,-0.14045 -3.22875,1.01751 -0.54351,0.46966 -0.83382,0.66038 -0.90178,0.59242 -0.17878,-0.17878 -0.28035,-1.75664 -0.17368,-2.69823 0.26323,-2.32369 1.3377,-3.97624 3.15027,-4.84518 0.58587,-0.28086 0.72419,-0.30689 1.62553,-0.30585 0.84571,9.9e-4 1.05489,0.0354 1.47775,0.24332 1.47295,0.72418 3.53676,3.72772 6.0598,8.81908 2.35312,4.74849 3.61347,8.31314 4.37146,12.36384 0.76438,4.08479 0.9875,6.39302 0.92088,9.52648 -0.0394,1.85518 -0.0924,2.48745 -0.30396,3.63153 -0.53235,2.87822 -1.31861,4.91018 -2.60892,6.74236 -0.59343,0.84264 -1.38398,1.67638 -1.58202,1.66846 -0.087,-0.003 -0.77877,-0.53072 -1.53735,-1.17164 z m -27.68318,-23.51305 c -7.08018,-0.31867 -13.10819,-1.32774 -15.15815,-2.53743 -0.7041,-0.41549 -2.26644,-2.01574 -2.84854,-2.91766 -1.99814,-3.09594 -3.61178,-7.74639 -5.84542,-16.84635 -0.51205,-2.08609 -1.14703,-4.52438 -1.41107,-5.41841 -0.70288,-2.37994 -0.74122,-2.58466 -0.73807,-3.94067 0.003,-1.08234 0.0345,-1.31855 0.26451,-1.95067 0.34207,-0.94024 1.00376,-1.92273 1.79074,-2.65891 0.69558,-0.65068 1.27189,-0.92024 2.38003,-1.11322 0.83411,-0.14525 3.11144,-0.0668 4.32556,0.14902 3.31183,0.5887 7.70216,2.04511 11.96977,3.97074 3.90462,1.76183 12.52354,6.17353 16.44682,8.41849 3.14555,1.79993 3.82692,2.31334 3.28114,2.47237 -0.0948,0.0276 -1.0208,0.2988 -2.05774,0.60259 -1.03694,0.3038 -1.99873,0.55236 -2.13733,0.55236 -0.13859,0 -1.37382,-0.41713 -2.74494,-0.92695 -1.37113,-0.50982 -3.86726,-1.43677 -5.54697,-2.05988 -8.32335,-3.08766 -10.13272,-3.76593 -11.27441,-4.22636 -0.68047,-0.27442 -1.52537,-0.58299 -1.87757,-0.6857 -0.81296,-0.23708 -2.39681,-0.33039 -3.33858,-0.19668 -0.79578,0.11299 -1.23195,0.37679 -1.67241,1.01151 l -0.23294,0.33566 0.0565,2.31515 c 0.17794,7.28667 1.85688,12.77127 4.93658,16.12635 2.37527,2.58766 6.9128,3.75747 17.49123,4.50937 2.51603,0.17883 2.72166,0.20884 2.79821,0.40832 0.0323,0.0842 0.0588,0.72404 0.0588,1.42179 0,0.69775 0.05,1.60468 0.11107,2.0154 0.0611,0.41072 0.0821,0.77572 0.0467,0.81111 -0.0354,0.0354 -0.38461,0.12417 -0.77606,0.19729 -0.70015,0.13078 -6.4797,0.24319 -8.2975,0.16137 z m 20.28093,-20.24169 c -1.1431,-0.19106 -2.62342,-0.89929 -3.56121,-1.70379 -0.87198,-0.74805 -1.48526,-1.53942 -1.99363,-2.57258 -0.64262,-1.30598 -0.81891,-2.06948 -0.81891,-3.5466 0,-1.48685 0.17675,-2.2465 0.83046,-3.56921 0.8162,-1.65151 2.31234,-3.06989 3.96169,-3.75579 3.73273,-1.5523 8.04196,0.023 9.90787,3.62186 0.69463,1.33977 0.84928,2.01412 0.84928,3.70314 0,1.2752 -0.0317,1.57854 -0.23092,2.21315 -0.91387,2.91032 -3.12835,4.96435 -6.01081,5.57531 -0.71436,0.15141 -2.13446,0.16811 -2.93382,0.0345 z"
         id="path1682"
         sodipodi:nodetypes="sssssssssssssssssssssssssssssssssssscsssssssscssssssssssssssscsssssssssssssssssscss" /></g><path
       d="m -350.20174,206.92497 c -0.60793,0 -1.15422,-0.10567 -1.63879,-0.31718 -0.47578,-0.22027 -0.85026,-0.51985 -1.12338,-0.89871 -0.27317,-0.38768 -0.41412,-0.83262 -0.42291,-1.33483 h 1.28196 c 0.044,0.43172 0.22026,0.79739 0.52865,1.09694 0.31719,0.29076 0.77533,0.43613 1.37447,0.43613 0.57267,0 1.02203,-0.14095 1.34805,-0.42291 0.33478,-0.29076 0.50222,-0.6608 0.50222,-1.11016 0,-0.35242 -0.0969,-0.63879 -0.29076,-0.85904 -0.19387,-0.22027 -0.43613,-0.3877 -0.72689,-0.50223 -0.29074,-0.11457 -0.68286,-0.23789 -1.17623,-0.37004 -0.60795,-0.15859 -1.09694,-0.31719 -1.467,-0.47578 -0.36125,-0.15859 -0.67402,-0.40529 -0.93834,-0.74012 -0.25553,-0.34361 -0.38328,-0.80175 -0.38328,-1.37447 0,-0.50221 0.12769,-0.94715 0.38328,-1.33483 0.25549,-0.38769 0.61232,-0.68724 1.07051,-0.89871 0.46693,-0.21144 1,-0.31718 1.59915,-0.31718 0.86343,0 1.56831,0.21588 2.11459,0.64759 0.55507,0.43172 0.86784,1.00444 0.93834,1.71811 h -1.32161 c -0.044,-0.35242 -0.2291,-0.66082 -0.55508,-0.92514 -0.32603,-0.27312 -0.75773,-0.4097 -1.29519,-0.4097 -0.50221,0 -0.91191,0.13221 -1.2291,0.39648 -0.31719,0.25553 -0.47578,0.61675 -0.47578,1.08373 0,0.33483 0.0926,0.60795 0.27754,0.8194 0.19382,0.21146 0.42729,0.37447 0.70046,0.489 0.28191,0.10568 0.67403,0.22909 1.17623,0.37006 0.60795,0.16738 1.09694,0.33481 1.467,0.50221 0.37005,0.15859 0.68724,0.4097 0.95151,0.75332 0.26437,0.33482 0.39654,0.79297 0.39654,1.37447 0,0.44936 -0.11895,0.87227 -0.35684,1.26875 -0.23789,0.39649 -0.59036,0.71809 -1.05729,0.96479 -0.46699,0.24669 -1.01765,0.37005 -1.65203,0.37005 z m 11.44425,-3.99128 c 0,0.2291 -0.0125,0.47136 -0.0396,0.72689 h -5.78888 c 0.044,0.71367 0.28633,1.27317 0.72688,1.67846 0.44935,0.39648 0.99121,0.59472 1.62559,0.59472 0.51984,0 0.95178,-0.11894 1.29539,-0.35683 0.3523,-0.2467 0.59885,-0.57272 0.7401,-0.97801 h 1.2952 c -0.19412,0.69605 -0.58152,1.26433 -1.16303,1.70488 -0.58151,0.43172 -1.30428,0.6476 -2.16766,0.6476 -0.68723,0 -1.30398,-0.15422 -1.85026,-0.46256 -0.53744,-0.3084 -0.96037,-0.74453 -1.26875,-1.3084 -0.30838,-0.57271 -0.46256,-1.23352 -0.46256,-1.98242 0,-0.7489 0.14985,-1.40534 0.44934,-1.96922 0.29956,-0.56386 0.71809,-0.99563 1.25554,-1.29518 0.54628,-0.30838 1.17182,-0.46256 1.87669,-0.46256 0.68724,0 1.29539,0.14986 1.82404,0.44934 0.52864,0.29957 0.9338,0.71368 1.21589,1.24233 0.29076,0.51984 0.43613,1.11015 0.43613,1.77096 z m -1.24232,-0.2511 c 0,-0.45816 -0.10162,-0.85026 -0.30397,-1.17625 -0.20279,-0.33481 -0.48032,-0.58592 -0.83262,-0.75332 -0.34383,-0.17622 -0.7271,-0.26432 -1.15001,-0.26432 -0.60795,0 -1.12779,0.19383 -1.55951,0.58151 -0.42291,0.38769 -0.66522,0.92513 -0.72689,1.61238 z m 3.47709,-4.26883 c -0.22881,0 -0.42291,-0.0793 -0.58151,-0.23789 -0.14954,-0.15859 -0.22468,-0.35242 -0.22468,-0.5815 0,-0.22909 0.0752,-0.42292 0.22468,-0.58151 0.1586,-0.15859 0.3527,-0.23789 0.58151,-0.23789 0.22921,0 0.41879,0.0793 0.5683,0.23789 0.15859,0.15859 0.23789,0.35242 0.23789,0.58151 0,0.22908 -0.0793,0.42291 -0.23789,0.5815 -0.14954,0.15859 -0.33909,0.23789 -0.5683,0.23789 z m 0.59472,9.99141 c 0,0.64318 -0.16273,1.11458 -0.489,1.41414 -0.32585,0.29955 -0.80163,0.44934 -1.42734,0.44934 h -0.70045 v -1.01764 h 0.5022 c 0.33496,0 0.5683,-0.066 0.70047,-0.19824 0.14127,-0.13221 0.21145,-0.35684 0.21145,-0.67402 v -8.78874 h 1.20267 z m 5.19478,-1.45377 c -0.67857,0 -1.29519,-0.15422 -1.85027,-0.46256 -0.5464,-0.3084 -0.97799,-0.74453 -1.29518,-1.3084 -0.30851,-0.57271 -0.46256,-1.23352 -0.46256,-1.98242 0,-0.74012 0.15859,-1.39211 0.47578,-1.956 0.32585,-0.57271 0.76653,-1.00885 1.32161,-1.3084 0.55507,-0.30838 1.17624,-0.46256 1.86347,-0.46256 0.68725,0 1.3084,0.15423 1.86348,0.46256 0.55508,0.29955 0.99121,0.73132 1.3084,1.29518 0.32587,0.56388 0.489,1.22032 0.489,1.96922 0,0.7489 -0.16768,1.40971 -0.50221,1.98242 -0.32627,0.56387 -0.77108,1 -1.33484,1.3084 -0.56416,0.30839 -1.18945,0.46256 -1.87668,0.46256 z m 0,-1.05729 c 0.43159,0 0.83674,-0.1013 1.21588,-0.30398 0.37872,-0.20266 0.6827,-0.50662 0.91191,-0.91191 0.2379,-0.40527 0.35684,-0.8987 0.35684,-1.4802 0,-0.58152 -0.11473,-1.07493 -0.34361,-1.48021 -0.22923,-0.40529 -0.52866,-0.70487 -0.89871,-0.8987 -0.37004,-0.20266 -0.77107,-0.30398 -1.20266,-0.30398 -0.44068,0 -0.84584,0.10131 -1.2159,0.30398 -0.36138,0.19383 -0.65212,0.49341 -0.87226,0.8987 -0.22054,0.40528 -0.3304,0.89869 -0.3304,1.48021 0,0.59031 0.10568,1.08813 0.31719,1.49342 0.22013,0.40529 0.51089,0.70925 0.87227,0.91191 0.36095,0.19383 0.75744,0.29076 1.18945,0.29076 z m 6.4978,-8.8416 v 9.77995 h -1.20267 v -9.77995 z m 2.67091,1.36125 c -0.22923,0 -0.42293,-0.0793 -0.58153,-0.23789 -0.15859,-0.15859 -0.23789,-0.35242 -0.23789,-0.5815 0,-0.22909 0.0793,-0.42292 0.23789,-0.58151 0.1586,-0.15859 0.3523,-0.23789 0.58153,-0.23789 0.22012,0 0.40514,0.0793 0.55507,0.23789 0.1586,0.15859 0.23789,0.35242 0.23789,0.58151 0,0.22908 -0.0793,0.42291 -0.23789,0.5815 -0.14985,0.15859 -0.33495,0.23789 -0.55507,0.23789 z m 0.5815,1.17625 v 7.24245 h -1.20267 v -7.24245 z m 10.5688,7.24245 -3.79303,-4.20274 v 4.20274 h -1.20268 v -9.21167 h 1.20268 v 4.26883 l 3.80625,-4.26883 h 1.51985 l -4.1763,4.61245 4.21594,4.59922 z m 2.46646,-3.64766 c 0,-0.7401 0.14985,-1.3877 0.44935,-1.94278 0.29943,-0.56388 0.70913,-1.00001 1.22911,-1.3084 0.52863,-0.30838 1.11469,-0.46256 1.75773,-0.46256 0.63438,0 1.18491,0.13659 1.65203,0.40969 0.46711,0.27313 0.81486,0.61676 1.04407,1.03086 v -1.3216 h 1.21589 v 7.24245 h -1.21589 v -1.34805 c -0.23789,0.42291 -0.59473,0.77533 -1.07051,1.05729 -0.4671,0.27312 -1.0131,0.4097 -1.63879,0.4097 -0.64306,0 -1.22456,-0.15859 -1.74453,-0.47578 -0.51998,-0.31719 -0.92968,-0.76212 -1.22911,-1.33483 -0.29944,-0.57271 -0.44935,-1.22468 -0.44935,-1.95599 z m 6.13229,0.0125 c 0,-0.54629 -0.11021,-1.02208 -0.3304,-1.42735 -0.22014,-0.40529 -0.51997,-0.71367 -0.8987,-0.92513 -0.37005,-0.22026 -0.77975,-0.33041 -1.22911,-0.33041 -0.44933,0 -0.85904,0.10567 -1.2291,0.31718 -0.37004,0.21147 -0.66534,0.51985 -0.88547,0.92514 -0.22014,0.40529 -0.33041,0.88107 -0.33041,1.42734 0,0.55508 0.1102,1.03967 0.33041,1.45378 0.22013,0.40528 0.51543,0.71809 0.88547,0.93835 0.37006,0.21145 0.77977,0.31719 1.2291,0.31719 0.44936,0 0.85906,-0.10568 1.22911,-0.31719 0.37873,-0.22026 0.67856,-0.53307 0.8987,-0.93835 0.22013,-0.41411 0.3304,-0.89428 0.3304,-1.44055 z m 5.81221,3.75338 c -0.55508,0 -1.05274,-0.0926 -1.49342,-0.27754 -0.44067,-0.19383 -0.78842,-0.45814 -1.04408,-0.79297 -0.25564,-0.34362 -0.39648,-0.73568 -0.42291,-1.17623 h 1.24232 c 0.0351,0.36125 0.20279,0.65638 0.50221,0.88547 0.30853,0.2291 0.70913,0.34363 1.20268,0.34363 0.45801,0 0.81939,-0.10131 1.08371,-0.30398 0.26433,-0.20266 0.39649,-0.45815 0.39649,-0.76653 0,-0.31719 -0.1408,-0.55066 -0.42292,-0.70047 -0.28208,-0.15859 -0.71821,-0.31277 -1.3084,-0.46256 -0.53731,-0.14095 -0.97799,-0.28195 -1.32162,-0.42291 -0.33493,-0.14985 -0.62569,-0.36564 -0.87226,-0.64759 -0.23789,-0.29076 -0.35684,-0.66961 -0.35684,-1.13659 0,-0.37006 0.11036,-0.70925 0.33041,-1.01765 0.22013,-0.30839 0.53319,-0.55066 0.93834,-0.72688 0.40517,-0.18504 0.86773,-0.27754 1.3877,-0.27754 0.80165,0 1.44924,0.20266 1.94277,0.60793 0.49355,0.40529 0.75788,0.96037 0.79297,1.66524 h -1.20266 c -0.0264,-0.37885 -0.18048,-0.68281 -0.46257,-0.91192 -0.27298,-0.22908 -0.64304,-0.34361 -1.11016,-0.34361 -0.43157,0 -0.77521,0.0926 -1.03086,0.27754 -0.25564,0.18502 -0.38326,0.42733 -0.38326,0.72689 0,0.23789 0.0748,0.43614 0.22467,0.59473 0.15859,0.14985 0.35229,0.27312 0.58152,0.37004 0.23789,0.088 0.56374,0.18945 0.97799,0.30398 0.51997,0.14096 0.9429,0.28196 1.26875,0.42291 0.32587,0.13222 0.6034,0.33483 0.83262,0.60795 0.23789,0.27312 0.36137,0.62996 0.37005,1.07051 0,0.39649 -0.11036,0.75332 -0.33041,1.07051 -0.22012,0.31719 -0.53319,0.56828 -0.93834,0.75332 -0.39648,0.17622 -0.8545,0.26432 -1.37449,0.26432 z m 13.05054,-7.49356 c 0.56376,0 1.06597,0.11894 1.50664,0.35684 0.44027,0.22908 0.78843,0.57708 1.04408,1.04408 0.25524,0.46697 0.38327,1.03527 0.38327,1.70488 v 4.26881 h -1.18946 v -4.09628 c 0,-0.72246 -0.18088,-1.27316 -0.54185,-1.65201 -0.3527,-0.38768 -0.83262,-0.58151 -1.44057,-0.58151 -0.62569,0 -1.12336,0.20266 -1.49342,0.60794 -0.37006,0.39648 -0.55508,0.97359 -0.55508,1.73132 v 3.99128 h -1.18945 v -4.09702 c 0,-0.72246 -0.1809,-1.27316 -0.54186,-1.65201 -0.35271,-0.38768 -0.83262,-0.58151 -1.44056,-0.58151 -0.6257,0 -1.12338,0.20266 -1.49342,0.60794 -0.37006,0.39648 -0.55508,0.97359 -0.55508,1.73132 v 3.99128 h -1.20268 v -7.24245 h 1.20268 v 1.04407 c 0.23789,-0.37885 0.55508,-0.66961 0.95156,-0.87227 0.40515,-0.20266 0.84996,-0.30397 1.33483,-0.30397 0.60795,0 1.14526,0.13659 1.61236,0.40971 0.4667,0.27312 0.81487,0.67402 1.04408,1.20266 0.20238,-0.51101 0.53732,-0.9075 1.00444,-1.18946 0.46669,-0.28195 0.98667,-0.42291 1.55949,-0.42291 z m 4.45757,3.72695 c 0,-0.74009 0.14954,-1.38769 0.44935,-1.94277 0.29942,-0.56388 0.70913,-1.00002 1.2291,-1.3084 0.52864,-0.30838 1.11428,-0.46256 1.75774,-0.46256 0.63438,0 1.18491,0.13658 1.65203,0.40969 0.4667,0.27312 0.81485,0.61675 1.04407,1.03086 v -1.3216 h 1.21589 v 7.24244 h -1.21589 v -1.34804 c -0.2379,0.42291 -0.59473,0.77533 -1.07051,1.05728 -0.46711,0.27312 -1.0135,0.40971 -1.6388,0.40971 -0.64346,0 -1.22498,-0.1586 -1.74453,-0.47578 -0.51997,-0.31719 -0.92968,-0.76213 -1.2291,-1.33483 -0.29984,-0.57272 -0.44935,-1.22468 -0.44935,-1.956 z m 6.13229,0.0125 c 0,-0.54629 -0.11021,-1.02207 -0.3304,-1.42734 -0.22055,-0.40529 -0.51997,-0.71367 -0.89871,-0.92514 -0.37004,-0.22025 -0.77974,-0.33041 -1.2291,-0.33041 -0.44934,0 -0.85904,0.10568 -1.2291,0.31719 -0.37004,0.21146 -0.66535,0.51985 -0.88547,0.92514 -0.22055,0.40528 -0.33041,0.88107 -0.33041,1.42734 0,0.55508 0.10989,1.03966 0.33041,1.45377 0.22012,0.40529 0.51543,0.71809 0.88547,0.93836 0.37006,0.21145 0.77976,0.31719 1.2291,0.31719 0.44936,0 0.85906,-0.10568 1.2291,-0.31719 0.37874,-0.22027 0.67816,-0.53307 0.89871,-0.93836 0.22013,-0.41411 0.3304,-0.89427 0.3304,-1.44055 z m 4.45096,-2.43178 c 0.21146,-0.41412 0.51088,-0.73568 0.89869,-0.96478 0.39648,-0.22909 0.8764,-0.34361 1.44057,-0.34361 v 1.24232 h -0.31719 c -1.34805,0 -2.02207,0.73129 -2.02207,2.19387 v 3.93842 h -1.20268 v -7.24245 h 1.20268 z m 3.27802,2.41856 c 0,-0.7401 0.14985,-1.3877 0.44934,-1.94277 0.29944,-0.56389 0.70913,-1.00002 1.2291,-1.3084 0.52865,-0.30839 1.1147,-0.46256 1.75775,-0.46256 0.63438,0 1.18491,0.13658 1.65202,0.40969 0.46712,0.27312 0.81487,0.61675 1.04408,1.03086 v -1.32161 h 1.21588 v 7.24245 h -1.21588 v -1.34805 c -0.23789,0.42291 -0.59473,0.77533 -1.07051,1.05729 -0.4671,0.27312 -1.0131,0.4097 -1.63881,0.4097 -0.64304,0 -1.22456,-0.15859 -1.74453,-0.47578 -0.51997,-0.31718 -0.92966,-0.76212 -1.2291,-1.33482 -0.29943,-0.57272 -0.44934,-1.22469 -0.44934,-1.956 z m 6.13229,0.0125 c 0,-0.54629 -0.11021,-1.02207 -0.33041,-1.42735 -0.22013,-0.40528 -0.51997,-0.71367 -0.89869,-0.92513 -0.37006,-0.22025 -0.77975,-0.33041 -1.22911,-0.33041 -0.44935,0 -0.85904,0.10568 -1.2291,0.31719 -0.37006,0.21146 -0.66534,0.51984 -0.88549,0.92513 -0.22012,0.40529 -0.33039,0.88107 -0.33039,1.42735 0,0.55508 0.1102,1.03966 0.33039,1.45377 0.22015,0.40529 0.51543,0.71809 0.88549,0.93836 0.37006,0.21144 0.77975,0.31718 1.2291,0.31718 0.44936,0 0.85905,-0.10567 1.22911,-0.31718 0.37872,-0.22027 0.67856,-0.53307 0.89869,-0.93836 0.22014,-0.41411 0.33041,-0.89428 0.33041,-1.44055 z m 6.777,-3.74018 c 0.88093,0 1.5946,0.26874 2.14101,0.80619 0.5464,0.52864 0.8194,1.29518 0.8194,2.29961 v 4.26882 h -1.18945 v -4.09482 c 0,-0.72246 -0.18048,-1.27316 -0.54186,-1.65201 -0.36138,-0.38768 -0.8545,-0.58151 -1.48022,-0.58151 -0.63437,0 -1.14112,0.19825 -1.51986,0.59473 -0.37004,0.39649 -0.55508,0.97357 -0.55508,1.73131 v 4.0045 h -1.20266 v -7.24245 h 1.20266 v 1.03086 c 0.23789,-0.37006 0.55964,-0.6564 0.96479,-0.85906 0.41425,-0.20266 0.86772,-0.30397 1.36127,-0.30397 z"
       fill="#000000"
       id="path1694"
       style="stroke-width:0.413004" /></g></svg>
