<?xml version="1.0" encoding="UTF-8" standalone="no"?>
<!-- Created with Inkscape (http://www.inkscape.org/) -->

<svg
   width="14.023895mm"
   height="9.8054199mm"
   viewBox="0 0 14.023895 9.8054199"
   version="1.1"
   id="svg5"
   xml:space="preserve"
   inkscape:version="1.2.2 (732a01da63, 2022-12-09)"
   sodipodi:docname="sejoli kasmaran.svg"
   xmlns:inkscape="http://www.inkscape.org/namespaces/inkscape"
   xmlns:sodipodi="http://sodipodi.sourceforge.net/DTD/sodipodi-0.dtd"
   xmlns="http://www.w3.org/2000/svg"
   xmlns:svg="http://www.w3.org/2000/svg"><sodipodi:namedview
     id="namedview7"
     pagecolor="#ffffff"
     bordercolor="#000000"
     borderopacity="0.25"
     inkscape:showpageshadow="2"
     inkscape:pageopacity="0.0"
     inkscape:pagecheckerboard="0"
     inkscape:deskcolor="#d1d1d1"
     inkscape:document-units="mm"
     showgrid="false"
     inkscape:zoom="2.0913615"
     inkscape:cx="-1539.6669"
     inkscape:cy="1492.5683"
     inkscape:window-width="1920"
     inkscape:window-height="991"
     inkscape:window-x="-9"
     inkscape:window-y="-9"
     inkscape:window-maximized="1"
     inkscape:current-layer="layer1" /><defs
     id="defs2" /><g
     inkscape:label="Layer 1"
     inkscape:groupmode="layer"
     id="layer1"
     transform="translate(409.188,-328.93883)"><path
       style="fill:#f012be;fill-opacity:1;stroke-width:0.013153"
       d="m -399.55441,338.52676 c -0.25456,-0.0386 -0.58364,-0.1272 -0.61533,-0.16566 -0.01,-0.0118 0.007,-0.0704 0.0578,-0.20661 0.0393,-0.10457 0.0779,-0.19413 0.0858,-0.19901 0.008,-0.005 0.0684,-0.0129 0.13452,-0.0178 0.47661,-0.0352 0.98876,-0.22719 1.25101,-0.46892 0.0394,-0.0364 0.0663,-0.0517 0.0807,-0.0461 0.04,0.0154 0.54736,0.36871 0.55392,0.38579 0.017,0.0442 -0.21471,0.27433 -0.40418,0.40155 -0.21151,0.142 -0.48091,0.25507 -0.72615,0.30478 -0.0921,0.0187 -0.32927,0.0254 -0.41816,0.012 z m -2.9397,-2.5512 c -0.10851,-0.0682 -0.28882,-0.18157 -0.4007,-0.25196 -0.75071,-0.47228 -1.15348,-0.87501 -1.32148,-1.32133 -0.039,-0.10351 -0.11647,-0.48264 -0.14056,-0.68751 -0.0203,-0.17247 -0.0207,-0.64665 -6.6e-4,-0.77519 0.017,-0.10956 0.0704,-0.19431 0.24963,-0.39623 0.15236,-0.17166 0.35103,-0.33252 0.37772,-0.30583 0.003,0.003 -5.3e-4,0.0284 -0.007,0.0571 -0.0275,0.1186 -0.0787,0.43208 -0.0978,0.59809 -0.0616,0.53666 -0.0567,0.97783 0.0142,1.28242 0.0799,0.34315 0.41592,0.78285 1.21385,1.58822 0.15217,0.18983 0.53969,0.47987 0.11308,0.21222 z m 3.30775,-2.13255 c -5.3e-4,-0.11869 -0.0661,-0.31738 -0.12782,-0.38753 -0.0371,-0.0422 -0.0107,-0.0575 0.16294,-0.0945 1.06278,-0.22647 1.46937,-0.3388 1.81731,-0.50206 0.30378,-0.14254 0.47025,-0.30988 0.58237,-0.5854 0.0489,-0.12011 0.0835,-0.25535 0.13073,-0.51078 0.0206,-0.11145 0.0455,-0.21062 0.0552,-0.22037 0.0183,-0.0183 1.02284,-0.37274 1.0565,-0.37274 0.0104,0 0.019,0.003 0.019,0.006 0,0.0161 -0.23542,0.61618 -0.31492,0.80273 -0.30005,0.70407 -0.67656,1.3176 -0.89269,1.45467 -0.20557,0.13036 -0.80575,0.26696 -1.40984,0.32085 -0.0542,0.005 -0.31371,0.0379 -0.57656,0.0735 -0.26285,0.0356 -0.48333,0.0647 -0.48995,0.0647 -0.007,0 -0.0121,-0.0222 -0.0122,-0.0493 z"
       id="path689"
       sodipodi:nodetypes="sssssssssssscssscsscsscccssssssssssssssss"
       inkscape:export-filename="OneDrive\Desktop\sejolikasmaran\public\assets\imgs\logos\sejoli-kasmaran-logo.svg"
       inkscape:export-xdpi="96"
       inkscape:export-ydpi="96" /><path
       style="fill:#ffc000;fill-opacity:1;stroke-width:0.013153"
       d="m -398.0397,337.04745 -0.30698,-0.21199 0.009,-0.0471 c 0.0163,-0.0868 0.009,-0.42774 -0.0121,-0.56797 -0.0744,-0.49374 -0.31236,-0.98518 -0.77704,-1.60467 -0.11884,-0.15843 -0.11422,-0.14961 -0.0991,-0.18944 0.007,-0.0186 0.0184,-0.0788 0.0253,-0.13369 0.007,-0.0549 0.0156,-0.10303 0.0195,-0.10691 0.009,-0.009 0.25247,0.12069 0.40785,0.21677 0.1531,0.0947 0.41791,0.29269 0.494,0.36942 0.0835,0.0842 0.26872,0.31706 0.34659,0.43574 0.30256,0.46115 0.41399,1.04366 0.31265,1.63434 -0.0281,0.16368 -0.0918,0.41754 -0.10474,0.4175 -0.004,-2e-5 -0.14585,-0.0954 -0.31469,-0.21202 z m -2.79414,-4.19092 c -0.005,-0.009 0.006,-0.94703 0.0269,-2.33794 l 0.01,-0.63135 h 0.36171 0.36171 l -0.004,1.06211 c -0.004,0.91964 -0.002,1.0621 0.0145,1.0621 0.0502,0 0.37563,-0.37909 0.64354,-0.74972 0.0758,-0.10489 0.21275,-0.2943 0.30427,-0.42089 0.45626,-0.63111 0.75537,-0.95911 1.13555,-1.24525 0.14644,-0.11022 0.20154,-0.13879 0.49778,-0.2581 0.41987,-0.1691 0.836,-0.29949 1.14855,-0.35988 0.25018,-0.0484 0.56745,-0.052 0.70681,-0.008 0.0511,0.0161 0.11712,0.0468 0.14676,0.0683 0.0779,0.0564 0.19269,0.20449 0.24627,0.31763 0.0916,0.19348 0.0924,0.39134 0.003,0.69632 -0.0672,0.22873 -0.14076,0.46536 -0.14641,0.47101 -0.003,0.003 -0.11346,0.0395 -0.246,0.0816 -0.13253,0.0421 -0.38445,0.12249 -0.55981,0.17862 -0.17536,0.0561 -0.32221,0.0987 -0.32632,0.0946 -0.004,-0.004 -6.7e-4,-0.0925 0.008,-0.19632 0.008,-0.10386 0.0132,-0.25442 0.0106,-0.33459 -0.004,-0.1351 -0.007,-0.1492 -0.0406,-0.19298 -0.0199,-0.0261 -0.0686,-0.0632 -0.10862,-0.0827 -0.0715,-0.035 -0.0755,-0.0354 -0.27304,-0.0288 -0.23277,0.008 -0.30482,0.025 -0.54789,0.13107 l -0.15882,0.0693 -1.11946,1.17719 c -0.61571,0.64746 -1.17053,1.22963 -1.23294,1.29372 l -0.11348,0.11652 -0.0726,-0.0235 c -0.15678,-0.0508 -0.4472,-0.0341 -0.60365,0.0348 -0.0658,0.029 -0.0641,0.0286 -0.071,0.0155 z"
       id="path691"
       sodipodi:nodetypes="ccscsssssssssscsscccssssssssssssssscssssscsscssss" /><path
       style="fill:#00b0f0;fill-opacity:1;stroke-width:0.013153"
       d="m -401.44187,338.73019 c -0.52707,-0.12893 -1.03163,-0.51106 -1.54245,-1.16818 -0.38056,-0.48955 -0.74268,-1.12876 -0.87552,-1.54547 -0.0632,-0.19815 -0.0596,-0.23686 0.0125,-0.13482 0.20656,0.29233 0.92039,0.99623 1.45186,1.43164 0.53207,0.43592 0.9108,0.65611 1.04156,0.60557 0.0435,-0.0168 0.11245,-0.12173 0.19574,-0.29773 0.14247,-0.30106 0.24429,-0.70023 0.29022,-1.13773 0.0328,-0.3121 0.0163,-0.875 -0.0342,-1.16769 -0.009,-0.0526 -0.0124,-0.0982 -0.007,-0.10132 0.005,-0.003 0.0445,0.009 0.0877,0.0262 0.17022,0.0687 0.38323,0.10345 0.59005,0.0961 l 0.11837,-0.004 0.0153,0.0922 c 0.0267,0.16153 0.0571,0.48916 0.0656,0.7083 0.0198,0.51116 -0.0806,1.19534 -0.24534,1.67139 -0.17751,0.513 -0.45659,0.83805 -0.78995,0.92005 -0.095,0.0234 -0.28955,0.0263 -0.37402,0.006 z m 0.94782,-3.6159 c -0.11542,-0.0156 -0.288,-0.0747 -0.38536,-0.13204 -0.0413,-0.0243 -0.12925,-0.0975 -0.19535,-0.16264 -0.13419,-0.13217 -0.2055,-0.24559 -0.26464,-0.42089 -0.0326,-0.0966 -0.0355,-0.1225 -0.036,-0.31567 -4e-4,-0.20211 0.001,-0.21493 0.0399,-0.32351 0.0635,-0.17795 0.12823,-0.28176 0.25414,-0.40765 0.17995,-0.17991 0.36906,-0.27292 0.6107,-0.30038 0.50353,-0.0572 0.96803,0.26664 1.10223,0.76848 0.0213,0.0798 0.0281,0.14335 0.0281,0.26306 0,0.1197 -0.007,0.18325 -0.0281,0.26306 -0.0799,0.29886 -0.2755,0.5386 -0.5477,0.67136 -0.18285,0.0892 -0.38436,0.12294 -0.57793,0.0968 z"
       id="path693"
       sodipodi:nodetypes="sssssssssssscssssssssssccsssssss" /><path
       style="fill:#7030a0;fill-opacity:1;stroke-width:0.013153"
       d="m -404.02643,338.57961 c -0.13684,-0.0174 -0.35356,-0.0615 -0.4477,-0.0913 -0.44134,-0.13942 -0.80198,-0.40433 -0.9925,-0.72904 -0.14791,-0.25209 -0.26915,-0.56709 -0.32452,-0.84311 -0.0421,-0.20974 -0.0421,-0.54845 -3e-5,-0.74446 0.0553,-0.25751 0.12163,-0.42045 0.31502,-0.7734 0.1438,-0.26242 0.40023,-0.55789 0.65672,-0.75669 0.0781,-0.0605 0.18426,-0.14732 0.23598,-0.19291 0.0517,-0.0456 0.0976,-0.0829 0.10193,-0.0829 0.0232,0 -0.006,0.0685 -0.14542,0.33956 -0.31571,0.61434 -0.38205,0.74907 -0.43511,0.88366 -0.23985,0.60846 -0.21513,1.09238 0.08,1.56521 0.19057,0.30533 0.45468,0.54793 0.69252,0.63608 0.22855,0.0847 0.48822,0.0926 0.96683,0.0293 0.15462,-0.0204 0.24467,-0.0271 0.25958,-0.0192 0.0341,0.0182 0.35203,0.39132 0.35203,0.41319 0,0.0453 -0.28949,0.21206 -0.47809,0.27538 -0.19577,0.0657 -0.32836,0.0872 -0.56757,0.0919 -0.12298,0.002 -0.24432,0.002 -0.26964,-10e-4 z m 2.00583,-1.24063 c -0.10128,-0.0856 -0.18601,-0.16488 -0.1883,-0.17624 -0.002,-0.0114 0.0344,-0.068 0.0815,-0.12588 0.32559,-0.40001 0.46024,-0.86588 0.41702,-1.44286 -0.0211,-0.28192 -0.0397,-0.38197 -0.16696,-0.89668 -0.15389,-0.62265 -0.29586,-1.0243 -0.51235,-1.44949 -0.21053,-0.41346 -0.37128,-0.58979 -0.60143,-0.6597 -0.1587,-0.0482 -0.25216,-0.0187 -0.43107,0.13585 -0.0726,0.0627 -0.11132,0.0882 -0.12039,0.0791 -0.0239,-0.0239 -0.0374,-0.23453 -0.0232,-0.36024 0.0351,-0.31024 0.17859,-0.53087 0.42059,-0.64689 0.0782,-0.0375 0.0967,-0.041 0.21703,-0.0408 0.11291,1.3e-4 0.14083,0.005 0.19729,0.0325 0.19665,0.0967 0.47219,0.49768 0.80905,1.17743 0.31416,0.63398 0.48243,1.10989 0.58363,1.6507 0.10205,0.54536 0.13184,0.85354 0.12295,1.27188 -0.005,0.24769 -0.0123,0.33211 -0.0406,0.48485 -0.0711,0.38427 -0.17605,0.65556 -0.34832,0.90018 -0.0792,0.1125 -0.18478,0.22381 -0.21122,0.22275 -0.0116,-4e-4 -0.10397,-0.0709 -0.20525,-0.15642 z m -3.69599,-3.13924 c -0.94527,-0.0425 -1.75008,-0.17726 -2.02377,-0.33877 -0.094,-0.0555 -0.30259,-0.26912 -0.38031,-0.38954 -0.26677,-0.41334 -0.4822,-1.03422 -0.78042,-2.24916 -0.0684,-0.27851 -0.15314,-0.60405 -0.18839,-0.72341 -0.0938,-0.31775 -0.099,-0.34508 -0.0985,-0.52612 4e-4,-0.1445 0.005,-0.17604 0.0353,-0.26043 0.0457,-0.12554 0.13402,-0.25671 0.23909,-0.355 0.0929,-0.0869 0.16981,-0.12286 0.31775,-0.14862 0.11137,-0.0194 0.41541,-0.009 0.57751,0.0199 0.44216,0.0786 1.02832,0.27305 1.59809,0.53014 0.5213,0.23522 1.67202,0.82423 2.19582,1.12395 0.41996,0.24031 0.51093,0.30886 0.43806,0.33009 -0.0127,0.004 -0.13628,0.0399 -0.27473,0.0804 -0.13844,0.0406 -0.26685,0.0738 -0.28535,0.0738 -0.0185,0 -0.18342,-0.0557 -0.36648,-0.12376 -0.18306,-0.0681 -0.51632,-0.19182 -0.74058,-0.27502 -1.11125,-0.41223 -1.35282,-0.50279 -1.50525,-0.56426 -0.0908,-0.0366 -0.20365,-0.0778 -0.25067,-0.0916 -0.10854,-0.0317 -0.32,-0.0441 -0.44574,-0.0263 -0.10624,0.0151 -0.16447,0.0503 -0.22328,0.13505 l -0.0311,0.0448 0.008,0.30909 c 0.0238,0.97285 0.24792,1.7051 0.65909,2.15303 0.31712,0.34548 0.92293,0.50167 2.33526,0.60205 0.33591,0.0239 0.36337,0.0279 0.37359,0.0545 0.004,0.0112 0.008,0.0967 0.008,0.18982 0,0.0932 0.007,0.21424 0.0148,0.26908 0.008,0.0548 0.011,0.10356 0.006,0.10829 -0.005,0.005 -0.0514,0.0166 -0.10361,0.0263 -0.0935,0.0175 -0.86511,0.0325 -1.1078,0.0215 z m 2.70771,-2.70247 c -0.15261,-0.0255 -0.35025,-0.12006 -0.47545,-0.22747 -0.11642,-0.0999 -0.1983,-0.20553 -0.26617,-0.34347 -0.0858,-0.17436 -0.10934,-0.2763 -0.10934,-0.47351 0,-0.19851 0.0236,-0.29993 0.11088,-0.47652 0.10897,-0.2205 0.30872,-0.40986 0.52892,-0.50144 0.49836,-0.20725 1.07369,0.003 1.32281,0.48356 0.0927,0.17887 0.11338,0.2689 0.11338,0.4944 0,0.17026 -0.004,0.21075 -0.0308,0.29548 -0.12201,0.38856 -0.41766,0.66279 -0.8025,0.74436 -0.0954,0.0202 -0.28497,0.0224 -0.3917,0.005 z"
       id="path695"
       sodipodi:nodetypes="sssssssssssssssssssssssssssssssssssscsssssssscssssssssssssssscsssssssssssssssssscss" /></g></svg>
