<?xml version="1.0" encoding="UTF-8" standalone="no"?>
<svg
   id="a6835eff-9637-4cbf-a41d-043a371e68bf"
   data-name="Layer 1"
   width="763.89543"
   height="628.23639"
   viewBox="0 0 763.89543 628.23639"
   version="1.1"
   sodipodi:docname="at_the_park.svg"
   inkscape:version="1.2.2 (732a01da63, 2022-12-09)"
   xmlns:inkscape="http://www.inkscape.org/namespaces/inkscape"
   xmlns:sodipodi="http://sodipodi.sourceforge.net/DTD/sodipodi-0.dtd"
   xmlns="http://www.w3.org/2000/svg"
   xmlns:svg="http://www.w3.org/2000/svg">
  <defs
     id="defs7312" />
  <sodipodi:namedview
     id="namedview7310"
     pagecolor="#ffffff"
     bordercolor="#000000"
     borderopacity="0.25"
     inkscape:showpageshadow="2"
     inkscape:pageopacity="0.0"
     inkscape:pagecheckerboard="0"
     inkscape:deskcolor="#d1d1d1"
     showgrid="false"
     inkscape:lockguides="true"
     inkscape:zoom="0.93420031"
     inkscape:cx="302.93289"
     inkscape:cy="313.10202"
     inkscape:window-width="1920"
     inkscape:window-height="991"
     inkscape:window-x="-9"
     inkscape:window-y="-9"
     inkscape:window-maximized="1"
     inkscape:current-layer="a6835eff-9637-4cbf-a41d-043a371e68bf" />
  <path
     d="M452.78073,486.84415c0-38.92181,31.57371-131.28134,70.52186-131.28134s70.52186,92.35953,70.52186,131.28134a70.52188,70.52188,0,0,1-141.04372,0Z"
     transform="translate(-218.05228 -135.88181)"
     fill="#f2f2f2"
     id="path7193" />
  <path
     d="M523.30257,658.29978a.57968.57968,0,0,1-.57989-.5795V414.74851a.57989.57989,0,0,1,1.15977,0V657.72028A.57967.57967,0,0,1,523.30257,658.29978Z"
     transform="translate(-218.05228 -135.88181)"
     fill="#3f3d56"
     id="path7195" />
  <path
     d="M523.30257,461.65594a.57826.57826,0,0,1-.41007-.16977l-27.91244-27.89342a.57968.57968,0,0,1,.82014-.81944l27.91243,27.89342a.57949.57949,0,0,1-.41006.98921Z"
     transform="translate(-218.05228 -135.88181)"
     fill="#3f3d56"
     id="path7197" />
  <path
     d="M523.30257,509.94505a.5795.5795,0,0,1-.41007-.98921l46.74444-46.71305a.57968.57968,0,0,1,.82014.81944l-46.74445,46.713A.57831.57831,0,0,1,523.30257,509.94505Z"
     transform="translate(-218.05228 -135.88181)"
     fill="#3f3d56"
     id="path7199" />
  <path
     d="M332.78073,445.69205c0-48.26367,39.15191-162.791,87.44824-162.791s87.44825,114.52731,87.44825,162.791a87.44827,87.44827,0,0,1-174.89649,0Z"
     transform="translate(-218.05228 -135.88181)"
     fill="#e6e6e6"
     id="path7201" />
  <path
     d="M420.22894,658.29978a.7188.7188,0,0,1-.71906-.71858V356.29229a.71907.71907,0,0,1,1.43813,0V657.5812A.71881.71881,0,0,1,420.22894,658.29978Z"
     transform="translate(-218.05228 -135.88181)"
     fill="#3f3d56"
     id="path7203" />
  <path
     d="M420.22894,414.45826a.717.717,0,0,1-.50849-.21052l-34.61187-34.58829a.71881.71881,0,0,1,1.017-1.01612l34.61187,34.5883a.71858.71858,0,0,1-.50849,1.22663Z"
     transform="translate(-218.05228 -135.88181)"
     fill="#3f3d56"
     id="path7205" />
  <path
     d="M420.22894,474.33753a.71859.71859,0,0,1-.50849-1.22664L477.68431,415.186a.71881.71881,0,1,1,1.017,1.01612L420.73743,474.127A.71718.71718,0,0,1,420.22894,474.33753Z"
     transform="translate(-218.05228 -135.88181)"
     fill="#3f3d56"
     id="path7207" />
  <path
     d="M218.05228,362.42742c0-67.16541,54.44833-226.54561,121.61374-226.54561S461.27976,295.262,461.27976,362.42742a121.61374,121.61374,0,0,1-243.22748,0Z"
     transform="translate(-218.05228 -135.88181)"
     fill="#428dfc"
     id="path7209" />
  <path
     d="M339.666,658.29978a1,1,0,0,1-1-1V238.0156a1,1,0,1,1,2,0V657.29978A1,1,0,0,1,339.666,658.29978Z"
     transform="translate(-218.05228 -135.88181)"
     fill="#3f3d56"
     id="path7211" />
  <path
     d="M339.666,318.9614a.99683.99683,0,0,1-.70715-.293l-48.13452-48.13428a1,1,0,0,1,1.4143-1.41406l48.13452,48.13427a1,1,0,0,1-.70715,1.707Z"
     transform="translate(-218.05228 -135.88181)"
     fill="#3f3d56"
     id="path7213" />
  <path
     d="M339.666,402.29147a1,1,0,0,1-.70715-1.707l80.61-80.61035a1,1,0,1,1,1.41431,1.41406l-80.61,80.61036A.997.997,0,0,1,339.666,402.29147Z"
     transform="translate(-218.05228 -135.88181)"
     fill="#3f3d56"
     id="path7215" />
  <path
     d="M980.94772,659.04355h-743a1,1,0,0,1,0-2h743a1,1,0,0,1,0,2Z"
     transform="translate(-218.05228 -135.88181)"
     fill="#3f3d56"
     id="path7217" />
  <path
     d="m 623.90319,348.72712 a 5.462379,5.462379 0 1 0 0,-10.92475 h -51.89255 v -21.84953 h 51.89255 a 5.4623749,5.4623749 0 1 0 0,-10.92474 H 181.45038 a 5.4623749,5.4623749 0 0 0 0,10.92474 h 51.89261 v 21.84953 h -51.89257 a 5.462379,5.462379 0 0 0 0,10.92475 h 51.89261 v 21.84952 h -51.89261 a 5.4623853,5.4623853 0 0 0 0,10.92477 h 51.89261 v 21.84952 h -46.43016 a 10.92477,10.92477 0 0 0 0,21.84951 h 44.20049 a 8.1418422,8.1418422 0 0 0 -0.50145,2.73119 v 76.47333 a 8.1935728,8.1935728 0 0 0 16.38714,0 v -76.47333 a 8.1418213,8.1418213 0 0 0 -0.5014,-2.73119 h 312.3584 a 8.1418422,8.1418422 0 0 0 -0.50144,2.73119 v 76.47333 a 8.1935752,8.1935752 0 0 0 16.38715,0 v -76.47333 a 8.1418213,8.1418213 0 0 0 -0.50142,-2.73119 h 44.20044 a 10.92477,10.92477 0 1 0 0,-21.84951 h -46.43014 v -21.8496 h 51.89255 a 5.4623958,5.4623958 0 1 0 0,-10.92477 H 572.01064 V 348.72712 Z M 244.26778,315.95284 h 316.81803 v 21.84953 H 244.26778 Z m 316.81803,87.39809 H 244.26778 v -21.8496 h 316.81803 z m 0,-32.77429 H 244.26778 v -21.84952 h 316.81803 z"
     fill="#3f3d56"
     id="path7219"
     style="stroke-width:2.08759" />
  <circle
     cx="391.56946"
     cy="252.11826"
     r="29.694233"
     fill="#2f2e41"
     id="circle7271"
     style="stroke-width:2.08759" />
  <polygon
     points="564.054,493.249 573.246,493.249 573.245,517.272 567.017,517.271 "
     fill="#a0616a"
     id="polygon7273"
     transform="matrix(2.087593,0,0,2.087593,-879.03031,-573.67215)" />
  <path
     d="m 295.38403,502.46489 h 25.07451 v 15.78767 h -40.86222 v 0 a 15.787651,15.787651 0 0 1 15.78771,-15.78767 z"
     fill="#2f2e41"
     id="path7275"
     style="stroke-width:2.08759" />
  <polygon
     points="561.946,488.123 570.716,490.875 563.523,513.796 557.581,511.931 "
     fill="#a0616a"
     id="polygon7277"
     transform="matrix(2.087593,0,0,2.087593,-879.03031,-573.67215)" />
  <path
     d="m 277.22351,488.70592 23.92416,7.50776 -4.72711,15.06333 -38.9875,-12.23484 v 0 a 15.787651,15.787651 0 0 1 19.79045,-10.33625 z"
     fill="#2f2e41"
     id="path7279"
     style="stroke-width:2.08759" />
  <path
     d="m 301.6069,478.91487 a 4.7318427,4.7318427 0 0 1 -1.66715,-0.30346 l -9.56503,-3.58649 a 4.7889383,4.7889383 0 0 1 -2.98424,-5.49723 c 2.40817,-10.82776 10.61541,-47.69184 15.10941,-67.46451 5.32999,-23.4534 83.08319,-27.81143 86.39028,-27.98542 l 0.27187,-0.0145 8.74661,10.99138 c 3.16062,10.15872 2.15879,18.0825 -2.97751,23.55179 -14.98746,15.95734 -59.73568,6.05545 -65.07163,4.80231 l -23.78428,62.43331 a 4.7860365,4.7860365 0 0 1 -4.46833,3.07281 z"
     fill="#2f2e41"
     id="path7281"
     style="stroke-width:2.08759" />
  <path
     d="m 315.39351,486.33843 a 4.7323228,4.7323228 0 0 1 -1.66715,-0.30347 l -9.56502,-3.58647 a 4.7889383,4.7889383 0 0 1 -2.98423,-5.49727 c 2.40815,-10.82773 10.61541,-47.6918 15.10939,-67.46447 5.32998,-23.4534 83.08319,-27.81145 86.3903,-27.98542 l 0.27185,-0.0145 8.74661,10.99139 c 3.16062,10.15874 2.1588,18.08251 -2.97751,23.5518 -14.98746,15.9563 -59.73543,6.05545 -65.07163,4.80231 l -23.78428,62.4333 a 4.7860365,4.7860365 0 0 1 -4.46833,3.07282 z"
     fill="#2f2e41"
     id="path7283"
     style="stroke-width:2.08759" />
  <path
     d="m 287.7198,333.60397 a 11.160272,11.160272 0 0 1 0.93841,1.48637 l 52.30465,5.51063 7.52917,-10.32298 17.06433,9.32664 -14.78831,25.05053 -64.14742,-16.35573 a 11.130879,11.130879 0 1 1 1.09915,-14.69546 z"
     fill="#a0616a"
     id="path7285"
     style="stroke-width:2.08759" />
  <path
     d="m 409.26792,396.68506 a 4.7728429,4.7728429 0 0 1 -2.17354,-0.53131 c -10.45907,-5.31806 -30.8252,-14.52814 -49.71084,-16.45548 a 4.6580252,4.6580252 0 0 1 -3.28275,-1.85587 4.7919861,4.7919861 0 0 1 -0.8842,-3.72319 c 1.70415,-9.43382 5.61354,-33.45576 5.10993,-52.7085 A 26.084474,26.084474 0 0 1 378.0329,295.4624 v 0 a 84.697823,84.697823 0 0 1 10.51267,-2.07232 26.29578,26.29578 0 0 1 29.22691,30.50205 c -3.36796,19.95185 -6.76309,47.81817 -3.81226,67.27085 a 4.7795859,4.7795859 0 0 1 -1.92864,4.61177 4.6968128,4.6968128 0 0 1 -2.76366,0.91031 z"
     fill="#cccccc"
     id="path7287"
     style="stroke-width:2.08759" />
  <path
     d="m 359.29456,345.938 a 4.7681877,4.7681877 0 0 1 -1.89471,-0.39562 l -13.62531,-5.89802 a 4.7783124,4.7783124 0 0 1 -2.48374,-6.27504 l 10.53258,-24.33058 a 12.195554,12.195554 0 1 1 22.38434,9.68851 l -10.53234,24.33061 a 4.783594,4.783594 0 0 1 -4.38082,2.88014 z"
     fill="#cccccc"
     id="path7289"
     style="stroke-width:2.08759" />
  <circle
     cx="390.4838"
     cy="259.06583"
     r="26.04719"
     fill="#a0616a"
     id="circle7291"
     style="stroke-width:2.08759" />
  <path
     d="m 363.96789,246.2686 a 93.951103,93.951103 0 0 0 40.64526,13.39255 l -4.28437,-5.13351 a 31.484138,31.484138 0 0 0 9.72565,1.93125 10.651212,10.651212 0 0 0 8.68176,-4.06357 9.9071945,9.9071945 0 0 0 0.66315,-9.152 18.7646,18.7646 0 0 0 -5.90317,-7.38131 35.144732,35.144732 0 0 0 -32.71083,-5.84601 21.004442,21.004442 0 0 0 -9.76981,6.26695 c -2.46927,3.04618 -7.22308,5.76021 -5.95877,9.4721 z"
     fill="#2f2e41"
     id="path7293"
     style="stroke-width:2.08759" />
  <path
     d="m 394.86352,225.2484 a 80.052427,80.052427 0 0 0 -29.12472,-18.83378 40.977592,40.977592 0 0 0 -22.06398,-2.73851 c -7.36048,1.48121 -14.32121,6.5731 -16.37468,13.79481 -1.67913,5.90529 0.0547,12.2635 2.66051,17.82242 2.60582,5.55893 6.08475,10.71378 8.19202,16.48017 a 37.614062,37.614062 0 0 1 -37.84852,50.4402 c 7.232,0.96971 13.89813,4.36829 20.96707,6.17718 7.06894,1.8089 15.41214,1.68633 20.6653,-3.37791 5.55805,-5.35816 5.66933,-14.06996 5.40061,-21.7855 l -1.19841,-34.40816 c -0.20374,-5.84916 -0.37767,-11.8858 1.7317,-17.34516 2.10939,-5.45937 7.12256,-10.23993 12.97505,-10.19027 4.43561,0.0375 8.36151,2.72472 11.91869,5.37472 3.55716,2.64998 7.32224,5.47726 11.74047,5.87142 4.41823,0.39414 9.46284,-2.87553 9.13222,-7.29896"
     fill="#2f2e41"
     id="path7295"
     style="stroke-width:2.08759" />
  <path
     d="M 346.69225,389.99415 A 11.670271,11.670271 0 1 1 351.19087,367.55 h 2.5e-4 a 11.206053,11.206053 0 0 1 1.39087,0.70475 l 47.44794,-21.30233 1.3329,-12.86851 20.45283,-0.54733 -0.13549,21.42402 a 11.538377,11.538377 0 0 1 -8.33674,10.96861 l -55.48797,15.79432 a 10.873186,10.873186 0 0 1 -0.38086,1.0807 11.713484,11.713484 0 0 1 -10.78241,7.19002 z"
     fill="#a0616a"
     id="path7297"
     style="stroke-width:2.08759" />
  <path
     d="m 420.0834,344.03876 a 4.7683755,4.7683755 0 0 1 -1.8684,0.50519 l -14.81909,0.91116 a 4.7783333,4.7783333 0 0 1 -5.05598,-4.47012 l -1.62659,-26.46259 a 12.195572,12.195572 0 1 1 24.34509,-1.49782 l 1.6268,26.46245 a 4.7836149,4.7836149 0 0 1 -2.60173,4.55169 z"
     fill="#cccccc"
     id="path7299"
     style="stroke-width:2.08759" />
  <rect
     x="-391.58774"
     y="-392.66974"
     width="91.203743"
     height="7.4235644"
     rx="3.7117822"
     transform="scale(-1)"
     fill="#3f3d56"
     id="rect7301"
     style="stroke-width:2.08759" />
  <path
     d="m 267.50831,385.77646 v -51.96492 a 6.901123,6.901123 0 0 1 6.89323,-6.89323 h 94.38527 a 6.901123,6.901123 0 0 1 6.89324,6.89323 v 51.96492 a 6.9011021,6.9011021 0 0 1 -6.89324,6.89324 h -94.3852 a 6.9011021,6.9011021 0 0 1 -6.8933,-6.89324 z"
     fill="#3f3d56"
     id="path7303"
     style="stroke-width:2.08759" />
  <circle
     cx="321.59415"
     cy="359.79404"
     r="6.3630457"
     fill="#ffffff"
     id="circle7305"
     style="stroke-width:2.08759" />
  <g
     id="g7443"
     transform="matrix(-1.2483251,0,0,1.2483251,768.53701,-224.99067)">
    <circle
       cx="245.32254"
       cy="357.5343"
       r="19.027081"
       fill="#ffb8b8"
       id="circle7225" />
    <polygon
       points="219.711,583.041 212.601,570.961 181.031,589.544 185.849,597.728 "
       fill="#ffb8b8"
       id="polygon7227" />
    <path
       d="m 400.52653,721.76483 9.48783,16.11879 3.8e-4,6.5e-4 a 11.91934,11.91934 0 0 1 -4.2263,16.31844 l -0.33382,0.19647 -15.53428,-26.39126 z"
       transform="translate(-218.05228,-135.88181)"
       fill="#2f2e41"
       id="path7229" />
    <polygon
       points="250.868,582.396 236.851,582.397 236.852,619.03 246.35,619.03 "
       fill="#ffb8b8"
       id="polygon7231" />
    <path
       d="m 452.482,751.811 18.70386,-7.6e-4 h 7.5e-4 a 11.91936,11.91936 0 0 1 11.91969,11.9195 v 0.38734 l -30.62373,10e-4 z"
       transform="translate(-218.05228,-135.88181)"
       fill="#2f2e41"
       id="path7233" />
    <path
       d="m 416.72132,732.717 a 3.48078,3.48078 0 0 1 -2.80748,-1.42 l -9.15968,-12.44037 a 3.48577,3.48577 0 0 1 0.87115,-4.96585 l 40.75932,-27.2237 -24.59363,-64.66661 52.59276,4.3402 1.77141,55.57084 a 27.92416,27.92416 0 0 1 -13.97933,25.11828 L 418.463,732.24868 a 3.47526,3.47526 0 0 1 -1.74168,0.46832 z"
       transform="translate(-218.05228,-135.88181)"
       fill="#2f2e41"
       id="path7235" />
    <path
       d="m 455.1912,747.47458 a 3.486,3.486 0 0 1 -3.47739,-3.362 l -1.92745,-54.13646 23.86679,-1.25735 -1.9004,54.52531 a 3.47624,3.47624 0 0 1 -3.25345,3.35672 l -13.07112,0.86623 c -0.0793,0.005 -0.15831,0.008 -0.23698,0.008 z"
       transform="translate(-218.05228,-135.88181)"
       fill="#2f2e41"
       id="path7237" />
    <path
       d="m 472.47042,637.091 c -6.07228,0 -19.28176,-6.82994 -26.64486,-9.26446 -1.10151,0.88136 -7.1528,5.40616 -14.21632,4.57928 -4.35836,-0.51142 -8.19529,-2.97846 -11.40411,-7.333 C 413.1191,615.45573 427.41,579.90447 436,547 c 3.61375,-13.84221 11.86591,-28.00323 25.85811,-24.965 v 0 a 26.782,26.782 0 0 1 20.20972,19.65992 c 1.61727,6.58332 0.226,14.32715 -0.78981,19.9822 a 27.15741,27.15741 0 0 0 -0.72589,5.79048 c 0.49855,3.98842 -4.7318,66.539 -6.51267,69.21029 -0.1897,0.28445 -0.73818,0.41311 -1.56904,0.41311 z"
       transform="translate(-218.05228,-135.88181)"
       fill="#428dfc"
       id="path7239" />
    <path
       d="m 458.25637,637.20175 a 8.32219,8.32219 0 0 0 0.72944,-12.74025 l 0.376,-75.798 -17.85247,2.97277 5.24405,73.57219 a 8.36731,8.36731 0 0 0 11.503,11.99329 z"
       transform="translate(-218.05228,-135.88181)"
       fill="#ffb8b8"
       id="path7241" />
    <path
       d="m 462.38541,597.3414 h -19.22908 a 3.49655,3.49655 0 0 1 -3.48608,-3.45431 l -0.47208,-52.13014 a 13.63679,13.63679 0 1 1 27.27212,0.0333 l -0.599,52.10518 a 3.49807,3.49807 0 0 1 -3.48588,3.44599 z"
       transform="translate(-218.05228,-135.88181)"
       fill="#428dfc"
       id="path7243" />
    <path
       d="m 458.53,512.36391 a 19.30481,19.30481 0 0 1 -18.43973,-15.44973 22.21133,22.21133 0 0 1 0.71214,-10.08154 27.07831,27.07831 0 0 1 37.13478,-17.0065 c 2.3305,1.05458 4.626,2.5692 5.69309,4.894 1.06709,2.3248 0.39924,5.57409 -1.9351,6.62016 -1.52547,0.68361 -3.43977,0.34792 -4.79312,1.32916 -1.9439,1.40944 -1.4435,4.409 -0.57548,6.64767 0.86802,2.23867 1.84976,4.94785 0.39467,6.85782 -1.35587,1.77975 -4.0661,1.72452 -6.20086,1.05463 -2.13476,-0.66989 -4.24185,-1.79167 -6.46757,-1.56348 -3.24624,0.33281 -5.57907,3.5618 -6.01087,6.79636 -0.4318,3.23456 0.58469,6.46779 1.58825,9.5729 z"
       transform="translate(-218.05228,-135.88181)"
       fill="#2f2e41"
       id="path7245" />
    <path
       d="m 465.5,525.5 h -11 a 4,4 0 0 1 0,-8 h 11 a 4,4 0 0 1 0,8 z"
       transform="translate(-218.05228,-135.88181)"
       fill="#428dfc"
       id="path7307" />
  </g>
</svg>
