<?xml version="1.0" encoding="UTF-8" standalone="no"?>
<svg
   viewBox="0 0 1173.99 1117.67"
   version="1.1"
   id="svg204"
   sodipodi:docname="conducting keyword research.svg"
   inkscape:version="1.2.2 (732a01da63, 2022-12-09)"
   xmlns:inkscape="http://www.inkscape.org/namespaces/inkscape"
   xmlns:sodipodi="http://sodipodi.sourceforge.net/DTD/sodipodi-0.dtd"
   xmlns="http://www.w3.org/2000/svg"
   xmlns:svg="http://www.w3.org/2000/svg">
  <sodipodi:namedview
     id="namedview206"
     pagecolor="#ffffff"
     bordercolor="#000000"
     borderopacity="0.25"
     inkscape:showpageshadow="2"
     inkscape:pageopacity="0.0"
     inkscape:pagecheckerboard="0"
     inkscape:deskcolor="#d1d1d1"
     showgrid="false"
     inkscape:zoom="0.50865983"
     inkscape:cx="257.5395"
     inkscape:cy="553.41504"
     inkscape:window-width="1920"
     inkscape:window-height="991"
     inkscape:window-x="-9"
     inkscape:window-y="-9"
     inkscape:window-maximized="1"
     inkscape:current-layer="svg204" />
  <defs
     id="defs4">
    <style
       id="style2">
      .cls-1 {
        fill: #4d4d4d;
      }

      .cls-1, .cls-2, .cls-3, .cls-4, .cls-5, .cls-6, .cls-7, .cls-8, .cls-9, .cls-10, .cls-11 {
        stroke-width: 0px;
      }

      .cls-12 {
        mix-blend-mode: multiply;
        opacity: .7;
      }

      .cls-2, .cls-3 {
        fill: #bcd2fd;
      }

      .cls-3, .cls-5 {
        opacity: .5;
      }

      .cls-4 {
        fill: #e0a4ab;
      }

      .cls-5 {
        fill: #8cc63f;
      }

      .cls-13 {
        isolation: isolate;
      }

      .cls-7 {
        fill: #f4826c;
      }

      .cls-8 {
        fill: #4874ff;
      }

      .cls-9 {
        fill: #8999b9;
      }

      .cls-14 {
        stroke: #fff;
        stroke-width: 5px;
      }

      .cls-14, .cls-15 {
        fill: none;
        stroke-linecap: round;
        stroke-linejoin: round;
      }

      .cls-10 {
        fill: #204560;
      }

      .cls-15 {
        stroke: #000;
        stroke-width: 8px;
      }

      .cls-11 {
        fill: #ffcdc2;
      }
    </style>
  </defs>
  <g
     class="cls-13"
     id="g202"
     transform="matrix(0.64292302,0,0,0.64292302,694.94163,399.09426)">
    <g
       id="Layer_2"
       data-name="Layer 2">
      <g
         id="Layer_1-2"
         data-name="Layer 1">
        <g
           id="g198">
          <rect
             class="cls-6"
             x="603.62"
             y="292.22"
             width="67.849998"
             height="128.24001"
             id="rect6" />
          <path
             class="cls-6"
             d="m 732.14,101.19 c 0,0 85.65,-4.27 57.7,128.04 -27.95,132.31 145.02,150.52 29.62,251.63 C 704.06,581.97 662.99,238.85 662.99,238.85 Z"
             id="path8" />
          <g
             id="g44">
            <rect
               class="cls-3"
               x="6.29"
               y="461.76999"
               width="738.82001"
               height="563.13"
               id="rect10" />
            <rect
               class="cls-9"
               x="6.29"
               y="461.76999"
               width="738.82001"
               height="24.83"
               id="rect12" />
            <g
               id="g22">
              <rect
                 class="cls-9"
                 x="53.040001"
                 y="535.06"
                 width="47.540001"
                 height="47.540001"
                 rx="22.98"
                 ry="22.98"
                 id="rect14" />
              <rect
                 class="cls-9"
                 x="53.040001"
                 y="605.28998"
                 width="199.42"
                 height="7.75"
                 id="rect16" />
              <rect
                 class="cls-9"
                 x="53.040001"
                 y="622.45001"
                 width="199.42"
                 height="7.75"
                 id="rect18" />
              <rect
                 class="cls-9"
                 x="53.040001"
                 y="639.59998"
                 width="90.949997"
                 height="7.75"
                 id="rect20" />
            </g>
            <g
               id="g32">
              <rect
                 class="cls-9"
                 x="53.040001"
                 y="695.81"
                 width="47.540001"
                 height="47.540001"
                 rx="22.98"
                 ry="22.98"
                 id="rect24" />
              <rect
                 class="cls-9"
                 x="53.040001"
                 y="766.03998"
                 width="199.42"
                 height="7.75"
                 id="rect26" />
              <rect
                 class="cls-9"
                 x="53.040001"
                 y="783.20001"
                 width="199.42"
                 height="7.75"
                 id="rect28" />
              <rect
                 class="cls-9"
                 x="53.040001"
                 y="800.34998"
                 width="90.949997"
                 height="7.75"
                 id="rect30" />
            </g>
            <g
               id="g42">
              <rect
                 class="cls-9"
                 x="53.040001"
                 y="856.56"
                 width="47.540001"
                 height="47.540001"
                 rx="22.98"
                 ry="22.98"
                 id="rect34" />
              <rect
                 class="cls-9"
                 x="53.040001"
                 y="926.78998"
                 width="199.42"
                 height="7.75"
                 id="rect36" />
              <rect
                 class="cls-9"
                 x="53.040001"
                 y="943.94"
                 width="199.42"
                 height="7.75"
                 id="rect38" />
              <rect
                 class="cls-9"
                 x="53.040001"
                 y="961.09998"
                 width="90.949997"
                 height="7.75"
                 id="rect40" />
            </g>
          </g>
          <g
             id="g58">
            <path
               class="cls-5"
               d="m 752.84,580.9 c 14.14,-9.58 31.58,-13.01 48.44,-10.29 34.39,5.53 112.09,5.63 85.14,-114.9 -34.26,-153.23 -3.84,-205.83 83.99,-190.82 87.83,15 65.66,210.59 43.87,296.66 -21.8,86.07 59.41,60.64 104.96,33.53 60.05,-35.74 65.63,140.46 -67.85,192.31 -133.48,51.85 -1.75,85.73 83.81,37.98 85.55,-47.75 28.57,193.73 -160.58,185.22 -189.15,-8.51 -308.42,-174.23 -193.81,-182.18 114.61,-7.95 67.06,-66.75 6.34,-122.12 -50.61,-46.14 -75.49,-97.48 -34.3,-125.38 z"
               id="path46" />
            <g
               id="g56">
              <path
                 class="cls-14"
                 d="m 963.89,1009.92 c 0,0 -38.07,-433.4 -3.39,-667.31"
                 id="path48" />
              <line
                 class="cls-14"
                 x1="766.90002"
                 y1="581.66998"
                 x2="944.63"
                 y2="703.87"
                 id="line50" />
              <path
                 class="cls-14"
                 d="m 953.01,821.14 c 0,0 86.6,-127.58 182.13,-164.78"
                 id="path52" />
              <path
                 class="cls-14"
                 d="m 807.53,868.6 153.24,87.22 c 0,0 96.34,-28.3 160.56,-74.82"
                 id="path54" />
            </g>
          </g>
          <g
             id="g70">
            <rect
               class="cls-2"
               x="0"
               y="5.52"
               width="733.57001"
               height="121"
               rx="58.48"
               ry="58.48"
               id="rect60" />
            <line
               class="cls-14"
               x1="156.5"
               y1="2.5"
               x2="156.5"
               y2="123.5"
               id="line62" />
            <g
               id="g68">
              <circle
                 class="cls-14"
                 cx="70.470001"
                 cy="62.849998"
                 r="28.129999"
                 id="circle64" />
              <line
                 class="cls-14"
                 x1="93.459999"
                 y1="79.050003"
                 x2="119.2"
                 y2="97.32"
                 id="line66" />
            </g>
          </g>
          <path
             class="cls-10"
             d="m 575.89,885.21 c -26.95,72.24 -44.27,149.34 -54.66,229.96 h 450.85 c 0,0 -59.39,-114.98 -59.39,-114.98 -3.02,-47.23 -17.66,-86.12 -46.28,-114.98 -97.59,-44.45 -194.49,-47.8 -290.52,0 z"
             id="path72" />
          <path
             class="cls-8"
             d="m 642.37,379.51 h -8.14 c -11.99,0 -21.71,9.72 -21.71,21.71 v 0 c 0,0 -37.32,188.92 -60.89,274.39 -23.56,85.47 -38.83,144.49 24.26,209.61 H 866.41 V 799.31 L 767.19,395.29 c 0,0 16.28,-51.38 -43.75,-38.16 -60.03,13.23 -81.06,22.39 -81.06,22.39 z"
             id="path74" />
          <path
             class="cls-8"
             d="m 434.46,468.03 c 0,0 -66.91,-58.23 -105.72,-95.43 C 289.72,335.19 273.8,354.94 273.8,354.94 L 237.39,384 c -10.54,7.78 -12.83,22.6 -5.12,33.19 20.92,28.73 42.01,94.26 65.84,133.26 33.58,54.95 72.24,82.42 72.24,82.42 0,0 121.08,-23.66 64.1,-164.84 z"
             id="path76" />
          <path
             class="cls-8"
             d="m 612.52,401.21 -178.06,66.82 -64.1,164.84 c 0,0 149.57,-17.3 228.94,-8.14 79.37,9.16 13.23,-223.51 13.23,-223.51 z"
             id="path78" />
          <path
             class="cls-1"
             d="m 265.7,623.64 209.85,-46.8 c 7.21,-1.61 14.53,2.24 17.29,9.09 l 104.81,260.01 c 3.84,9.54 -2.76,20.05 -13.03,20.71 l -209.5,13.62 c -6.22,0.4 -12.06,-3.06 -14.68,-8.72 L 255.29,644.72 c -4.05,-8.74 1.01,-18.99 10.41,-21.09 z"
             id="path80" />
          <path
             class="cls-8"
             d="m 650.17,777.49 c 0,0 -6.95,-31.34 22.64,-38.12 29.59,-6.78 218.51,-73.43 273.46,-27.13 49.02,41.31 38.19,145.31 -120.69,145.31 -158.88,0 -177.05,35.29 -187.55,2.23 -10.5,-33.07 12.14,-82.28 12.14,-82.28 z"
             id="path82" />
          <path
             class="cls-8"
             d="m 783.94,642.93 -11.55,-54.27 c -13.53,-63.6 -15.3,-129.14 -5.21,-193.38 v 0 c 0,0 101.75,-26.46 131.26,123.88 0,0 73.63,192.06 73.63,248.78 0,15.98 -44.98,22.71 -68.8,20.6 -70,-6.2 -104.71,-76.88 -119.33,-145.61 z"
             id="path84" />
          <g
             id="g100">
            <path
               class="cls-11"
               d="m 637.53,810.45 c -0.14,-9.63 -3.51,-18.96 -9.7,-26.33 -7.15,-8.51 -18.37,-18.32 -33.81,-21.68 -21.39,-4.66 -32.32,-20.01 -40.48,-15.24 -8.15,4.77 4.35,22.46 13.82,27.15 9.47,4.69 15.29,12.82 15.29,12.82 0,0 -34.52,2.4 -57.03,-0.43 -14.81,-1.86 -26.13,-5.73 -32.15,-8.15 -2.7,-1.09 -5.75,0.25 -6.81,2.96 v 0 c -0.92,2.36 -0.01,5.03 2.15,6.35 l 9.81,5.98 -6.99,-2.23 c -4.38,-1.4 -9,1.37 -9.83,5.89 v 0 c -0.54,2.93 0.66,5.91 3.1,7.62 3.52,2.47 9.14,6.08 15.92,9.15 0,0 -3.6,0.38 -8.03,0.28 -3.67,-0.08 -6.62,2.99 -6.33,6.65 v 0.09 c 0.2,2.4 1.76,4.47 4.01,5.33 3.24,1.23 8.75,2.87 17.16,3.99 l -8.4,1.28 c -2.55,0.39 -4.39,2.65 -4.25,5.23 v 0 c 0.11,2.05 1.46,3.83 3.4,4.48 6.18,2.07 20.28,6.47 33.96,8.35 18.22,2.51 25,12.25 59.72,4.79 3.97,-0.85 7.63,-1.59 11,-2.22 20.21,-3.78 34.76,-21.55 34.47,-42.11 z"
               id="path86" />
            <g
               class="cls-12"
               id="g90">
              <path
                 class="cls-4"
                 d="m 498.61,793.87 c 7.29,2.64 14.83,4.22 22.38,5.81 6.78,1.47 16.27,3.02 22.85,5.05 -14,3.02 -35.19,0.16 -45.23,-10.86 z"
                 id="path88" />
            </g>
            <g
               class="cls-12"
               id="g94">
              <path
                 class="cls-4"
                 d="m 500.82,814.31 c 6.42,1 12.42,2.18 18.68,3.5 6.21,1.36 12.47,2.59 18.47,4.86 -11.86,2.89 -27.98,0.02 -37.14,-8.37 v 0 z"
                 id="path92" />
            </g>
            <g
               class="cls-12"
               id="g98">
              <path
                 class="cls-4"
                 d="m 507.63,830.64 c 7.43,1.26 14.52,2.16 21.91,3.02 6.57,0.8 15.66,1.48 22.09,2.79 -13.3,4.57 -32.79,3.19 -44,-5.82 v 0 z"
                 id="path96" />
            </g>
          </g>
          <path
             class="cls-14"
             d="m 619.43,775.56 c 0,0 55.57,52.49 -16.37,77"
             id="path102" />
          <path
             class="cls-11"
             d="m 604.48,154.79 c -7.85,2.68 -13.31,9.82 -13.82,18.09 -0.67,10.97 -2.24,27.39 -5.96,43.82 -1.88,8.3 -3.69,21.56 -3.8,36.25 -0.06,7.15 0.29,14.63 1.22,22.04 3.75,29.71 16.97,58.39 51.75,60.08 55.63,2.71 84.46,-45.62 84.46,-45.62 l 4.29,-112.74 c 0.45,-11.83 -9,-21.67 -20.84,-21.7 l -97.31,-0.22 z"
             id="path104" />
          <path
             class="cls-11"
             d="m 644.74,318.46 -2.37,61.05 c 34.01,32.85 66.74,30.95 97.85,-15.26 l -21.88,-74.79 z"
             id="path106" />
          <g
             class="cls-12"
             id="g110">
            <path
               class="cls-4"
               d="m 646.78,335.18 c 18.1,-3.15 35.4,-9.79 50.31,-20.47 5.13,-3.45 9.7,-7.58 14.48,-11.52 -3.28,5.39 -7.25,10.43 -12.02,14.59 -13.66,12.44 -34.29,20.07 -52.76,17.4 v 0 z"
               id="path108" />
          </g>
          <g
             id="g128">
            <ellipse
               class="cls-6"
               cx="644.94"
               cy="234.50999"
               rx="6.5799999"
               ry="14.08"
               id="ellipse112" />
            <ellipse
               class="cls-6"
               cx="594.90997"
               cy="234.50999"
               rx="6.5799999"
               ry="14.08"
               id="ellipse114" />
            <path
               class="cls-15"
               d="m 611.07,204.87 c 0,0 -12.99,-10.78 -24.93,-0.15"
               id="path116" />
            <path
               class="cls-15"
               d="m 663,209.35 c 0,0 -11.28,-12.56 -24.64,-3.78"
               id="path118" />
            <path
               class="cls-6"
               d="m 614.89,229.23 c 3.54,10.33 1.5,22.41 -4.72,31.38 -2.44,3.24 -4.02,5.72 -1.63,9.62 2.41,3.94 6.53,7.16 10.24,10.3 -2.71,-0.1 -5.34,-0.75 -7.9,-1.73 -7.84,-2.84 -13.91,-10.67 -9.59,-19.1 1.17,-2.28 2.95,-4.33 4.2,-6.55 4.48,-7.5 6.83,-15.28 9.39,-23.91 v 0 z"
               id="path120" />
            <path
               class="cls-6"
               d="m 613.65,300.82 c 6.28,0.76 12.22,1.97 17.75,0.04 5.39,-1.81 9.45,-7.35 13.54,-11.4 1.17,7.68 -3.23,16.31 -10.86,18.94 -7.51,2.68 -16.47,-0.79 -20.44,-7.57 v 0 z"
               id="path122" />
            <ellipse
               class="cls-7"
               cx="659.91998"
               cy="269.89999"
               rx="15.39"
               ry="12.43"
               id="ellipse124" />
            <path
               class="cls-7"
               d="m 589.82,264.23 c 0,4.6 -3.09,8.61 -7.68,10.76 -0.93,-7.41 -1.29,-14.89 -1.22,-22.04 5.26,1.97 8.91,6.28 8.91,11.28 z"
               id="path126" />
          </g>
          <g
             id="g168">
            <g
               id="g142">
              <path
                 class="cls-11"
                 d="m 298.68,375.7 -18.04,-27.77 -68.45,-69.41 -26.76,5.41 c 0,0 -16.57,25.33 -18.39,60.09 0,0 44.64,19.19 61.68,20.79 0,0 8.2,20.13 18.79,46.11 27.22,-1.38 44.56,-12.83 51.17,-35.23 z"
                 id="path130" />
              <path
                 class="cls-11"
                 d="m 212.19,278.52 -50.14,-57.07 c -1.27,-1.45 -3.56,-1.54 -4.85,-0.11 -2.98,3.31 -5.54,11.05 7.73,27.08 l 20.5,35.51 c 0,0 21,21.85 26.76,-5.41 z"
                 id="path132" />
              <path
                 class="cls-11"
                 d="m 144.74,310.71 c 0,0 -4.44,4.29 -5.47,11.86 -1.03,7.57 0.93,14.78 0.93,14.78 0,0 12.33,16.68 20.16,10.41 l -8.87,-14.37 z"
                 id="path134" />
              <path
                 class="cls-11"
                 d="m 150.21,297.28 c 0,0 -5.47,8.97 -5.73,15.69 -0.26,6.72 3.22,21.2 3.22,21.2 0,0 11.09,13.12 14.08,14.59 2.99,1.47 12.66,-5.1 0.28,-22.59 l 2.67,-14.36 c 0,0 0.78,-14.65 -14.51,-14.53 z"
                 id="path136" />
              <path
                 class="cls-11"
                 d="m 185.43,283.93 -28.41,0.75 c 0,0 -7.49,1.45 -7.19,10.16 l 4.96,32 c 0,0 19.39,20.2 23.33,21.78 3.95,1.57 9.88,-1.63 7.1,-13.82 -2.77,-12.18 -13.12,-20.14 -13.12,-20.14 l 2.86,-8.71 c 0,0 10.03,4.01 11.02,-11.07 0.19,-2.89 0.04,-6.48 -0.57,-10.94 z"
                 id="path138" />
              <path
                 class="cls-11"
                 d="m 227.42,309.7 -39.54,3.29 -30.89,19.83 c 0,0 3.63,11.65 18.78,8.41 15.15,-3.24 18.09,-6.41 18.09,-6.41 L 211,332.63 c 0,0 5.77,20.89 28.78,24.57 23.01,3.68 17.76,-45.77 -12.35,-47.51 z"
                 id="path140" />
            </g>
            <g
               class="cls-12"
               id="g146">
              <path
                 class="cls-4"
                 d="m 239.77,357.21 c -13.34,-1.96 -27.19,-10.34 -30.57,-24.16 0,0 1.91,1.42 1.91,1.42 -9.59,0.89 -18.88,2.97 -28.21,5.45 -7.37,1.7 -15.95,4.59 -23.12,0.44 -2.5,-1.5 -4.42,-3.62 -5.93,-5.79 -0.78,-1.1 -0.51,-2.63 0.6,-3.4 10.08,-6.32 22.19,-13.68 32.43,-19.73 0.25,-0.16 0.55,-0.26 0.83,-0.28 3.3,-0.2 6.61,-0.36 9.91,-0.51 3.31,-0.14 6.61,-0.33 9.92,-0.43 6.62,-0.25 13.24,-0.46 19.86,-0.52 -6.55,1.03 -13.11,1.92 -19.68,2.77 -6.56,0.84 -13.13,1.64 -19.71,2.35 0,0 0.83,-0.28 0.83,-0.28 -9.84,6.61 -21.68,14.34 -31.69,20.7 0,0 0.7,-3.47 0.7,-3.47 5.57,8.72 15.29,5.43 23.89,3.49 9.49,-2.27 19.29,-4.14 29.11,-4.46 0.91,-0.07 1.73,0.55 1.91,1.42 0.65,3.03 1.75,5.99 3.42,8.66 5.22,8.27 14.35,13.47 23.57,16.32 v 0 z"
                 id="path144" />
            </g>
            <g
               class="cls-12"
               id="g150">
              <path
                 class="cls-4"
                 d="m 171.43,317.97 c -1.24,-4.7 -0.72,-9.57 0.44,-14.2 0.26,-1.02 1.17,-1.7 2.18,-1.72 1.57,-0.03 3.15,0.07 4.75,0.33 1.66,0.28 3.26,0.7 4.82,1.46 -0.75,0.52 -1.51,0.9 -2.27,1.25 -2.21,0.99 -4.59,1.57 -6.95,1.85 0,0 2.24,-1.95 2.24,-1.95 -0.79,4.62 -2.24,9.21 -5.19,12.97 v 0 z"
                 id="path148" />
            </g>
            <g
               class="cls-12"
               id="g154">
              <path
                 class="cls-4"
                 d="m 173.67,344.29 c 1.3,0.21 2.37,0.61 3.5,1.11 0.64,0.22 1.33,0.36 1.98,0.43 2.45,0.1 4.9,-0.84 6.36,-3.01 0.42,-0.64 0.79,-1.44 1.4,-2.22 2.63,3.83 0.12,8.86 -4.26,9.85 -2.82,0.73 -5.99,-0.35 -7.57,-2.78 -0.6,-1.08 -1.1,-2.12 -1.42,-3.39 v 0 z"
                 id="path152" />
            </g>
            <g
               class="cls-12"
               id="g158">
              <path
                 class="cls-4"
                 d="m 185.71,285.19 c -8.43,2.18 -16.91,3.4 -25.5,4.37 -0.18,0.03 -0.62,0.06 -0.8,0.09 -2.63,0.25 -4.65,2.78 -4.34,5.4 0.5,10.23 0.67,20.46 -0.45,30.69 -1.42,-5.64 -2.33,-11.32 -3.1,-17.01 -0.56,-4.1 -1,-8.67 -1.35,-12.82 -0.54,-3.74 1.18,-7.71 4.46,-9.66 1.56,-0.96 3.39,-1.4 5.21,-1.41 8.64,-0.38 17.2,-0.5 25.87,0.35 z"
                 id="path156" />
            </g>
            <g
               class="cls-12"
               id="g162">
              <path
                 class="cls-4"
                 d="m 148.61,301.19 c -3.82,11.97 2.26,37.31 13.07,44.38 1.96,1.23 4.26,1.1 6.04,-0.56 -0.98,2.66 -4.31,3.69 -6.94,2.85 -9.77,-3.32 -15.19,-15.37 -16.47,-24.87 -0.94,-7.3 -0.78,-15.97 4.3,-21.8 z"
                 id="path160" />
            </g>
            <g
               class="cls-12"
               id="g166">
              <path
                 class="cls-4"
                 d="m 143.34,313.59 c 0.1,7.31 -1.36,14.74 0.78,21.66 1.3,2.75 3.63,4.76 5.95,6.8 2.71,2.31 5.7,4.44 8.76,6.77 -7.34,-0.91 -15.88,-4.68 -19.32,-11.65 -2.76,-7.69 -0.15,-16.78 3.82,-23.58 v 0 z"
                 id="path164" />
            </g>
          </g>
          <g
             id="g188">
            <line
               class="cls-14"
               x1="698.78998"
               y1="893.34998"
               x2="698.78998"
               y2="996.12"
               id="line170" />
            <line
               class="cls-14"
               x1="706.13"
               y1="1057.17"
               x2="739.71002"
               y2="1115.17"
               id="line172" />
            <path
               class="cls-14"
               d="m 626.26,420.21 c 0,0 69.2,34.09 125.67,-11.7"
               id="path174" />
            <path
               class="cls-14"
               d="m 754.97,489.4 c 11.93,54.44 11.93,107.77 41.72,184.88"
               id="path176" />
            <path
               class="cls-14"
               d="m 644.99,754.63 c 37.74,-18.65 146.11,-65.8 237.69,-58.17 36.03,3 57.55,14.71 70.4,27.8"
               id="path178" />
            <path
               class="cls-14"
               d="m 866.41,854.94 c 0,0 -75.31,-3.82 -134.84,8.39 -45.88,9.41 -74.14,15.49 -86.59,7.54"
               id="path180" />
            <path
               class="cls-14"
               d="m 239.77,409.21 c 0,0 58.68,15.36 61.99,-45.74"
               id="path182" />
            <path
               class="cls-14"
               d="M 564.46,605.29 C 548.37,558.62 559.6,517.04 607.44,454.8"
               id="path184" />
            <line
               class="cls-14"
               x1="434.45999"
               y1="468.03"
               x2="472.10999"
               y2="511.78"
               id="line186" />
          </g>
          <path
             class="cls-11"
             d="m 714.27,213.28 c 0,0 22.88,-12.78 25.95,19.14 3.06,31.92 -31.06,37.48 -31.06,37.48 z"
             id="path190" />
          <path
             class="cls-6"
             d="m 571.96,108.88 c 0.16,-0.23 0.33,-0.46 0.49,-0.7 8.07,-11.33 21.01,-5.91 34.85,-4.51 16.05,1.63 32.26,-7.88 63.73,-18.37 64.1,-21.37 74.28,47.96 74.28,47.96 L 717,228.91 c 0,0 -21.87,-27.41 -0.18,-51.38 0,0 -63.33,21.74 -127,6.18 -28.53,-6.97 -34.72,-50.77 -17.87,-74.82 z"
             id="path192" />
          <g
             class="cls-12"
             id="g196">
            <path
               class="cls-4"
               d="m 721.77,221.37 c 16.85,3.71 21.23,19.22 6.53,29.52 -3.48,2.47 -7.28,4.28 -11.31,5.42 2.99,-2.95 6.04,-5.59 8.74,-8.4 11.1,-11.01 6.94,-17.71 -3.97,-26.54 v 0 z"
               id="path194" />
          </g>
        </g>
      </g>
    </g>
  </g>
</svg>
