<?xml version="1.0" encoding="UTF-8" standalone="no"?>
<svg
   viewBox="0 0 1202.5 1074.95"
   version="1.1"
   id="svg1093"
   sodipodi:docname="email marketing campaigns.svg"
   inkscape:version="1.2.2 (732a01da63, 2022-12-09)"
   xmlns:inkscape="http://www.inkscape.org/namespaces/inkscape"
   xmlns:sodipodi="http://sodipodi.sourceforge.net/DTD/sodipodi-0.dtd"
   xmlns="http://www.w3.org/2000/svg"
   xmlns:svg="http://www.w3.org/2000/svg">
  <sodipodi:namedview
     id="namedview1095"
     pagecolor="#ffffff"
     bordercolor="#000000"
     borderopacity="0.25"
     inkscape:showpageshadow="2"
     inkscape:pageopacity="0.0"
     inkscape:pagecheckerboard="0"
     inkscape:deskcolor="#d1d1d1"
     showgrid="false"
     inkscape:zoom="0.52887472"
     inkscape:cx="364.92574"
     inkscape:cy="407.4689"
     inkscape:window-width="1920"
     inkscape:window-height="991"
     inkscape:window-x="-9"
     inkscape:window-y="-9"
     inkscape:window-maximized="1"
     inkscape:current-layer="svg1093" />
  <defs
     id="defs907">
    <style
       id="style905">
      .cls-1 {
        fill: #4d4d4d;
      }

      .cls-1, .cls-2, .cls-3, .cls-4, .cls-5, .cls-6, .cls-7, .cls-8, .cls-9, .cls-10 {
        stroke-width: 0px;
      }

      .cls-11 {
        mix-blend-mode: multiply;
        opacity: .7;
      }

      .cls-2 {
        fill: #bcd2fd;
      }

      .cls-3 {
        fill: #e0a4ab;
      }

      .cls-4 {
        fill: #8cc63f;
        opacity: .5;
      }

      .cls-12, .cls-13, .cls-14 {
        stroke-linecap: round;
        stroke-linejoin: round;
      }

      .cls-12, .cls-13, .cls-14, .cls-15 {
        fill: none;
      }

      .cls-12, .cls-13, .cls-15 {
        stroke-width: 5px;
      }

      .cls-12, .cls-14, .cls-15 {
        stroke: #000;
      }

      .cls-16 {
        isolation: isolate;
      }

      .cls-6 {
        fill: #f4826c;
      }

      .cls-7 {
        fill: #4874ff;
      }

      .cls-8 {
        fill: #333;
      }

      .cls-13 {
        stroke: #fff;
      }

      .cls-9 {
        fill: #204560;
      }

      .cls-14 {
        stroke-width: 8px;
      }

      .cls-15 {
        stroke-miterlimit: 10;
      }

      .cls-10 {
        fill: #ffcdc2;
      }
    </style>
  </defs>
  <g
     class="cls-16"
     id="g1091"
     transform="matrix(0.39338956,0,0,0.39338956,909.67655,720.3604)">
    <g
       id="Layer_2"
       data-name="Layer 2">
      <g
         id="Layer_1-2"
         data-name="Layer 1">
        <g
           id="g1087">
          <g
             id="g929">
            <g
               id="g917">
              <path
                 class="cls-4"
                 d="m 910.2,1050.78 c 0,0 -10.11,-102.5 -23.74,-185.73 -20.64,-126.09 74.37,-22.88 79.33,-121.52 4.96,-98.64 8.39,-230.52 145.39,-114.54 137,115.97 103.77,270.62 5.91,328.34 -97.86,57.71 -206.88,93.46 -206.88,93.46 z"
                 id="path909" />
              <path
                 class="cls-13"
                 d="m 1040.58,662.51 c 0,0 80.98,223.22 -94.77,349.76"
                 id="path911" />
              <path
                 class="cls-13"
                 d="m 916.74,824.71 c 0,0 54.95,58.55 61.72,160.25"
                 id="path913" />
              <path
                 class="cls-13"
                 d="m 1183.1,809.42 c 0,0 -41.04,79.69 -138.79,69.91"
                 id="path915" />
            </g>
            <g
               id="g927">
              <path
                 class="cls-4"
                 d="m 971.8,613.35 c 0,0 -47.07,-50.49 -88.18,-89.28 -62.28,-58.77 30.31,-42.44 -7.16,-97 -37.48,-54.56 -89.28,-126.2 30.86,-120.14 120.14,6.06 165.33,101.96 136.68,172.5 -28.66,70.54 -72.2,133.92 -72.2,133.92 z"
                 id="path919" />
              <path
                 class="cls-13"
                 d="m 883.35,353.5 c 0,0 133.92,85.97 91.76,224.85"
                 id="path921" />
              <path
                 class="cls-13"
                 d="m 883.35,490.27 c 0,0 53.08,8.84 98.05,60.27"
                 id="path923" />
              <path
                 class="cls-13"
                 d="m 1019.01,373.8 c 0,0 10.55,59.14 -45.5,93.68"
                 id="path925" />
            </g>
          </g>
          <path
             class="cls-5"
             d="m 628.62,345.5 c 0,0 -108.98,100.87 -21.97,166.03 87.01,65.17 184.43,-170.51 21.97,-166.03 z"
             id="path931" />
          <path
             class="cls-5"
             d="m 814.83,188.5 c 0,0 31.07,-0.73 82.31,178.22 34.05,118.93 -31.07,186.12 -31.07,186.12 -58.25,63.57 -98.16,58.77 -121.71,-7.03 0,0 -171.87,-308.44 70.47,-357.31 z"
             id="path933" />
          <g
             id="g939">
            <rect
               class="cls-2"
               x="275.19"
               y="2.5"
               width="231.99001"
               height="159.49001"
               id="rect935" />
            <polyline
               class="cls-13"
               points="275.19 2.5 391.19 82.25 507.18 2.5"
               id="polyline937" />
          </g>
          <g
             id="g945">
            <rect
               class="cls-2"
               x="963.15002"
               y="108.76"
               width="231.99001"
               height="159.49001"
               id="rect941" />
            <polyline
               class="cls-13"
               points="963.15 108.76 1079.15 188.5 1195.14 108.76"
               id="polyline943" />
          </g>
          <g
             id="g951">
            <rect
               class="cls-2"
               x="2.5"
               y="310.81"
               width="166.17999"
               height="114.25"
               id="rect947" />
            <polyline
               class="cls-13"
               points="2.5 310.81 85.59 367.93 168.68 310.81"
               id="polyline949" />
          </g>
          <g
             id="g957">
            <rect
               class="cls-2"
               x="327.60999"
               y="342.82999"
               width="127.15"
               height="87.410004"
               id="rect953" />
            <polyline
               class="cls-13"
               points="327.61 342.83 391.19 386.54 454.76 342.83"
               id="polyline955" />
          </g>
          <path
             class="cls-15"
             d="m 387.25,170.91 v 14.5 c 0,12.94 10.49,23.42 23.42,23.42 h 521.7"
             id="path959" />
          <path
             class="cls-15"
             d="m 513.31,278.82 v 161.44 c 0,12.94 -10.49,23.42 -23.42,23.42 h -75.28 c -12.94,0 -23.42,-10.49 -23.42,-23.42 v 0"
             id="path961" />
          <path
             class="cls-15"
             d="M 73.32,300.57 V 109.8 c 0,-8.75 7.09,-15.84 15.84,-15.84 h 168.91"
             id="path963" />
          <line
             class="cls-15"
             x1="176.21001"
             y1="386.54001"
             x2="319.25"
             y2="386.54001"
             id="line965" />
          <path
             class="cls-9"
             d="m 814.47,1074.95 h 145.11 c 0,0 46.33,-40.64 -9.18,-100.53 -55.51,-59.88 -239.96,100.53 -135.94,100.53 z"
             id="path967" />
          <path
             class="cls-7"
             d="m 942.3,522.97 4.38,3.21 -102.06,526.04 -31.69,14.86 h -116.7 l 32.13,-576.96 104.17,-12.68 10.82,2.13 c 35.77,7.05 69.55,21.86 98.96,43.4 z"
             id="path969" />
          <path
             class="cls-7"
             d="m 305.13,575.88 63.07,103.5 23.17,54.64 -129.49,123.59 -69.15,-208.9 c -2.72,-6.65 -2.32,-14.17 1.08,-20.49 l 23.16,-36.8 58.13,-25.08 c 10.99,-4.74 23.8,-0.67 30.03,9.56 z"
             id="path971" />
          <path
             class="cls-7"
             d="m 368.19,727.9 v -48.52 c 0,0 112.77,-142.26 143.8,-160.08 31.03,-17.82 65.13,84.46 52.01,168.38 C 550.88,771.6 422.16,990.61 422.16,990.61 L 368.18,727.89 Z"
             id="path973" />
          <path
             class="cls-7"
             d="m 640.93,473.86 c -34.21,4.73 -67.48,14.75 -98.61,29.7 -11.47,5.51 -22.53,11.12 -30.32,15.74 -24.48,14.53 -43.6,418.95 -43.6,418.95 v 125.34 H 732.49 V 459.96 Z"
             id="path975" />
          <path
             class="cls-7"
             d="m 946.69,526.18 c 0,0 38.03,52.12 77.37,167.19 39.34,115.06 79.66,227.18 -30.49,224.23 C 883.42,914.65 776.88,834.01 815.89,691.4 854.9,548.8 946.69,526.18 946.69,526.18 Z"
             id="path977" />
          <path
             class="cls-7"
             d="m 1060.17,812.82 c 0,0 66.17,203.13 -48.57,227.39 -114.74,24.26 -166.97,12.02 -166.97,12.02 l -55.95,-8.74 -14.42,-135.72 z"
             id="path979" />
          <g
             id="g985">
            <rect
               class="cls-8"
               x="513.31"
               y="1052.22"
               width="331.32001"
               height="22.73"
               id="rect981" />
            <path
               class="cls-1"
               d="m 110.1,732.78 38.02,342.17 H 541.36 L 498.16,727.79 C 496.83,717.11 487.76,709.1 477,709.1 H 131.29 c -12.71,0 -22.6,11.05 -21.19,23.68 z"
               id="path983" />
          </g>
          <path
             class="cls-7"
             d="m 641.16,488.15 c 0,0 32.13,29.5 101.3,29.5 69.17,0 86,-31.91 86,-31.91 0,0 43.73,-60.83 -52.34,-61.61 -96.06,-0.78 -119.61,-4.38 -129.11,24.14 -9.51,28.52 -5.84,39.88 -5.84,39.88 z"
             id="path987" />
          <path
             class="cls-13"
             d="m 671.97,459.96 c 0,0 22.95,21.69 73.1,16.75 50.16,-4.94 70.81,-16.63 70.81,-16.63"
             id="path989" />
          <g
             id="g1005">
            <path
               class="cls-10"
               d="m 727.84,950.11 c -7.76,-3.77 -16.46,-5.18 -25.03,-4.19 -28.13,3.26 -97.11,11.94 -115.8,20.62 -17.41,8.08 -40.78,36.77 -51.9,51.34 -3.63,4.76 -2.78,11.53 1.89,15.27 v 0 c 4.75,3.8 11.69,3.03 15.49,-1.73 l 3.92,-4.9 -3.6,9.75 c -1.83,4.96 0.14,10.51 4.68,13.21 v 0 c 4.15,2.47 9.44,1.93 13,-1.34 l 16.34,-14.96 -3.91,8.39 c -3.23,6.93 1.32,14.98 8.92,15.78 v 0 c 3.68,0.39 7.31,-1.08 9.69,-3.91 l 20.4,-24.28 c 4.81,-5.73 11,-10.15 17.98,-12.85 l 27.28,-10.53 -39.18,23.66 c -4.28,3.48 -4.35,9.99 -0.16,13.57 v 0 c 2.82,2.41 6.85,2.79 10.08,0.96 l 43.14,-17.44 41.97,-8.34 c 12.01,-2.39 22.77,-9.36 29.27,-19.74 10.67,-17.02 5.08,-33.98 -24.48,-48.33 z"
               id="path991" />
            <g
               class="cls-11"
               id="g995">
              <path
                 class="cls-3"
                 d="m 562.22,1018.92 c 5.76,-8.31 12.28,-16.02 18.98,-23.56 2.23,-2.5 4.51,-4.96 6.8,-7.4 0.29,-0.3 0.65,-0.53 1.01,-0.65 12.82,-4.29 25.78,-8.21 39.1,-10.63 -3.01,1.61 -6.1,3 -9.18,4.41 -9.26,4.1 -18.73,7.7 -28.32,10.95 0,0 1.01,-0.65 1.01,-0.65 -9.27,9.73 -18.84,19.2 -29.42,27.53 v 0 z"
                 id="path993" />
            </g>
            <g
               class="cls-11"
               id="g999">
              <path
                 class="cls-3"
                 d="m 589.82,1029.43 c 5.25,-9.58 11.84,-18.33 18.74,-26.75 0.29,-0.35 0.67,-0.6 1.06,-0.75 4.82,-1.74 9.7,-3.32 14.65,-4.73 4.98,-1.38 9.98,-2.65 15.12,-3.44 -2.23,1.38 -4.52,2.57 -6.82,3.75 -6.89,3.48 -14.02,6.44 -21.24,9.1 0,0 1.08,-0.76 1.08,-0.76 -6.92,8.4 -14.21,16.57 -22.58,23.58 v 0 z"
                 id="path997" />
            </g>
            <g
               class="cls-11"
               id="g1003">
              <path
                 class="cls-3"
                 d="m 546.17,1006.81 c 1.87,-3.83 4.15,-7.37 6.54,-10.87 2.63,-3.58 5.11,-7.39 8.23,-10.52 7.57,-4.39 15.4,-8.43 23.81,-11 -1.6,1.57 -3.29,2.98 -5,4.36 -5.14,4.06 -10.62,7.66 -16.27,10.93 0,0 0.66,-0.56 0.66,-0.56 -5.44,6.4 -11.22,12.58 -17.97,17.65 v 0 z"
                 id="path1001" />
            </g>
          </g>
          <path
             class="cls-13"
             d="m 483.42,703.94 c 0,0 11.08,-60.88 49.44,-139.58"
             id="path1007" />
          <line
             class="cls-13"
             x1="368.19"
             y1="679.38"
             x2="380.26001"
             y2="707.83002"
             id="line1009" />
          <path
             class="cls-13"
             d="m 905.6,547.68 c 0,0 -62.43,44.3 -88.15,131.13"
             id="path1011" />
          <line
             class="cls-13"
             x1="715.25"
             y1="932.34998"
             x2="1026.97"
             y2="823.84003"
             id="line1013" />
          <path
             class="cls-13"
             d="m 757.32,1039.55 c 0,0 127.08,23.38 204.77,12.68"
             id="path1015" />
          <path
             class="cls-13"
             d="m 809.66,713.8 c 12.28,63.88 32.57,118.48 61.45,163.14"
             id="path1017" />
          <path
             class="cls-13"
             d="m 732.48,952.5 c 0,0 53.45,29.18 6.8,59.1"
             id="path1019" />
          <path
             class="cls-10"
             d="m 685.52,413.19 c 0,0 0.44,37.15 -13.55,46.77 0,0 42.93,35.86 137.68,2.62 0,0 -25.17,-63.08 -39.16,-94.99 l -84.98,45.59 z"
             id="path1021" />
          <g
             class="cls-11"
             id="g1025">
            <path
               class="cls-3"
               d="m 699.02,424.14 c 15.9,-6.3 30.85,-14.38 44.43,-24.66 8.17,-6.27 15.33,-13.25 22.5,-20.81 -12.29,24.42 -39.83,42.68 -66.93,45.48 v 0 z"
               id="path1023" />
          </g>
          <g
             id="g1053">
            <path
               class="cls-10"
               d="m 612.53,275.51 c 0,0 -4.74,23.61 -5.71,52.25 -0.39,11.41 -0.18,23.63 1.18,35.46 3.39,29.78 13.98,57.15 40.38,63.31 70.5,16.47 123.26,-56.38 123.26,-56.38 v -93.39 c 0,-39.69 -32.79,-71.54 -72.46,-70.39 l -18.29,0.53 c -37.39,1.09 -67.41,31.22 -68.35,68.61 v 0 z"
               id="path1027" />
            <path
               class="cls-6"
               d="m 736.4,353.71 c 0,9.8 -9.84,17.75 -21.97,17.75 -12.14,0 -21.97,-7.95 -21.97,-17.75 0,-9.8 9.84,-17.75 21.97,-17.75 12.13,0 21.97,7.95 21.97,17.75 z"
               id="path1029" />
            <path
               class="cls-6"
               d="m 628.62,345.5 c 0,9.44 -9.12,17.16 -20.63,17.71 -1.35,-11.83 -1.57,-24.04 -1.18,-35.46 12.06,0.08 21.8,7.99 21.8,17.75 z"
               id="path1031" />
            <circle
               class="cls-12"
               cx="626.77002"
               cy="305.35001"
               r="28.040001"
               id="circle1033" />
            <circle
               class="cls-12"
               cx="702.15997"
               cy="312.45001"
               r="28.040001"
               id="circle1035" />
            <path
               class="cls-12"
               d="m 673.79,311.62 c -5.67,-3.71 -11.97,-4.83 -19.28,-1.86"
               id="path1037" />
            <ellipse
               class="cls-5"
               cx="631.62"
               cy="305.35001"
               rx="11.05"
               ry="7.3400002"
               transform="rotate(-84.03,631.66216,305.33038)"
               id="ellipse1039" />
            <ellipse
               class="cls-5"
               cx="693.45001"
               cy="310.73999"
               rx="10.8"
               ry="7.1700001"
               transform="rotate(-84.03,693.49069,310.71748)"
               id="ellipse1041" />
            <path
               class="cls-14"
               d="m 649.03,277.45 c 0,0 -16.44,-17.14 -34.82,-4.19"
               id="path1043" />
            <path
               class="cls-14"
               d="m 727.69,283.7 c 0,0 -18.81,-19.11 -39.37,-4.22"
               id="path1045" />
            <path
               class="cls-5"
               d="m 635.82,376.67 c 12.28,6.78 24.41,12.14 36.85,3.38 4.06,-2.58 7.54,-5.9 11.35,-8.92 -1.14,5.04 -3.58,9.73 -7.25,13.69 -12.72,13.91 -33.44,7.87 -40.95,-8.15 z"
               id="path1047" />
            <path
               class="cls-5"
               d="m 656.33,304.37 c 5.03,9.25 1.67,20.96 -3.16,29.61 -1.03,1.73 -2.21,3.89 -2.34,5.87 -0.39,5.74 5.41,9.71 9.86,12.83 2.25,1.49 4.63,2.9 7.12,4.3 -2.87,0.06 -5.73,-0.35 -8.54,-1.07 -9.88,-2.32 -19.19,-10.41 -15.12,-21.6 0.45,-1.39 1.39,-3.01 2.07,-4.3 4.5,-8.04 8.7,-16.43 10.11,-25.65 v 0 z"
               id="path1049" />
            <line
               class="cls-12"
               x1="730.20001"
               y1="315.20001"
               x2="765.95001"
               y2="312.45001"
               id="line1051" />
          </g>
          <g
             id="g1075">
            <path
               class="cls-10"
               d="m 191.78,540.29 c 0,0 -36.67,-59.42 -14.57,-75.74 1.54,-1.14 3.75,-0.16 4.05,1.73 1.34,8.29 5.39,28.21 14.54,37.28 11.72,11.61 35.42,24.86 40.84,45.82 5.42,20.96 -37.34,4.59 -44.86,-9.09 z"
               id="path1055" />
            <path
               class="cls-10"
               d="m 275.92,580.52 c -15.02,-21.43 -41,-37.98 -45.47,-42.12 -16.69,-15.42 -59.87,-11.3 -59.87,-11.3 0,0 -3.08,-6.2 7.17,-21.32 6.51,-9.61 3.37,-16.82 0.21,-20.8 -1.57,-1.97 -4.61,-1.77 -5.86,0.42 l -17.21,30.28 c 0,0 0.29,-4.4 1.68,-9.83 1.39,-5.44 5.1,-19.07 5.1,-19.07 7.47,-13.28 2.32,-21.13 -1.55,-24.7 -1.44,-1.33 -3.75,-0.84 -4.44,1 -3.26,8.65 -11.83,31.48 -12.99,36.11 -1.44,5.74 -1.96,23.13 -1.96,23.13 -0.89,-6.44 -4.88,-23.53 -4.88,-23.53 4.22,-5.87 6.62,-19.88 6.62,-19.88 8.56,-16.02 2.91,-22.64 -0.98,-25.11 -1.39,-0.89 -3.25,-0.29 -3.92,1.22 l -12.54,28.12 c 4.72,-17.77 -1.38,-22.79 -5.64,-24.19 -1.66,-0.55 -3.39,0.51 -3.59,2.24 -1.17,9.93 -8.53,39.88 -7.93,44.32 0.68,5.02 13.83,46.53 18.61,51.79 4.78,5.26 15.68,6.97 21.06,10.5 5.38,3.53 13.14,7.46 13.14,7.46 0,0 22.3,16.35 42.64,26.57 2.07,1.04 1.16,16.18 6.74,25.58 31.69,5.55 73.89,-17.95 65.88,-46.88 z"
               id="path1057" />
            <g
               class="cls-11"
               id="g1061">
              <path
                 class="cls-3"
                 d="m 123.98,485.24 c -0.02,5.33 -0.7,10.63 -1.57,15.87 0,0 0.04,-0.82 0.04,-0.82 1.3,6.01 2.24,12.08 2.86,18.19 0.59,6.17 0.94,12.33 0.42,18.55 -4.42,-11.57 -6.41,-23.83 -7.55,-36.11 -0.02,-0.26 -0.05,-0.58 0.04,-0.82 1.59,-5.07 3.37,-10.11 5.77,-14.87 v 0 z"
                 id="path1059" />
            </g>
            <g
               class="cls-11"
               id="g1065">
              <path
                 class="cls-3"
                 d="m 171.05,546.25 c 8.04,1.88 15.9,2.75 24.01,3.17 3.42,0.14 6.84,0.07 10.34,0.38 10.79,1.28 20.54,9.51 23.65,19.78 -6.25,-7.82 -14.36,-13.68 -24.24,-14.84 -11.59,-0.32 -23.95,-1.79 -33.76,-8.49 z"
                 id="path1063" />
            </g>
            <g
               class="cls-11"
               id="g1069">
              <path
                 class="cls-3"
                 d="m 139.61,479.6 c -0.19,6.89 -1.52,13.57 -4.41,19.93 0,0 0.23,-1.52 0.23,-1.52 2.29,9.4 4.02,18.94 4.89,28.59 0.27,3.23 0.46,6.48 0.41,9.77 -1.31,-3.02 -2.37,-6.1 -3.36,-9.18 -2.89,-9.25 -4.94,-18.72 -6.42,-28.28 -0.11,-0.52 -0.04,-1.09 0.23,-1.52 3.19,-5.44 5.72,-11.98 8.44,-17.77 v 0 z"
                 id="path1067" />
            </g>
            <g
               class="cls-11"
               id="g1073">
              <path
                 class="cls-3"
                 d="m 158.72,486.41 c -0.03,9.99 -1.95,19.82 -4.4,29.46 0,0 0.05,-0.77 0.05,-0.77 0.32,5.33 0.4,10.69 0.03,16.04 -0.13,1.79 -0.31,3.59 -0.6,5.4 -2.25,-7.01 -3.7,-14.34 -4.27,-21.64 2.09,-9.76 4.74,-19.48 9.18,-28.48 v 0 z"
                 id="path1071" />
            </g>
          </g>
          <path
             class="cls-10"
             d="m 763.73,294.03 c 0,0 29.11,1.23 29.62,28.96 0.51,27.73 -29.62,34.01 -29.62,34.01 v -62.96 z"
             id="path1077" />
          <g
             class="cls-11"
             id="g1081">
            <path
               class="cls-3"
               d="m 771.07,304.67 c 13.92,4.19 23.67,18.09 12.21,30.61 -5.25,5.6 -12.32,9.08 -19.55,11.06 3.87,-3.13 7.75,-6 11.22,-9.17 14.33,-12.53 8.6,-21.78 -3.87,-32.5 v 0 z"
               id="path1079" />
          </g>
          <path
             class="cls-5"
             d="m 824.12,220.02 c -11.66,-97.38 -127.67,-62.53 -127.67,-62.53 -48.94,8.65 -80.27,19.58 -93.25,24.68 -6.05,2.37 -11.72,5.64 -16.61,9.92 -41.3,36.16 28.67,83.59 28.67,83.59 -0.87,-22.29 9.19,-36.09 9.19,-36.09 54.2,39.78 99.97,-3.86 99.97,-3.86 9.18,38.03 41.52,92.02 41.52,92.02 0,0 68.63,-20.29 58.17,-107.73 z"
             id="path1083" />
          <path
             class="cls-13"
             d="m 207.88,631 c 38.2,-0.87 63.94,-12.67 72.91,-47.85"
             id="path1085" />
        </g>
      </g>
    </g>
  </g>
</svg>
