<?xml version="1.0" encoding="UTF-8" standalone="no"?>
<svg
   viewBox="0 0 708400.66 726250.43"
   version="1.1"
   id="svg1302"
   width="708400.62"
   height="726250.44"
   xmlns="http://www.w3.org/2000/svg"
   xmlns:svg="http://www.w3.org/2000/svg">
  <defs
     id="defs1156">
    <style
       id="style1154">
      .cls-1 {
        isolation: isolate;
      }

      .cls-2, .cls-3, .cls-4, .cls-5, .cls-6, .cls-7, .cls-8 {
        stroke-width: 0px;
      }

      .cls-3 {
        fill: red;
      }

      .cls-4 {
        fill: #f4826c;
      }

      .cls-5 {
        fill: #fbb13c;
      }

      .cls-9 {
        stroke: #fff;
      }

      .cls-9, .cls-10, .cls-11 {
        fill: none;
        stroke-linecap: round;
        stroke-linejoin: round;
        stroke-width: 8px;
      }

      .cls-6 {
        fill: #fff;
      }

      .cls-10 {
        stroke: #000;
      }

      .cls-11 {
        mix-blend-mode: multiply;
        opacity: .7;
        stroke: #e0a4ab;
      }

      .cls-7 {
        fill: #ffcdc2;
      }

      .cls-8 {
        fill: #5a4dc4;
      }
    </style>
  </defs>
  <g
     class="cls-1"
     id="g1300"
     transform="matrix(0.60320547,0,0,0.60320547,-232782.7,-238644.06)">
    <g
       id="Layer_2"
       data-name="Layer 2">
      <g
         id="Layer_1-2"
         data-name="Layer 1">
        <g
           id="g1296">
          <g
             id="g1164">
            <polygon
               class="cls-8"
               points="386.5,1093.26 845.26,1093.26 812.41,910.34 341.55,997.94 "
               id="polygon1158" />
            <line
               class="cls-10"
               x1="634.69"
               y1="989.52002"
               x2="666.70001"
               y2="1081.3199"
               id="line1160" />
            <line
               class="cls-10"
               x1="386.5"
               y1="1093.26"
               x2="538.66998"
               y2="1093.26"
               id="line1162" />
          </g>
          <path
             class="cls-5"
             d="m 798.09,878.61 c 0,0 86.76,30.71 133.92,-17.21 47.17,-47.92 28.36,-86.31 28.36,-86.31 l -199.7,-47.52 37.42,151.05 z"
             id="path1166" />
          <path
             class="cls-5"
             d="m 587.39,361.73 c 0,0 106.92,52.78 160.78,159.47 53.86,106.69 85.17,412.16 85.17,412.16 l -123.4,19.09 C 646.34,754.84 605.33,557.93 587.4,361.73 Z"
             id="path1168" />
          <path
             class="cls-5"
             d="m 386.5,359.49 c 0,0 -95.46,26.95 -146,71.87 l 62.33,596.9 c 0,0 170.7,28.08 302.66,-53.34 L 594.26,612.18 386.5,359.5 Z"
             id="path1170" />
          <path
             class="cls-5"
             d="m 240.5,431.36 c 0,0 -77.49,64.01 -99.95,331.3 L 279.81,715.49 C 292.91,613.32 279.62,518.67 240.5,431.36 Z"
             id="path1172" />
          <path
             class="cls-5"
             d="m 140.55,762.66 c 0,0 -54.83,73.83 0,133.64 72.07,78.61 215.62,-34.9 215.62,-34.9 L 279.8,715.49 140.54,762.66 Z"
             id="path1174" />
          <path
             class="cls-5"
             d="m 429.17,342.64 -42.68,16.85 c 93.97,193.79 165.69,399.63 218.99,615.43 L 709.92,952.46 C 656.37,735.3 612.43,533.46 587.38,361.74 l -37.66,-9.68 -120.56,-9.41 z"
             id="path1176" />
          <g
             id="g1182">
            <path
               class="cls-2"
               d="m 956.86,778.81 -300.49,22.07 c -17.1,0 -29.6,-16.14 -25.33,-32.7 l 49.33,-212.94 c 2.98,-11.55 13.4,-19.61 25.33,-19.61 h 300.49 c 17.1,0 29.6,16.14 25.33,32.7 L 982.19,759.2 c -2.98,11.55 -13.4,19.61 -25.33,19.61 z"
               id="path1178" />
            <circle
               class="cls-6"
               cx="833.03998"
               cy="662.72998"
               r="29.07"
               id="circle1180" />
          </g>
          <g
             id="g1194">
            <path
               class="cls-7"
               d="m 400.98,680.12 c 0,0 0,-38.49 27.83,-60.12 20.36,-15.83 24.18,-37.7 35.27,-36.78 11.09,0.93 6.8,26.08 -0.88,35.88 -7.68,9.8 -9.73,21.39 -9.73,21.39 0,0 37.9,-15 60.39,-29.45 14.78,-9.5 24.85,-19.36 30.02,-25 2.32,-2.53 6.24,-2.67 8.74,-0.33 v 0 c 2.17,2.04 2.57,5.35 0.94,7.84 l -7.38,11.34 6.29,-5.92 c 3.95,-3.71 10.26,-3.12 13.44,1.27 v 0 c 2.08,2.86 2.28,6.65 0.55,9.73 -2.48,4.42 -6.62,11.08 -12.24,17.77 0,0 3.98,-1.42 8.61,-3.75 3.9,-1.97 8.65,-0.17 10.21,3.91 v 0 c 1,2.63 0.44,5.6 -1.49,7.64 -2.8,2.96 -7.84,7.53 -16.25,13.02 l 9.58,-2.91 c 2.91,-0.88 6.01,0.59 7.18,3.39 v 0 c 0.93,2.23 0.4,4.81 -1.34,6.49 -5.51,5.34 -18.26,17.19 -31.84,26.14 -18.09,11.93 -20.34,25.73 -61.03,35.45 -40.7,9.72 -51.85,17.24 -51.85,17.24 L 400.99,680.1 Z"
               id="path1184" />
            <path
               class="cls-11"
               d="m 546.18,604.89 c 0,0 -7.91,16.63 -42.55,34.53"
               id="path1186" />
            <path
               class="cls-11"
               d="m 554.22,627.73 c 0,0 -10.23,14.23 -35.22,27.78"
               id="path1188" />
            <path
               class="cls-11"
               d="m 555.29,648.56 c 0,0 -12.21,16.35 -43.81,28.55"
               id="path1190" />
            <path
               class="cls-7"
               d="m 400.98,680.12 -111.53,50.52 52.13,92.11 84.41,-88.37 c 12.44,-30.97 5.47,-49.9 -25.01,-54.26 z"
               id="path1192" />
          </g>
          <g
             id="g1208">
            <g
               id="g1204">
              <path
                 class="cls-7"
                 d="m 853,775.09 c 0,0 -22.28,-8.1 -44.28,-13.72 -22,-5.63 -34.64,-18.84 -42.81,-13.42 -8.17,5.42 5.81,23.01 15.89,27.31 10.08,4.31 16.58,12.38 16.58,12.38 0,0 -35.6,4.5 -59.08,2.88 -15.44,-1.06 -27.39,-4.4 -33.76,-6.56 -2.86,-0.97 -5.95,0.58 -6.88,3.46 v 0 c -0.81,2.5 0.28,5.21 2.6,6.45 l 10.51,5.62 -7.36,-1.9 c -4.62,-1.19 -9.24,1.94 -9.83,6.68 v 0 c -0.39,3.08 1.06,6.1 3.7,7.74 3.79,2.36 9.8,5.74 16.98,8.52 0,0 -3.67,0.59 -8.23,0.75 -3.84,0.14 -6.74,3.54 -6.22,7.35 v 0 c 0.34,2.45 2.03,4.51 4.39,5.26 3.42,1.09 9.24,2.48 18.06,3.15 l -8.62,1.82 c -2.62,0.55 -4.39,3 -4.1,5.66 v 0 c 0.23,2.12 1.73,3.88 3.78,4.44 6.51,1.79 21.38,5.52 35.65,6.67 19.01,1.53 26.6,11.23 62.12,1.47 35.52,-9.75 49.39,-10.82 49.39,-10.82 l -8.47,-71.2 z"
                 id="path1196" />
              <path
                 class="cls-11"
                 d="m 719.14,801.56 c 0,0 11.51,8.29 41.53,7.53"
                 id="path1198" />
              <path
                 class="cls-11"
                 d="m 721.53,821.05 c 0,0 13.93,6.64 38.95,6.5"
                 id="path1200" />
              <path
                 class="cls-11"
                 d="m 729.25,839.2 c 0,0 13.48,6.13 37.84,2.85"
                 id="path1202" />
            </g>
            <path
               class="cls-7"
               d="m 853,775.09 h 107.37 c 0,0 22.31,71.2 -98.9,71.2 -33.45,-18.06 -38.07,-52.68 -8.47,-71.2 z"
               id="path1206" />
          </g>
          <g
             id="g1224">
            <path
               class="cls-10"
               d="m 191.65,753.68 88.16,-38.18 76.37,145.91 c 0,0 -146.04,127.06 -226.04,21.46"
               id="path1210" />
            <path
               class="cls-10"
               d="m 256.54,471.68 c 0,0 50.05,96.65 23.27,243.81"
               id="path1212" />
            <path
               class="cls-10"
               d="m 605.49,974.92 c 0,0 -114.03,69.31 -263.94,57.12"
               id="path1214" />
            <path
               class="cls-10"
               d="m 833.34,933.36 -9.6,-79.35 c 0,0 95.02,2.94 126.38,-34.39"
               id="path1216" />
            <path
               class="cls-10"
               d="m 140.55,762.66 c 0,0 16.88,-155.37 45.5,-233.79"
               id="path1218" />
            <line
               class="cls-10"
               x1="623.69"
               y1="462.63"
               x2="646.81"
               y2="525.25"
               id="line1220" />
            <path
               class="cls-10"
               d="m 400.98,406.07 c 0,0 83.21,80.05 164.2,13.66"
               id="path1222" />
          </g>
          <g
             id="g1270">
            <path
               class="cls-2"
               d="m 505.98,20.79 c 0,0 -117.38,-72.89 -149.81,54.26 -22.93,89.9 32.82,203.43 -58.33,303.77 0,0 138.94,-36.7 112.4,-115.35 0,0 -13.03,21.86 -71.68,112.75 0,0 88.02,23.15 118.65,-88.71 30.63,-111.86 48.77,-266.72 48.77,-266.72 z"
               id="path1226" />
            <path
               class="cls-7"
               d="m 467.05,248.56 -37.87,94.08 c 0,0 -9.89,70.82 80.14,62.8 51.57,-4.6 44.91,-83.23 44.91,-83.23 -24.26,-46.32 -37.89,-52.55 -87.17,-73.64 z"
               id="path1228" />
            <path
               class="cls-7"
               d="m 676.22,172.7 c 0,8.73 -2.99,17.62 -9.52,25.07 0,0 -14.7,39.41 -35.96,75.52 -4.99,8.49 -10.35,16.81 -15.97,24.38 -15.03,20.27 -31.9,35.25 -48.58,34.3 -39.04,-2.21 -71.79,-36.51 -91.91,-63.91 -14.13,-19.24 -21.12,-42.8 -20.03,-66.64 l 2.67,-58.66 c 1.06,-23.37 22.65,-40.32 45.61,-35.82 l 142.76,28.05 c 19.23,3.77 30.93,20.44 30.93,37.71 z"
               id="path1230" />
            <path
               class="cls-10"
               d="m 472.44,265.48 c 0,0 18.15,40.56 66.93,59.94"
               id="path1232" />
            <rect
               class="cls-4"
               x="462.98999"
               y="11.01"
               width="33.259998"
               height="80.5"
               rx="12.09"
               ry="12.09"
               transform="rotate(54.7,479.62643,51.265079)"
               id="rect1234" />
            <path
               class="cls-2"
               d="M 654.76,226.31 V 168.5 c 0,0 -67.02,65.45 -167.52,18.43 0,0 -33.17,-11.16 -33.64,28.36 0,0 -35.19,-73.85 -3.02,-126.44 32.17,-52.59 115.69,-77.97 193.02,-22.21 96.67,69.7 11.16,159.68 11.16,159.68 z"
               id="path1236" />
            <path
               class="cls-10"
               d="m 483.9,198.23 c 0,0 -33.13,-1.34 -9.98,31.8"
               id="path1238" />
            <ellipse
               class="cls-4"
               cx="521.27002"
               cy="257.54001"
               rx="14.93"
               ry="18.49"
               transform="rotate(-69.84,521.23925,257.54672)"
               id="ellipse1240" />
            <path
               class="cls-4"
               d="m 630.74,273.29 c -4.99,8.49 -10.35,16.81 -15.97,24.38 -4.04,-3.57 -6.14,-8.5 -5.15,-13.4 1.63,-8.09 11.06,-13.01 21.07,-10.99 0.02,0 0.03,0.01 0.05,0.01 z"
               id="path1242" />
            <path
               class="cls-2"
               d="m 602.72,281.46 c 0,0 -0.56,2.26 -1.82,5.5 -0.12,0.31 -0.25,0.63 -0.38,0.96 -2.4,5.95 -6.92,14.5 -14.15,18.77 -3.88,2.29 -8.54,3.35 -14.08,2.11 -4.96,-1.11 -8.56,-3.6 -11.16,-6.8 -2.61,-3.19 -4.22,-7.11 -5.18,-11.06 -1.18,-4.83 -1.41,-9.73 -1.33,-13.49 0.01,-0.29 0.02,-0.57 0.03,-0.84 0.12,-3.5 0.48,-5.8 0.48,-5.8 z"
               id="path1244" />
            <path
               class="cls-3"
               d="m 555.95,290.94 c 1.93,7.91 6.43,15.64 16.33,17.86 5.54,1.24 10.21,0.18 14.08,-2.11 0,0 -6.82,-16.13 -30.42,-15.75 z"
               id="path1246" />
            <circle
               class="cls-2"
               cx="627.73999"
               cy="247.52"
               r="7.1999998"
               id="circle1248" />
            <circle
               class="cls-10"
               cx="627.73999"
               cy="242.14"
               r="22.25"
               id="circle1250" />
            <circle
               class="cls-2"
               cx="563.26001"
               cy="231.69"
               r="7.1999998"
               id="circle1252" />
            <circle
               class="cls-10"
               cx="563.26001"
               cy="226.31"
               r="22.25"
               id="circle1254" />
            <path
               class="cls-10"
               d="m 620.53,206.69 c 10.61,0.74 20.22,3.84 28.83,9.31"
               id="path1256" />
            <path
               class="cls-10"
               d="m 595.9,245.48 1.13,18.73 c 0.18,2.95 -2.19,5.43 -5.15,5.39 l -7.7,-0.12"
               id="path1258" />
            <path
               class="cls-6"
               d="m 602.72,281.46 c 0,0 -0.56,2.26 -1.82,5.5 -0.12,0.31 -0.25,0.63 -0.38,0.96 l -45.9,-10.47 c 0.01,-0.29 0.02,-0.57 0.03,-0.84 0.12,-3.5 0.48,-5.8 0.48,-5.8 z"
               id="path1260" />
            <path
               class="cls-2"
               d="m 519.01,180.76 -26.55,39.13 c 0,0 9.7,-40.15 -6.13,-51.39 -15.83,-11.24 32.68,12.26 32.68,12.26 z"
               id="path1262" />
            <path
               class="cls-10"
               d="m 585.2,230.03 c 7.48,-1.79 14.65,-0.56 21.31,5.43"
               id="path1264" />
            <line
               class="cls-10"
               x1="543"
               y1="217.12"
               x2="493.84"
               y2="180.78999"
               id="line1266" />
            <path
               class="cls-9"
               d="m 444.28,101.41 c 0,0 -16.45,38.31 -3.48,74.15"
               id="path1268" />
          </g>
          <line
             class="cls-10"
             x1="197.36"
             y1="181.99001"
             x2="98.75"
             y2="489.97"
             id="line1272" />
          <g
             id="g1294">
            <path
               class="cls-10"
               d="m 757.23,279.46 c -14.52,21.78 -26.21,43.78 -33.81,66.09 -1.07,3.13 -0.1,6.61 2.43,8.74 36.15,30.46 77.74,60.26 123.28,89.58 2.76,1.78 6.32,1.68 9.02,-0.2 19.74,-13.71 36.96,-34.76 52.42,-60.86 2.07,-3.49 1.19,-8 -2.03,-10.48 -46.32,-35.68 -93.11,-67.87 -140.54,-95.37 -3.69,-2.14 -8.42,-1.07 -10.78,2.48 z"
               id="path1274" />
            <path
               class="cls-10"
               d="m 853.48,51.26 c 0,0 4.67,47.79 -41.07,71.28"
               id="path1276" />
            <path
               class="cls-10"
               d="m 1026.59,368.67 c 0,0 8.68,36.26 53.11,41.36"
               id="path1278" />
            <line
               class="cls-10"
               x1="789.73999"
               y1="332.17001"
               x2="851.84003"
               y2="372.45999"
               id="line1280" />
            <line
               class="cls-10"
               x1="763.17999"
               y1="337"
               x2="857.82001"
               y2="402.01001"
               id="line1282" />
            <path
               class="cls-10"
               d="M 7.16,345.33 C 59.01,275.86 120.54,222.3 188.84,179.85 c 7.02,-4.36 16.22,-2.5 21.06,4.2 26.2,36.26 48.37,83.39 67.84,137.8 1.8,5.02 0.94,10.61 -2.27,14.87 -46.32,61.51 -100.98,113.43 -165.55,153.94 -5.68,3.56 -13.01,3.1 -18.24,-1.09 C 48.75,455.12 18.39,412.35 4.49,358.67 3.3,354.06 4.32,349.16 7.16,345.35 Z"
               id="path1284" />
            <line
               class="cls-10"
               x1="5.1300001"
               y1="356.85999"
               x2="277.01001"
               y2="327.98001"
               id="line1286" />
            <path
               class="cls-5"
               d="M 955.61,82.61 921.9,216 1070.14,232.36 C 1041.01,171.7 1003.62,120.84 955.61,82.61 Z"
               id="path1288" />
            <path
               class="cls-10"
               d="m 814.69,189.76 c 37.23,-42.95 81.77,-78.36 134.2,-105.65 5.22,-2.72 11.6,-1.7 15.76,2.46 43.15,43.09 79.77,89 106.47,139.2 3.03,5.69 1.65,12.69 -3.3,16.82 -33.46,27.92 -71.02,49.86 -113.26,64.97 -3.28,1.17 -6.88,1.04 -10.07,-0.35 -51.1,-22.2 -94.28,-55.8 -130.03,-100.12 -4.1,-5.09 -4.06,-12.39 0.22,-17.33 z"
               id="path1290" />
            <polyline
               class="cls-10"
               points="955.61 82.61 921.91 216 1072.29 235.46"
               id="polyline1292" />
          </g>
        </g>
      </g>
    </g>
  </g>
</svg>
