<?xml version="1.0" encoding="UTF-8" standalone="no"?>
<!-- Created with Inkscape (http://www.inkscape.org/) -->

<svg
   width="124.88312mm"
   height="124.88313mm"
   viewBox="0 0 124.88312 124.88313"
   version="1.1"
   id="svg2332"
   inkscape:version="1.2.2 (732a01da63, 2022-12-09)"
   sodipodi:docname="responding-to-emailss.svg"
   xmlns:inkscape="http://www.inkscape.org/namespaces/inkscape"
   xmlns:sodipodi="http://sodipodi.sourceforge.net/DTD/sodipodi-0.dtd"
   xmlns="http://www.w3.org/2000/svg"
   xmlns:svg="http://www.w3.org/2000/svg">
  <sodipodi:namedview
     id="namedview2334"
     pagecolor="#ffffff"
     bordercolor="#000000"
     borderopacity="0.25"
     inkscape:showpageshadow="2"
     inkscape:pageopacity="0.0"
     inkscape:pagecheckerboard="0"
     inkscape:deskcolor="#d1d1d1"
     inkscape:document-units="mm"
     showgrid="false"
     inkscape:zoom="1.0456808"
     inkscape:cx="124.32092"
     inkscape:cy="335.18834"
     inkscape:window-width="1920"
     inkscape:window-height="991"
     inkscape:window-x="-9"
     inkscape:window-y="-9"
     inkscape:window-maximized="1"
     inkscape:current-layer="layer1" />
  <defs
     id="defs2329" />
  <g
     inkscape:label="Layer 1"
     inkscape:groupmode="layer"
     id="layer1"
     transform="translate(264.79514,-39.361445)">
    <g
       class="cls-9"
       id="g452"
       style="isolation:isolate"
       transform="matrix(0.08617256,-0.01683801,0.01683801,0.08617256,-269.99741,57.384874)">
      <g
         id="Layer_2"
         data-name="Layer 2">
        <g
           id="Layer_1-2"
           data-name="Layer 1">
          <g
             id="g448">
            <g
               id="g304">
              <polygon
                 class="cls-8"
                 points="631.99,1108.98 483.55,1018.97 161.84,979.91 166.44,1014.37 176.4,1108.98 "
                 id="polygon300"
                 style="fill:#5a4dc4;stroke-width:0px" />
              <line
                 class="cls-10"
                 x1="333.14001"
                 y1="1051.3101"
                 x2="339.29999"
                 y2="1103.02"
                 id="line302"
                 style="fill:none;stroke:#000000;stroke-width:8px;stroke-linecap:round;stroke-linejoin:round" />
            </g>
            <g
               id="g320">
              <path
                 class="cls-7"
                 d="m 285.29,146.47 c 20.08,-7.91 41.65,-13.83 65.23,-27.37 45.14,-25.92 5.75,-31.35 5.75,-31.35 0,0 15.38,-6.23 11.77,-20.63 -3.05,-12.18 -17.53,-12.26 -17.53,-12.26 0,0 8.25,-32.67 -27,-31.97 0,0 -5.31,-20.61 -32.5,-15.88 0,0 -10.93,-15.76 -28.73,0 -17.8,15.76 -44.67,41.85 -49.12,75.7 -15.88,53.67 8.18,74.9 72.11,63.76 z"
                 id="path306"
                 style="fill:#ffcdc2;stroke-width:0px" />
              <path
                 class="cls-7"
                 d="m 263.15,162.83 c -13.31,13.2 -24.46,28.89 -24.46,28.89 l -107.9,-29.35 c 0,0 54.51,-28.75 75,-61 l 7.39,-18.66 c 51.41,-6.37 74.23,16.11 72.11,63.76 z"
                 id="path308"
                 style="fill:#ffcdc2;stroke-width:0px" />
              <path
                 class="cls-11"
                 d="m 290.57,11.22 -21.78,25.63 c -4.5,5.29 -3.17,13.35 2.78,16.92 v 0 c 3.9,2.34 8.82,2.1 12.47,-0.6 l 36.75,-27.19"
                 id="path310"
                 style="opacity:0.7;mix-blend-mode:multiply;fill:none;stroke:#e0a4ab;stroke-width:8px;stroke-linecap:round;stroke-linejoin:round" />
              <path
                 class="cls-11"
                 d="m 345.89,55.71 -22.46,10.17 c -13.18,5.97 -33.1,15.75 -39.99,-5.89"
                 id="path312"
                 style="opacity:0.7;mix-blend-mode:multiply;fill:none;stroke:#e0a4ab;stroke-width:8px;stroke-linecap:round;stroke-linejoin:round" />
              <path
                 class="cls-11"
                 d="m 303.42,79.39 c 5.62,18 34.57,10.59 34.57,10.59 l 13.26,-3.7"
                 id="path314"
                 style="opacity:0.7;mix-blend-mode:multiply;fill:none;stroke:#e0a4ab;stroke-width:8px;stroke-linecap:round;stroke-linejoin:round" />
              <path
                 class="cls-11"
                 d="m 218.21,81.61 c 0,0 5.54,28.01 31.01,41.31"
                 id="path316"
                 style="opacity:0.7;mix-blend-mode:multiply;fill:none;stroke:#e0a4ab;stroke-width:8px;stroke-linecap:round;stroke-linejoin:round" />
              <path
                 class="cls-11"
                 d="m 318.43,97.41 c -11.96,4.54 -22.15,12.82 -29.03,23.61 v 0"
                 id="path318"
                 style="opacity:0.7;mix-blend-mode:multiply;fill:none;stroke:#e0a4ab;stroke-width:8px;stroke-linecap:round;stroke-linejoin:round" />
            </g>
            <g
               id="g336">
              <path
                 class="cls-7"
                 d="m 836.01,383.53 c -10.49,-18.86 -23.4,-37.13 -33.02,-62.56 -18.42,-48.69 15.46,-27.88 15.46,-27.88 0,0 -7.93,-14.57 4,-23.41 10.09,-7.48 21.32,1.65 21.32,1.65 0,0 14.37,-30.48 41.15,-7.56 0,0 17.19,-12.55 35.2,8.36 0,0 18.44,-5.24 22.19,18.24 3.75,23.48 7.95,60.69 -10.11,89.67 -21.8,51.55 -53.87,52.68 -96.19,3.48 z"
                 id="path322"
                 style="fill:#ffcdc2;stroke-width:0px" />
              <path
                 class="cls-7"
                 d="m 842.73,410.23 c 1.91,18.65 -6.72,49.17 -6.72,49.17 l 118.69,29.9 c 0,0 -33.28,-52.2 -28.63,-90.13 l 6.13,-19.11 c -35.68,-37.55 -67.58,-34.67 -96.19,3.48 l 6.72,26.7 z"
                 id="path324"
                 style="fill:#ffcdc2;stroke-width:0px" />
              <path
                 class="cls-11"
                 d="m 917.78,275.68 0.56,33.63 c 0.12,6.94 -6.03,12.33 -12.89,11.31 v 0 c -4.49,-0.67 -8.15,-3.97 -9.25,-8.38 l -11.13,-44.33"
                 id="path326"
                 style="opacity:0.7;mix-blend-mode:multiply;fill:none;stroke:#e0a4ab;stroke-width:8px;stroke-linecap:round;stroke-linejoin:round" />
              <path
                 class="cls-11"
                 d="m 846.8,274.94 10.9,22.12 c 6.39,12.97 15.58,33.18 34.64,20.84"
                 id="path328"
                 style="opacity:0.7;mix-blend-mode:multiply;fill:none;stroke:#e0a4ab;stroke-width:8px;stroke-linecap:round;stroke-linejoin:round" />
              <path
                 class="cls-11"
                 d="m 864.58,320.2 c -15.77,10.34 -33.43,-13.76 -33.43,-13.76 l -7.89,-11.27"
                 id="path330"
                 style="opacity:0.7;mix-blend-mode:multiply;fill:none;stroke:#e0a4ab;stroke-width:8px;stroke-linecap:round;stroke-linejoin:round" />
              <path
                 class="cls-11"
                 d="m 929.01,376.01 c 0,0 -22.07,18.12 -50.18,12.23"
                 id="path332"
                 style="opacity:0.7;mix-blend-mode:multiply;fill:none;stroke:#e0a4ab;stroke-width:8px;stroke-linecap:round;stroke-linejoin:round" />
              <path
                 class="cls-11"
                 d="m 841.54,324.58 c 6.36,11.1 8.97,23.97 7.44,36.67 v 0"
                 id="path334"
                 style="opacity:0.7;mix-blend-mode:multiply;fill:none;stroke:#e0a4ab;stroke-width:8px;stroke-linecap:round;stroke-linejoin:round" />
            </g>
            <g
               id="g344">
              <path
                 class="cls-5"
                 d="m 204.74,652.84 c 0,0 -66.64,184.6 -85.02,388.34 l 114.89,11.49 4.6,-34.47 94.64,-369.8 c -49.93,-51.99 -92.9,-49.96 -129.11,4.44 z"
                 id="path338"
                 style="fill:#fbb13c;stroke-width:0px" />
              <path
                 class="cls-5"
                 d="M 333.85,599.99 C 303.45,500.66 248.63,412.91 176.4,333.44 118.9,262.4 65.34,260.36 15.55,324.33 63.62,449.44 127.18,558.43 204.74,652.85 l 57.96,23.17 c 47.27,18.89 93.12,-30.1 71.15,-76.02 v 0 z"
                 id="path340"
                 style="fill:#fbb13c;stroke-width:0px" />
              <path
                 class="cls-5"
                 d="m 15.55,324.33 c 0,0 -12.69,-80.51 136.5,-176.25 45.96,-4.81 64.36,5.08 94.48,34.92 0,0 -57.88,63.89 -70.14,150.45 -49.12,57.75 -102.74,54.67 -160.85,-9.11 z"
                 id="path342"
                 style="fill:#fbb13c;stroke-width:0px" />
            </g>
            <path
               class="cls-6"
               d="m 361.76,607.82 -27.91,-7.83 c 0,0 -83.92,200.68 -94.64,418.21 l 241.28,26.81 c 0,0 -9.19,-333.96 63.57,-436.6 l -54.64,-7.4 z"
               id="path346"
               style="fill:#ffffff;stroke-width:0px" />
            <g
               id="g354">
              <path
                 class="cls-5"
                 d="m 544.06,608.42 c 0,0 237.45,-73.79 431.49,-19.66 52.1,138.96 -112.24,147.44 -267.57,161.36 -105.84,0.37 -156.38,-50.68 -163.91,-141.7 z"
                 id="path348"
                 style="fill:#fbb13c;stroke-width:0px" />
              <path
                 class="cls-5"
                 d="m 544.06,608.42 c 0,0 -105.19,92.17 -63.57,436.6 l -0.26,50.3 180.77,13.67 -21.45,-197.5 c 0,0 83.74,-124.6 70.47,-217.53 -13.28,-92.94 -165.96,-85.53 -165.96,-85.53 z"
                 id="path350"
                 style="fill:#fbb13c;stroke-width:0px" />
              <path
                 class="cls-5"
                 d="m 838.69,444.42 -20.43,149.45 c 2.1,64.61 159.37,59.51 157.28,-5.11 L 936.73,437.95 c -36.02,-6.6 -68.84,-4.81 -98.04,6.47 z"
                 id="path352"
                 style="fill:#fbb13c;stroke-width:0px" />
            </g>
            <g
               id="g380">
              <path
                 class="cls-10"
                 d="m 99.37,500.59 c 31.77,54.52 66.92,105.25 105.37,152.26 -29.36,80.08 -51.72,176.09 -70.8,279.56"
                 id="path356"
                 style="fill:none;stroke:#000000;stroke-width:8px;stroke-linecap:round;stroke-linejoin:round" />
              <path
                 class="cls-10"
                 d="m 119.72,1041.18 114.89,11.49 c 0,0 16.7,-271.42 99.24,-452.68"
                 id="path358"
                 style="fill:none;stroke:#000000;stroke-width:8px;stroke-linecap:round;stroke-linejoin:round" />
              <path
                 class="cls-10"
                 d="m 277.5,155.74 c -61.71,45.35 -86.38,108.05 -101.11,177.7 0,0 -44.43,-30.64 -92.94,0"
                 id="path360"
                 style="fill:none;stroke:#000000;stroke-width:8px;stroke-linecap:round;stroke-linejoin:round" />
              <path
                 class="cls-10"
                 d="M 160.06,138.88 C 97.77,175.43 51.45,228.06 19.13,294.77"
                 id="path362"
                 style="fill:none;stroke:#000000;stroke-width:8px;stroke-linecap:round;stroke-linejoin:round" />
              <path
                 class="cls-10"
                 d="m 194.01,407.6 c 25.31,27.63 43.69,68.79 55.15,123.49"
                 id="path364"
                 style="fill:none;stroke:#000000;stroke-width:8px;stroke-linecap:round;stroke-linejoin:round" />
              <line
                 class="cls-10"
                 x1="272.91"
                 y1="937.78003"
                 x2="407.10999"
                 y2="850.46002"
                 id="line366"
                 style="fill:none;stroke:#000000;stroke-width:8px;stroke-linecap:round;stroke-linejoin:round" />
              <line
                 class="cls-10"
                 x1="258.63"
                 y1="862.63"
                 x2="328.82001"
                 y2="757.78003"
                 id="line368"
                 style="fill:none;stroke:#000000;stroke-width:8px;stroke-linecap:round;stroke-linejoin:round" />
              <path
                 class="cls-10"
                 d="M 660.99,1108.98 480.22,1095.31 C 460.79,936.7 455.45,789.44 508.79,664.97"
                 id="path370"
                 style="fill:none;stroke:#000000;stroke-width:8px;stroke-linecap:round;stroke-linejoin:round" />
              <path
                 class="cls-10"
                 d="m 729.45,748.22 c 0,0 153.6,-11.37 220.86,-47.8 75.53,-40.91 -13.58,-262.47 -13.58,-262.47"
                 id="path372"
                 style="fill:none;stroke:#000000;stroke-width:8px;stroke-linecap:round;stroke-linejoin:round" />
              <path
                 class="cls-10"
                 d="m 838.69,444.42 -17.02,124.53 c 0,0 -12.63,56.54 75.24,67.04"
                 id="path374"
                 style="fill:none;stroke:#000000;stroke-width:8px;stroke-linecap:round;stroke-linejoin:round" />
              <path
                 class="cls-10"
                 d="m 799.12,593.08 c 0,0 4.83,55.16 59.86,76.61"
                 id="path376"
                 style="fill:none;stroke:#000000;stroke-width:8px;stroke-linecap:round;stroke-linejoin:round" />
              <path
                 class="cls-10"
                 d="m 823.9,552.65 c 14.72,19.77 29.44,31.46 44.15,35.09"
                 id="path378"
                 style="fill:none;stroke:#000000;stroke-width:8px;stroke-linecap:round;stroke-linejoin:round" />
            </g>
            <g
               id="g420">
              <path
                 class="cls-7"
                 d="m 367.89,347.05 c 0,0 -101.34,95.18 -53.79,157.62 44.6,58.55 130.72,-4.09 130.72,-4.09 0,0 62.98,6.47 67.74,-73.19 4.77,-79.66 -60.26,-136.85 -144.68,-80.34 z"
                 id="path382"
                 style="fill:#ffcdc2;stroke-width:0px" />
              <circle
                 class="cls-4"
                 cx="346.44"
                 cy="394.70001"
                 r="28.6"
                 id="circle384"
                 style="fill:none;stroke-width:0px" />
              <circle
                 class="cls-2"
                 cx="355.69"
                 cy="398.35001"
                 r="9.25"
                 id="circle386"
                 style="stroke-width:0px" />
              <path
                 class="cls-7"
                 d="m 352.57,514.2 9.19,93.62 c 0,0 26.89,59.91 77.62,50.72 50.72,-9.19 50.04,-57.53 50.04,-57.53 l -35.59,-70.58 -9,-29.84 -92.26,13.62 z"
                 id="path388"
                 style="fill:#ffcdc2;stroke-width:0px" />
              <path
                 class="cls-2"
                 d="m 367.89,347.05 c 0,0 -85.79,-31.49 -18.35,-76.43 0,0 7.04,26.04 36.05,33.19 0,0 -48.34,-25.19 -22.81,-47.66 0,0 10.21,21.11 52.77,20.77 0,0 -35.4,1.7 -37.11,-20.77 0,0 25.53,12.26 43.57,11.23 18.04,-1.02 30.3,34.21 30.3,34.21 0,0 -6.55,-25.96 -24.94,-38.89 0,0 63.83,-23.49 85.53,52.34 16.88,58.99 113.7,34.72 46.3,109.96 0,0 0.98,115.86 -105.38,105.42 l -9,-29.84 c 0,0 52.43,-29.28 52.77,-68.09 0.34,-38.81 -19.4,-29.28 -32.68,-71.15 -13.28,-41.87 -97.02,-14.3 -97.02,-14.3 z"
                 id="path390"
                 style="stroke-width:0px" />
              <path
                 class="cls-10"
                 d="m 369.49,529.2 c 0,0 24.01,5.5 61.36,-20.79"
                 id="path392"
                 style="fill:none;stroke:#000000;stroke-width:8px;stroke-linecap:round;stroke-linejoin:round" />
              <path
                 class="cls-10"
                 d="m 416.57,367.1 c 16.77,1.89 24.95,6.46 38.21,15.72"
                 id="path394"
                 style="fill:none;stroke:#000000;stroke-width:8px;stroke-linecap:round;stroke-linejoin:round" />
              <path
                 class="cls-10"
                 d="m 356.57,361.82 c 12.69,-2.72 19.13,-2.32 31.06,1.19"
                 id="path396"
                 style="fill:none;stroke:#000000;stroke-width:8px;stroke-linecap:round;stroke-linejoin:round" />
              <circle
                 class="cls-4"
                 cx="424.29999"
                 cy="413.62"
                 r="30.799999"
                 id="circle398"
                 style="fill:none;stroke-width:0px" />
              <circle
                 class="cls-10"
                 cx="424.29999"
                 cy="413.62"
                 r="30.799999"
                 id="circle400"
                 style="fill:none;stroke:#000000;stroke-width:8px;stroke-linecap:round;stroke-linejoin:round" />
              <circle
                 class="cls-10"
                 cx="346.44"
                 cy="394.70001"
                 r="28.6"
                 id="circle402"
                 style="fill:none;stroke:#000000;stroke-width:8px;stroke-linecap:round;stroke-linejoin:round" />
              <path
                 class="cls-10"
                 d="m 375.03,396.6 c 7.96,-1.11 15.37,0.27 20.62,5.66"
                 id="path404"
                 style="fill:none;stroke:#000000;stroke-width:8px;stroke-linecap:round;stroke-linejoin:round" />
              <line
                 class="cls-10"
                 x1="454.42999"
                 y1="419.98999"
                 x2="499.38"
                 y2="446.03"
                 id="line406"
                 style="fill:none;stroke:#000000;stroke-width:8px;stroke-linecap:round;stroke-linejoin:round" />
              <path
                 class="cls-2"
                 d="m 407.11,450.54 c 0,0 -0.23,3.5 -1.2,8.66 -1.07,5.69 -3.04,13.37 -6.61,20.58 h -0.01 c -5.42,10.96 -14.55,20.81 -29.8,20.81 -8.53,0 -15.02,-3.08 -19.95,-7.71 -9.71,-9.1 -13.42,-24.19 -14.83,-33.68 -0.77,-5.16 -0.86,-8.66 -0.86,-8.66 z"
                 id="path408"
                 style="stroke-width:0px" />
              <path
                 class="cls-10"
                 d="m 378.44,404.84 -16.92,17.15 c -2.67,2.7 -2.47,7.11 0.43,9.56 l 7.54,6.39"
                 id="path410"
                 style="fill:none;stroke:#000000;stroke-width:8px;stroke-linecap:round;stroke-linejoin:round" />
              <path
                 class="cls-3"
                 d="m 399.29,479.78 c -5.42,10.96 -14.55,20.81 -29.8,20.81 -8.53,0 -15.02,-3.08 -19.95,-7.71 0,0 15.29,-21.4 49.75,-13.1 z"
                 id="path412"
                 style="fill:#ff0000;stroke-width:0px" />
              <path
                 class="cls-1"
                 d="m 407.11,450.54 c 0,0 -0.23,3.5 -1.2,8.66 h -71.2 c -0.77,-5.16 -0.86,-8.66 -0.86,-8.66 z"
                 id="path414"
                 style="fill:#fefefe;stroke-width:0px" />
              <circle
                 class="cls-2"
                 cx="411.73999"
                 cy="410.73999"
                 r="9.25"
                 id="circle416"
                 style="stroke-width:0px" />
              <path
                 class="cls-7"
                 d="m 495.39,446.05 c 0,0 25.32,-15.93 23.99,8.82 -1.93,35.88 -44.93,23 -44.93,23 l 20.95,-31.82 z"
                 id="path418"
                 style="fill:#ffcdc2;stroke-width:0px" />
            </g>
            <path
               class="cls-10"
               d="m 506.75,452.55 c 0,0 11.14,18.64 -15.17,15.7"
               id="path422"
               style="fill:none;stroke:#000000;stroke-width:8px;stroke-linecap:round;stroke-linejoin:round" />
            <g
               id="g446">
              <path
                 class="cls-5"
                 d="m 855.1,800.48 c 3.13,-3.82 9.31,-1.95 9.79,2.96 l 1.56,15.96 2.06,21.08 c 0.38,3.92 -3.34,6.98 -7.11,5.84 l -13.59,-4.11 -13.59,-4.11 c -3.77,-1.14 -5.18,-5.75 -2.68,-8.8 l 13.4,-16.39 10.15,-12.42 z"
                 id="path424"
                 style="fill:#fbb13c;stroke-width:0px" />
              <path
                 class="cls-5"
                 d="m 24.81,530.63 c 3.13,-3.82 9.31,-1.95 9.79,2.96 l 1.56,15.96 2.06,21.08 c 0.38,3.92 -3.34,6.98 -7.11,5.84 L 17.52,572.36 3.93,568.25 c -3.77,-1.14 -5.18,-5.75 -2.68,-8.8 l 13.4,-16.39 10.15,-12.42 z"
                 id="path426"
                 style="fill:#fbb13c;stroke-width:0px" />
              <path
                 class="cls-8"
                 d="m 700.21,45.67 c 2.65,4.17 -1.07,9.45 -5.89,8.37 l -15.64,-3.53 -20.66,-4.66 c -3.84,-0.87 -5.58,-5.36 -3.31,-8.58 l 8.17,-11.61 8.17,-11.61 c 2.27,-3.22 7.08,-3.11 9.2,0.22 l 11.36,17.87 8.6,13.54 z"
                 id="path428"
                 style="fill:#5a4dc4;stroke-width:0px" />
              <path
                 class="cls-5"
                 d="m 701.87,204.86 c 4.41,-2.22 9.3,2.01 7.74,6.7 l -5.08,15.21 -6.7,20.09 c -1.25,3.74 -5.89,5.01 -8.87,2.43 L 678.23,240 667.5,230.71 c -2.98,-2.58 -2.39,-7.36 1.14,-9.13 l 18.92,-9.51 14.33,-7.21 z"
                 id="path430"
                 style="fill:#fbb13c;stroke-width:0px" />
              <path
                 class="cls-8"
                 d="m 823.28,178.55 c -4.17,2.65 -9.45,-1.07 -8.37,-5.89 l 3.53,-15.64 4.66,-20.66 c 0.87,-3.84 5.36,-5.58 8.58,-3.31 l 11.61,8.17 11.61,8.17 c 3.22,2.27 3.11,7.08 -0.22,9.2 l -17.87,11.36 -13.54,8.6 z"
                 id="path432"
                 style="fill:#5a4dc4;stroke-width:0px" />
              <path
                 class="cls-8"
                 d="m 716.72,994.29 c -4.17,2.65 -9.45,-1.07 -8.37,-5.89 l 3.53,-15.64 4.66,-20.66 c 0.87,-3.84 5.36,-5.58 8.58,-3.31 l 11.61,8.17 11.61,8.17 c 3.22,2.27 3.11,7.08 -0.22,9.2 l -17.87,11.36 -13.54,8.6 z"
                 id="path434"
                 style="fill:#5a4dc4;stroke-width:0px" />
              <path
                 class="cls-5"
                 d="m 173.77,40.11 c 1.46,4.72 -3.52,8.84 -7.88,6.52 l -14.17,-7.52 -18.7,-9.93 c -3.48,-1.85 -3.97,-6.64 -0.93,-9.15 l 10.94,-9.05 10.94,-9.05 c 3.04,-2.51 7.65,-1.14 8.82,2.63 l 6.26,20.23 4.74,15.32 z"
                 id="path436"
                 style="fill:#fbb13c;stroke-width:0px" />
              <path
                 class="cls-8"
                 d="m 226.9,291.38 c -1.92,-4.55 2.62,-9.15 7.19,-7.28 l 14.85,6.07 19.6,8.01 c 3.65,1.49 4.61,6.21 1.84,9.01 l -9.98,10.1 -9.98,10.1 c -2.77,2.8 -7.5,1.9 -9.03,-1.73 l -8.25,-19.5 -6.25,-14.77 z"
                 id="path438"
                 style="fill:#5a4dc4;stroke-width:0px" />
              <path
                 class="cls-10"
                 d="m 502.87,152.23 c 0,0 -5.96,48.35 43.51,53.66"
                 id="path440"
                 style="fill:none;stroke:#000000;stroke-width:8px;stroke-linecap:round;stroke-linejoin:round" />
              <path
                 class="cls-10"
                 d="m 77.73,674.55 c 0,0 -5.96,48.35 43.51,53.66"
                 id="path442"
                 style="fill:none;stroke:#000000;stroke-width:8px;stroke-linecap:round;stroke-linejoin:round" />
              <path
                 class="cls-10"
                 d="m 672.83,414.2 c 0,0 47.83,9.27 56.53,-39.71"
                 id="path444"
                 style="fill:none;stroke:#000000;stroke-width:8px;stroke-linecap:round;stroke-linejoin:round" />
            </g>
          </g>
        </g>
      </g>
    </g>
    <rect
       style="opacity:0;fill:#ffffff;stroke-width:0.395598;stroke-linecap:round;stroke-linejoin:round;stroke-dasharray:0.395598, 4.74718;paint-order:stroke fill markers"
       id="rect3358"
       width="124.88313"
       height="124.88313"
       x="-264.79517"
       y="39.361446"
       rx="0.70702237"
       ry="0.81429476"
       inkscape:export-filename="OneDrive\Desktop\sejolikasmaran\public\assets\imgs\logos\responding-to-emailss.svg"
       inkscape:export-xdpi="96"
       inkscape:export-ydpi="96" />
    <g
       id="g3421"
       transform="matrix(0.99117486,0,0,0.99117486,14.052794,-6.1415951)">
      <polygon
         class="cls-8"
         points="386.5,1093.26 845.26,1093.26 812.41,910.34 341.55,997.94 "
         id="polygon1158"
         style="isolation:isolate;fill:#5a4dc4;stroke-width:0px"
         transform="matrix(0.08394971,0,0,0.08394971,-247.6629,56.998309)"
         inkscape:export-filename="OneDrive\Desktop\sejolikasmaran\public\assets\imgs\illustrations\responding-to-email.png"
         inkscape:export-xdpi="96"
         inkscape:export-ydpi="96" />
      <line
         class="cls-10"
         x1="-194.38086"
         y1="140.06822"
         x2="-191.69362"
         y2="147.7748"
         id="line1160"
         style="isolation:isolate;fill:none;stroke:#000000;stroke-width:0.671595px;stroke-linecap:round;stroke-linejoin:round" />
      <line
         class="cls-10"
         x1="-215.21634"
         y1="148.77716"
         x2="-202.44171"
         y2="148.77716"
         id="line1162"
         style="isolation:isolate;fill:none;stroke:#000000;stroke-width:0.671595px;stroke-linecap:round;stroke-linejoin:round" />
      <path
         class="cls-5"
         d="m -180.66347,130.75736 c 0,0 7.28347,2.57809 11.24253,-1.44477 3.95992,-4.02287 2.38082,-7.2457 2.38082,-7.2457 l -16.76476,-3.9893 3.14141,12.68061 z"
         id="path1166"
         style="isolation:isolate;fill:#fbb13c;stroke-width:0px" />
      <path
         class="cls-5"
         d="m -198.35168,87.365436 c 0,0 8.9759,4.430865 13.49743,13.387464 4.52153,8.95659 7.15,34.60071 7.15,34.60071 l -10.35939,1.6026 c -5.33921,-16.58931 -8.78198,-33.11984 -10.2872,-49.590774 z"
         id="path1168"
         style="isolation:isolate;fill:#fbb13c;stroke-width:0px" />
      <path
         class="cls-5"
         d="m -215.21634,87.177389 c 0,0 -8.01384,2.262444 -12.25665,6.033465 l 5.23258,50.109576 c 0,0 14.33021,2.35731 25.40822,-4.47787 l -0.94276,-30.45192 -17.44139,-21.212412 z"
         id="path1170"
         style="isolation:isolate;fill:#fbb13c;stroke-width:0px" />
      <path
         class="cls-5"
         d="m -227.47299,93.210854 c 0,0 -6.50526,5.37362 -8.39078,27.812536 l 11.69084,-3.95991 c 1.09974,-8.57714 -0.0159,-16.52298 -3.30006,-23.852626 z"
         id="path1172"
         style="isolation:isolate;fill:#fbb13c;stroke-width:0px" />
      <path
         class="cls-5"
         d="m -235.86377,121.02339 c 0,0 -4.60296,6.19801 0,11.21904 6.05026,6.59929 18.10124,-2.92984 18.10124,-2.92984 l -6.41124,-12.24911 -11.69083,3.95991 z"
         id="path1174"
         style="isolation:isolate;fill:#fbb13c;stroke-width:0px" />
      <path
         class="cls-5"
         d="m -211.6342,85.762836 -3.58298,1.414553 c 7.88876,16.268611 13.90963,33.548821 18.38415,51.665171 l 8.76771,-1.88552 c -4.49551,-18.23051 -8.18426,-35.17492 -10.2872,-49.590765 l -3.16155,-0.812633 -10.12097,-0.789967 z"
         id="path1176"
         style="isolation:isolate;fill:#fbb13c;stroke-width:0px" />
      <path
         class="cls-2"
         d="m -167.33478,122.37918 -25.22605,1.85277 c -1.43554,0 -2.48491,-1.35495 -2.12645,-2.74516 l 4.14125,-17.87625 c 0.25016,-0.96962 1.12492,-1.64625 2.12644,-1.64625 h 25.22605 c 1.43554,0 2.48491,1.35495 2.12644,2.74515 l -4.14124,16.02348 c -0.25016,0.96962 -1.12492,1.64626 -2.12644,1.64626 z"
         id="path1178"
         style="isolation:isolate;stroke-width:0px" />
      <circle
         class="cls-6"
         cx="-177.72945"
         cy="112.63429"
         r="2.4404178"
         id="circle1180"
         style="isolation:isolate;fill:#ffffff;stroke-width:0px" />
      <path
         class="cls-7"
         d="m -214.00074,114.09418 c 0,0 0,-3.23122 2.33632,-5.04705 1.70921,-1.32893 2.0299,-3.16491 2.9609,-3.08767 0.931,0.0781 0.57086,2.18941 -0.0739,3.01211 -0.64473,0.82271 -0.81683,1.79569 -0.81683,1.79569 0,0 3.1817,-1.25925 5.06973,-2.47232 1.24077,-0.79753 2.08615,-1.62527 2.52017,-2.09875 0.19476,-0.21239 0.52384,-0.22414 0.73372,-0.0277 v 0 c 0.18217,0.17126 0.21575,0.44913 0.0789,0.65817 l -0.61955,0.95199 0.52805,-0.49699 c 0.3316,-0.31145 0.86132,-0.26192 1.12828,0.10662 v 0 c 0.17462,0.2401 0.19141,0.55826 0.0462,0.81683 -0.2082,0.37106 -0.55575,0.93016 -1.02755,1.49178 0,0 0.33412,-0.1192 0.7228,-0.31481 0.32741,-0.16538 0.72617,-0.0142 0.85713,0.32825 v 0 c 0.084,0.22078 0.0369,0.47012 -0.12508,0.64137 -0.23506,0.24849 -0.65817,0.63214 -1.36419,1.09303 l 0.80424,-0.24429 c 0.2443,-0.0739 0.50454,0.0496 0.60276,0.28458 v 0 c 0.0781,0.18721 0.0336,0.4038 -0.11249,0.54484 -0.46256,0.44829 -1.53292,1.44309 -2.67296,2.19444 -1.51865,1.00153 -1.70754,2.16003 -5.12345,2.97602 -3.41676,0.81599 -4.3528,1.4473 -4.3528,1.4473 l -2.09957,-4.55512 z"
         id="path1184"
         style="isolation:isolate;fill:#ffcdc2;stroke-width:0px" />
      <path
         class="cls-11"
         d="m -201.81125,107.77865 c 0,0 -0.66404,1.39608 -3.57206,2.89878"
         id="path1186"
         style="opacity:0.7;isolation:isolate;mix-blend-mode:multiply;fill:none;stroke:#e0a4ab;stroke-width:0.671595px;stroke-linecap:round;stroke-linejoin:round" />
      <path
         class="cls-11"
         d="m -201.13629,109.69606 c 0,0 -0.85881,1.1946 -2.95671,2.33212"
         id="path1188"
         style="opacity:0.7;isolation:isolate;mix-blend-mode:multiply;fill:none;stroke:#e0a4ab;stroke-width:0.671595px;stroke-linecap:round;stroke-linejoin:round" />
      <path
         class="cls-11"
         d="m -201.04647,111.44473 c 0,0 -1.02502,1.37258 -3.67783,2.39676"
         id="path1190"
         style="opacity:0.7;isolation:isolate;mix-blend-mode:multiply;fill:none;stroke:#e0a4ab;stroke-width:0.671595px;stroke-linecap:round;stroke-linejoin:round" />
      <path
         class="cls-7"
         d="m -214.00074,114.09418 -9.36292,4.24114 4.3763,7.73261 7.0862,-7.41864 c 1.04433,-2.59992 0.4592,-4.18909 -2.09958,-4.55511 z"
         id="path1192"
         style="isolation:isolate;fill:#ffcdc2;stroke-width:0px" />
      <path
         class="cls-7"
         d="m -176.0538,122.06689 c 0,0 -1.8704,-0.68 -3.71729,-1.15179 -1.84689,-0.47264 -2.90802,-1.58162 -3.59389,-1.12661 -0.68587,0.45501 0.48775,1.93169 1.33396,2.29267 0.84621,0.36182 1.39189,1.03929 1.39189,1.03929 0,0 -2.98861,0.37778 -4.95975,0.24178 -1.29618,-0.089 -2.29938,-0.36938 -2.83414,-0.55071 -0.2401,-0.0814 -0.4995,0.0487 -0.57757,0.29047 v 0 c -0.068,0.20987 0.0235,0.43738 0.21826,0.54147 l 0.88232,0.4718 -0.61788,-0.15951 c -0.38784,-0.0999 -0.77569,0.16286 -0.82522,0.56079 v 0 c -0.0327,0.25856 0.089,0.51209 0.31061,0.64977 0.31817,0.19812 0.82271,0.48187 1.42547,0.71525 0,0 -0.3081,0.0496 -0.69091,0.063 -0.32237,0.0118 -0.56582,0.29718 -0.52217,0.61703 v 0 c 0.0286,0.20568 0.17043,0.37862 0.36855,0.44158 0.2871,0.0915 0.77569,0.20819 1.51613,0.26444 l -0.72365,0.15279 c -0.21995,0.0462 -0.36854,0.25185 -0.34419,0.47515 v 0 c 0.0193,0.17798 0.14523,0.32573 0.31732,0.37274 0.54652,0.15027 1.79485,0.4634 2.99281,0.55995 1.59588,0.12844 2.23306,0.94275 5.21496,0.1234 2.98189,-0.81851 4.14627,-0.90833 4.14627,-0.90833 l -0.71105,-5.97722 z"
         id="path1196"
         style="isolation:isolate;fill:#ffcdc2;stroke-width:0px" />
      <path
         class="cls-11"
         d="m -187.29131,124.28904 c 0,0 0.96627,0.69594 3.48643,0.63213"
         id="path1198"
         style="opacity:0.7;isolation:isolate;mix-blend-mode:multiply;fill:none;stroke:#e0a4ab;stroke-width:0.671595px;stroke-linecap:round;stroke-linejoin:round" />
      <path
         class="cls-11"
         d="m -187.09067,125.92522 c 0,0 1.16942,0.55742 3.26984,0.54567"
         id="path1200"
         style="opacity:0.7;isolation:isolate;mix-blend-mode:multiply;fill:none;stroke:#e0a4ab;stroke-width:0.671595px;stroke-linecap:round;stroke-linejoin:round" />
      <path
         class="cls-11"
         d="m -186.44258,127.4489 c 0,0 1.13164,0.51461 3.17666,0.23926"
         id="path1202"
         style="opacity:0.7;isolation:isolate;mix-blend-mode:multiply;fill:none;stroke:#e0a4ab;stroke-width:0.671595px;stroke-linecap:round;stroke-linejoin:round" />
      <path
         class="cls-7"
         d="m -176.0538,122.06689 h 9.01368 c 0,0 1.87292,5.97721 -8.30263,5.97721 -2.80811,-1.51613 -3.19596,-4.42247 -0.71105,-5.97721 z"
         id="path1206"
         style="isolation:isolate;fill:#ffcdc2;stroke-width:0px" />
      <path
         class="cls-10"
         d="m -231.57394,120.26952 7.40101,-3.2052 6.41124,12.2491 c 0,0 -12.26001,10.66665 -18.97599,1.80156"
         id="path1210"
         style="isolation:isolate;fill:none;stroke:#000000;stroke-width:0.671595px;stroke-linecap:round;stroke-linejoin:round" />
      <path
         class="cls-10"
         d="m -226.12644,96.595706 c 0,0 4.20168,8.113734 1.95351,20.467774"
         id="path1212"
         style="isolation:isolate;fill:none;stroke:#000000;stroke-width:0.671595px;stroke-linecap:round;stroke-linejoin:round" />
      <path
         class="cls-10"
         d="m -196.83219,138.84256 c 0,0 -9.57278,5.81855 -22.15769,4.7952"
         id="path1214"
         style="isolation:isolate;fill:none;stroke:#000000;stroke-width:0.671595px;stroke-linecap:round;stroke-linejoin:round" />
      <path
         class="cls-10"
         d="m -177.70425,135.35361 -0.80592,-6.66141 c 0,0 7.9769,0.24681 10.60957,-2.88703"
         id="path1216"
         style="isolation:isolate;fill:none;stroke:#000000;stroke-width:0.671595px;stroke-linecap:round;stroke-linejoin:round" />
      <path
         class="cls-10"
         d="m -235.86377,121.02339 c 0,0 1.41707,-13.04327 3.81972,-19.6266"
         id="path1218"
         style="isolation:isolate;fill:none;stroke:#000000;stroke-width:0.671595px;stroke-linecap:round;stroke-linejoin:round" />
      <line
         class="cls-10"
         x1="-195.30431"
         y1="95.83596"
         x2="-193.36339"
         y2="101.09289"
         id="line1220"
         style="isolation:isolate;fill:none;stroke:#000000;stroke-width:0.671595px;stroke-linecap:round;stroke-linejoin:round" />
      <path
         class="cls-10"
         d="m -214.00074,91.087766 c 0,0 6.98545,6.720173 13.78454,1.146753"
         id="path1222"
         style="isolation:isolate;fill:none;stroke:#000000;stroke-width:0.671595px;stroke-linecap:round;stroke-linejoin:round" />
      <path
         class="cls-2"
         d="m -205.18603,58.743623 c 0,0 -9.85401,-6.119094 -12.5765,4.555111 -1.92497,7.547079 2.75523,17.077889 -4.89679,25.501402 0,0 11.66397,-3.080954 9.43595,-9.683598 0,0 -1.09386,1.83514 -6.01751,9.465329 0,0 7.38925,1.943435 9.96063,-7.447178 2.57138,-9.390614 4.09422,-22.391066 4.09422,-22.391066 z"
         id="path1226"
         style="isolation:isolate;stroke-width:0px" />
      <path
         class="cls-7"
         d="m -208.45419,77.864847 -3.17917,7.897989 c 0,0 -0.83027,5.945318 6.72773,5.272041 4.32928,-0.386169 3.77018,-6.987134 3.77018,-6.987134 -2.03662,-3.88855 -3.18086,-4.411557 -7.3179,-6.182056 z"
         id="path1228"
         style="isolation:isolate;fill:#ffcdc2;stroke-width:0px" />
      <path
         class="cls-7"
         d="m -190.89443,71.496423 c 0,0.732881 -0.25101,1.479194 -0.7992,2.104619 0,0 -1.23406,3.308458 -3.01883,6.339882 -0.41891,0.712733 -0.86888,1.411194 -1.34068,2.046693 -1.26176,1.701661 -2.67799,2.959228 -4.07828,2.879476 -3.27739,-0.185529 -6.02674,-3.065004 -7.71581,-5.365226 -1.18621,-1.615192 -1.77302,-3.593048 -1.68151,-5.594409 l 0.22414,-4.924489 c 0.089,-1.961905 1.90147,-3.384853 3.82895,-3.007079 l 11.98466,2.35479 c 1.61435,0.31649 2.59656,1.715931 2.59656,3.165743 z"
         id="path1230"
         style="isolation:isolate;fill:#ffcdc2;stroke-width:0px" />
      <path
         class="cls-10"
         d="m -208.0017,79.285276 c 0,0 1.52369,3.405001 5.61875,5.031946"
         id="path1232"
         style="isolation:isolate;fill:none;stroke:#000000;stroke-width:0.671595px;stroke-linecap:round;stroke-linejoin:round" />
      <rect
         class="cls-4"
         x="-71.212494"
         y="201.31006"
         width="2.7921669"
         height="6.7579513"
         rx="1.0149519"
         ry="1.0149519"
         transform="rotate(54.700002)"
         id="rect1234"
         style="isolation:isolate;fill:#f4826c;stroke-width:0px" />
      <path
         class="cls-2"
         d="m -192.69599,75.996966 v -4.853132 c 0,0 -5.62631,5.494508 -14.06325,1.547193 0,0 -2.78462,-0.936878 -2.82407,2.380814 0,0 -2.95419,-6.199686 -0.25353,-10.614601 2.70066,-4.414915 9.71214,-6.545559 16.20397,-1.864523 8.11542,5.851294 0.93688,13.405089 0.93688,13.405089 z"
         id="path1236"
         style="isolation:isolate;stroke-width:0px" />
      <path
         class="cls-10"
         d="m -207.03963,73.639659 c 0,0 -2.78126,-0.112493 -0.83782,2.6696"
         id="path1238"
         style="isolation:isolate;fill:none;stroke:#000000;stroke-width:0.671595px;stroke-linecap:round;stroke-linejoin:round" />
      <ellipse
         class="cls-4"
         cx="-144.07442"
         cy="-164.31752"
         rx="1.2533691"
         ry="1.55223"
         transform="rotate(-69.84)"
         id="ellipse1240"
         style="isolation:isolate;fill:#f4826c;stroke-width:0px" />
      <path
         class="cls-4"
         d="m -194.71246,79.940924 c -0.41891,0.712733 -0.86888,1.411194 -1.34068,2.046693 -0.33916,-0.2997 -0.51545,-0.713572 -0.43234,-1.124925 0.13684,-0.679154 0.92848,-1.092186 1.76882,-0.922607 0.002,0 0.003,8.41e-4 0.004,8.41e-4 z"
         id="path1242"
         style="isolation:isolate;fill:#f4826c;stroke-width:0px" />
      <path
         class="cls-2"
         d="m -197.06473,80.626793 c 0,0 -0.047,0.189726 -0.15279,0.461723 -0.01,0.02603 -0.021,0.05289 -0.0319,0.08059 -0.20148,0.499501 -0.58093,1.21727 -1.18789,1.575736 -0.32572,0.192245 -0.71693,0.281231 -1.18201,0.177134 -0.41639,-0.09318 -0.71861,-0.302219 -0.93688,-0.570858 -0.21911,-0.2678 -0.35427,-0.596882 -0.43486,-0.928484 -0.0991,-0.405477 -0.11836,-0.81683 -0.11165,-1.132481 0.001,-0.02434 0.002,-0.04785 0.003,-0.07052 0.01,-0.293824 0.0403,-0.486909 0.0403,-0.486909 z"
         id="path1244"
         style="isolation:isolate;stroke-width:0px" />
      <path
         class="cls-3"
         d="m -200.99106,81.422636 c 0.16202,0.664042 0.5398,1.312974 1.3709,1.499342 0.46508,0.104097 0.85712,0.01511 1.18201,-0.177134 0,0 -0.57253,-1.354109 -2.55375,-1.322208 z"
         id="path1246"
         style="isolation:isolate;fill:#ff0000;stroke-width:0px" />
      <circle
         class="cls-2"
         cx="-194.96431"
         cy="77.777542"
         r="0.60443789"
         id="circle1248"
         style="isolation:isolate;stroke-width:0px" />
      <circle
         class="cls-10"
         cx="-194.96431"
         cy="77.32589"
         r="1.8678809"
         id="circle1250"
         style="isolation:isolate;fill:none;stroke:#000000;stroke-width:0.671595px;stroke-linecap:round;stroke-linejoin:round" />
      <circle
         class="cls-2"
         cx="-200.37738"
         cy="76.448616"
         r="0.60443789"
         id="circle1252"
         style="isolation:isolate;stroke-width:0px" />
      <circle
         class="cls-10"
         cx="-200.37738"
         cy="75.996964"
         r="1.8678809"
         id="circle1254"
         style="isolation:isolate;fill:none;stroke:#000000;stroke-width:0.671595px;stroke-linecap:round;stroke-linejoin:round" />
      <path
         class="cls-10"
         d="m -195.56958,74.349873 c 0.8907,0.06212 1.69746,0.322367 2.42026,0.781572"
         id="path1256"
         style="isolation:isolate;fill:none;stroke:#000000;stroke-width:0.671595px;stroke-linecap:round;stroke-linejoin:round" />
      <path
         class="cls-10"
         d="m -197.63727,77.606282 0.0949,1.572379 c 0.0151,0.247651 -0.18385,0.455846 -0.43235,0.452488 l -0.64641,-0.01007"
         id="path1258"
         style="isolation:isolate;fill:none;stroke:#000000;stroke-width:0.671595px;stroke-linecap:round;stroke-linejoin:round" />
      <path
         class="cls-6"
         d="m -197.06473,80.626793 c 0,0 -0.047,0.189726 -0.15279,0.461723 -0.01,0.02603 -0.021,0.05289 -0.0319,0.08059 l -3.85329,-0.878953 c 0.001,-0.02434 0.002,-0.04785 0.003,-0.07052 0.01,-0.293824 0.0403,-0.486909 0.0403,-0.486909 z"
         id="path1260"
         style="isolation:isolate;fill:#ffffff;stroke-width:0px" />
      <path
         class="cls-2"
         d="m -204.09216,72.173057 -2.22886,3.284952 c 0,0 0.81431,-3.37058 -0.51462,-4.314175 -1.32892,-0.943594 2.74348,1.029223 2.74348,1.029223 z"
         id="path1262"
         style="isolation:isolate;stroke-width:0px" />
      <path
         class="cls-10"
         d="m -198.53553,76.309259 c 0.62794,-0.150269 1.22987,-0.04701 1.78897,0.455847"
         id="path1264"
         style="isolation:isolate;fill:none;stroke:#000000;stroke-width:0.671595px;stroke-linecap:round;stroke-linejoin:round" />
      <line
         class="cls-10"
         x1="-202.0782"
         y1="75.225471"
         x2="-206.20517"
         y2="72.175575"
         id="line1266"
         style="isolation:isolate;fill:none;stroke:#000000;stroke-width:0.671595px;stroke-linecap:round;stroke-linejoin:round" />
      <path
         class="cls-9"
         d="m -210.36572,65.511648 c 0,0 -1.38097,3.216114 -0.29215,6.224871"
         id="path1268"
         style="isolation:isolate;fill:none;stroke:#ffffff;stroke-width:0.671595px;stroke-linecap:round;stroke-linejoin:round" />
      <path
         class="cls-10"
         d="m -184.09366,80.458894 c -1.21895,1.828424 -2.20032,3.675317 -2.83834,5.548235 -0.0898,0.262763 -0.008,0.554908 0.204,0.733721 3.03478,2.557108 6.52625,5.058809 10.34931,7.520214 0.2317,0.149431 0.53057,0.141036 0.75723,-0.01679 1.65717,-1.15095 3.10278,-2.918091 4.40065,-5.109179 0.17377,-0.292984 0.0999,-0.671597 -0.17042,-0.879793 -3.88855,-2.995325 -7.81656,-5.697666 -11.79829,-8.006283 -0.30978,-0.179652 -0.70686,-0.08983 -0.90498,0.208196 z"
         id="path1274"
         style="isolation:isolate;fill:none;stroke:#000000;stroke-width:0.671595px;stroke-linecap:round;stroke-linejoin:round" />
      <path
         class="cls-10"
         d="m -176.01351,61.301571 c 0,0 0.39205,4.011956 -3.44781,5.983935"
         id="path1276"
         style="isolation:isolate;fill:none;stroke:#000000;stroke-width:0.671595px;stroke-linecap:round;stroke-linejoin:round" />
      <path
         class="cls-10"
         d="m -161.48097,87.948047 c 0,0 0.72869,3.044016 4.45857,3.472159"
         id="path1278"
         style="isolation:isolate;fill:none;stroke:#000000;stroke-width:0.671595px;stroke-linecap:round;stroke-linejoin:round" />
      <line
         class="cls-10"
         x1="-181.36446"
         y1="84.883881"
         x2="-176.15118"
         y2="88.26622"
         id="line1280"
         style="isolation:isolate;fill:none;stroke:#000000;stroke-width:0.671595px;stroke-linecap:round;stroke-linejoin:round" />
      <line
         class="cls-10"
         x1="-183.59416"
         y1="85.28936"
         x2="-175.64917"
         y2="90.746933"
         id="line1282"
         style="isolation:isolate;fill:none;stroke:#000000;stroke-width:0.671595px;stroke-linecap:round;stroke-linejoin:round" />
      <path
         class="cls-5"
         d="m -167.43972,63.933394 -2.82994,11.198051 12.4447,1.373417 c -2.44545,-5.092389 -5.58433,-9.362071 -9.61476,-12.571468 z"
         id="path1288"
         style="isolation:isolate;fill:#fbb13c;stroke-width:0px" />
      <path
         class="cls-10"
         d="m -179.26991,72.928605 c 3.12544,-3.60564 6.86456,-6.578299 11.26605,-8.869286 0.43821,-0.228344 0.97382,-0.142715 1.32305,0.206516 3.62243,3.617393 6.69666,7.471524 8.93812,11.685799 0.25437,0.477674 0.13852,1.065321 -0.27704,1.412034 -2.80895,2.343876 -5.9621,4.185732 -9.50814,5.454212 -0.27535,0.09822 -0.57757,0.08731 -0.84537,-0.02938 -4.28983,-1.863684 -7.91478,-4.684394 -10.91598,-8.405044 -0.3442,-0.427305 -0.34084,-1.040138 0.0185,-1.454849 z"
         id="path1290"
         style="isolation:isolate;fill:none;stroke:#000000;stroke-width:0.671595px;stroke-linecap:round;stroke-linejoin:round" />
      <polyline
         class="cls-10"
         points="955.61 82.61 921.91 216 1072.29 235.46"
         id="polyline1292"
         style="isolation:isolate;fill:none;stroke:#000000;stroke-width:8px;stroke-linecap:round;stroke-linejoin:round"
         transform="matrix(0.08394971,0,0,0.08394971,-247.6629,56.998309)" />
    </g>
  </g>
</svg>
