<?xml version="1.0" encoding="UTF-8" standalone="no"?>
<svg
   id="bb7c18d0-f456-47c2-8887-908615fa7d6e"
   data-name="Layer 1"
   width="1005.56255"
   height="548.69495"
   viewBox="0 0 1005.56255 548.69495"
   version="1.1"
   sodipodi:docname="tasks.svg"
   inkscape:version="1.2.2 (732a01da63, 2022-12-09)"
   xmlns:inkscape="http://www.inkscape.org/namespaces/inkscape"
   xmlns:sodipodi="http://sodipodi.sourceforge.net/DTD/sodipodi-0.dtd"
   xmlns="http://www.w3.org/2000/svg"
   xmlns:svg="http://www.w3.org/2000/svg">
  <defs
     id="defs115" />
  <sodipodi:namedview
     id="namedview113"
     pagecolor="#ffffff"
     bordercolor="#000000"
     borderopacity="0.25"
     inkscape:showpageshadow="2"
     inkscape:pageopacity="0.0"
     inkscape:pagecheckerboard="0"
     inkscape:deskcolor="#d1d1d1"
     showgrid="false"
     inkscape:lockguides="true"
     inkscape:zoom="0.64889051"
     inkscape:cx="420.71813"
     inkscape:cy="370.63264"
     inkscape:window-width="1920"
     inkscape:window-height="991"
     inkscape:window-x="-9"
     inkscape:window-y="-9"
     inkscape:window-maximized="1"
     inkscape:current-layer="bb7c18d0-f456-47c2-8887-908615fa7d6e" />
  <path
     d="M887.106,204.32813h-600.54a12.06487,12.06487,0,0,0-12.0498,12.06v329.27a12.06487,12.06487,0,0,0,12.0498,12.06h600.54a12.07157,12.07157,0,0,0,12.05029-12.06v-329.27A12.07157,12.07157,0,0,0,887.106,204.32813Z"
     transform="translate(-97.21873 -175.65252)"
     fill="#fff"
     id="path20" />
  <path
     d="M600.47428,245.66092a3.6469,3.6469,0,0,0-3.643,3.643v60.998a3.64728,3.64728,0,0,0,3.643,3.64345H846.37687a3.64729,3.64729,0,0,0,3.643-3.64345v-60.998a3.64686,3.64686,0,0,0-3.643-3.643Z"
     transform="translate(-97.21873 -175.65252)"
     fill="#fff"
     id="path52" />
  <path
     d="M600.47428,245.66092a3.6469,3.6469,0,0,0-3.643,3.643v60.998a3.64728,3.64728,0,0,0,3.643,3.64345H846.37687a3.64729,3.64729,0,0,0,3.643-3.64345v-60.998a3.64686,3.64686,0,0,0-3.643-3.643Z"
     transform="translate(-97.21873 -175.65252)"
     fill="#e6e6e6"
     id="path54" />
  <path
     d="M600.92954,309.84676H845.92136V249.75948H600.92954Z"
     transform="translate(-97.21873 -175.65252)"
     fill="#fff"
     id="path56" />
  <path
     d="M628.78433,267.05261a3.18763,3.18763,0,0,0,0,6.37526H818.05811a3.18763,3.18763,0,1,0,.00274-6.37526H628.78433Z"
     transform="translate(-97.21873 -175.65252)"
     fill="#e4e4e4"
     id="path58" />
  <path
     d="M628.78433,286.17837a3.18763,3.18763,0,0,0,0,6.37525H818.05811a3.18763,3.18763,0,0,0,.01422-6.37525h-189.288Z"
     transform="translate(-97.21873 -175.65252)"
     fill="#e4e4e4"
     id="path60" />
  <path
     d="M429.47428,349.16092a3.6469,3.6469,0,0,0-3.643,3.643v60.998a3.64728,3.64728,0,0,0,3.643,3.64345H675.37687a3.64729,3.64729,0,0,0,3.643-3.64345v-60.998a3.64686,3.64686,0,0,0-3.643-3.643Z"
     transform="translate(-97.21873 -175.65252)"
     fill="#fff"
     id="path62" />
  <path
     d="M429.47428,349.16092a3.6469,3.6469,0,0,0-3.643,3.643v60.998a3.64728,3.64728,0,0,0,3.643,3.64345H675.37687a3.64729,3.64729,0,0,0,3.643-3.64345v-60.998a3.64686,3.64686,0,0,0-3.643-3.643Z"
     transform="translate(-97.21873 -175.65252)"
     fill="#e6e6e6"
     id="path64" />
  <path
     d="M429.92954,413.34676H674.92136V353.25948H429.92954Z"
     transform="translate(-97.21873 -175.65252)"
     fill="#fff"
     id="path66" />
  <path
     d="M457.78433,370.55261a3.18763,3.18763,0,0,0,0,6.37526H647.05811a3.18763,3.18763,0,1,0,.00274-6.37526H457.78433Z"
     transform="translate(-97.21873 -175.65252)"
     fill="#e4e4e4"
     id="path68" />
  <path
     d="M457.78433,389.67837a3.18763,3.18763,0,0,0,0,6.37525H647.05811a3.18763,3.18763,0,0,0,.01422-6.37525h-189.288Z"
     transform="translate(-97.21873 -175.65252)"
     fill="#e4e4e4"
     id="path70" />
  <text
     xml:space="preserve"
     style="font-size:311.429px;line-height:1.5;font-family:sans-serif;-inkscape-font-specification:sans-serif;letter-spacing:0px;fill:#ff0e00;stroke-width:35.0359;stroke-linecap:round;stroke-linejoin:round;paint-order:stroke fill markers;fill-opacity:1"
     x="422.4967"
     y="305.79703"
     id="text487"><tspan
       sodipodi:role="line"
       id="tspan485"
       x="422.4967"
       y="305.79703"
       style="stroke-width:35.0359;fill:#ff0e00;fill-opacity:1">♥</tspan></text>
  <g
     id="g431"
     transform="matrix(1.0595209,0,0,1.0595209,-63.882997,-32.539798)">
    <path
       d="m 729.21114,512.87384 a 7.53637,7.53637 0 0 0 6.4045,-9.619 l 21.79308,-15.56647 -12.98756,-5.00094 -18.70395,15.54889 a 7.57718,7.57718 0 0 0 3.49393,14.63752 z"
       transform="translate(-97.21873,-175.65252)"
       fill="#ffb7b7"
       id="path72" />
    <path
       d="m 741.31006,502.62159 -7.22961,-12.34781 0.15352,-0.17509 29.16956,-33.20861 22.648,-38.623 19.66686,2.50659 0.29018,5.94467 -0.0587,0.0888 -31.24584,46.96971 -0.0332,0.0283 z"
       transform="translate(-97.21873,-175.65252)"
       fill="#3f3d56"
       id="path74" />
    <polygon
       points="724.054,493.014 740.469,493.015 740.467,535.914 729.346,535.913 "
       fill="#ffb7b7"
       id="polygon76" />
    <path
       d="m 840.52256,722.34748 -35.86183,-10e-4 v -0.4536 a 13.95918,13.95918 0 0 1 13.95842,-13.9582 h 8.5e-4 l 21.90318,8.9e-4 z"
       transform="translate(-97.21873,-175.65252)"
       fill="#2f2e41"
       id="path78" />
    <polygon
       points="638.746,490.012 654.712,493.824 644.748,535.55 633.93,532.967 "
       fill="#ffb7b7"
       id="polygon80" />
    <path
       d="m 742.222,722.34748 -34.8812,-8.32907 0.10534,-0.44119 a 13.95916,13.95916 0 0 1 16.8182,-10.33524 l 8.6e-4,2.1e-4 21.30423,5.08718 z"
       transform="translate(-97.21873,-175.65252)"
       fill="#2f2e41"
       id="path82" />
    <path
       d="m 785.1913,398.65418 v -18.72113 a 25.08631,25.08631 0 0 1 50.17262,0 v 18.72113 a 3.3736,3.3736 0 0 1 -3.36981,3.3698 h -43.433 a 3.3736,3.3736 0 0 1 -3.36981,-3.3698 z"
       transform="translate(-97.21873,-175.65252)"
       fill="#2f2e41"
       id="path84" />
    <circle
       cx="706.86761"
       cy="207.69456"
       r="18.392401"
       fill="#ffb7b7"
       id="circle86" />
    <path
       d="m 779.25648,381.43074 a 19.86684,19.86684 0 0 1 19.8444,-19.84439 h 3.7444 a 19.86669,19.86669 0 0 1 19.84422,19.84439 v 0.37443 h -7.91279 l -2.69884,-7.5572 -0.53969,7.5572 h -4.0894 l -1.36167,-3.813 -0.27241,3.813 h -26.55822 z"
       transform="translate(-97.21873,-175.65252)"
       fill="#2f2e41"
       id="path88" />
    <path
       d="m 814.81456,480.42059 -46.82973,-1.78233 -2.61807,-30.63715 c -2.019,-5.60772 -2.05172,-10.42252 -0.0968,-14.31026 a 14.32409,14.32409 0 0 1 7.90822,-6.8352 l 10.247,-12.37616 a 13.94748,13.94748 0 0 1 10.82969,-5.04783 l 26.623,0.182 c 0.64223,-0.38607 4.53454,-2.36427 12.21162,0.96359 8.327,3.61 6.39339,16.14738 6.37277,16.27334 l -0.019,0.11778 -0.0915,0.0775 -17.70976,14.91361 z"
       transform="translate(-97.21873,-175.65252)"
       fill="#3f3d56"
       id="path90" />
    <polygon
       points="632.194,523.817 651.169,529.612 684.756,385.882 723.736,525.534 746.481,526.103 730.994,364.944 717.46,302.548 671.139,299.694 648.988,340.08 "
       fill="#2f2e41"
       id="polygon92" />
    <path
       d="m 624.99453,445.41035 a 3.64689,3.64689 0 0 0 -4.58886,2.34208 l -18.80992,58.02537 a 3.64727,3.64727 0 0 0 2.34194,4.58928 L 837.85662,586.196 a 3.64729,3.64729 0 0 0 4.589,-2.3425 l 18.80993,-58.02537 a 3.64687,3.64687 0 0 0 -2.34208,-4.58886 z"
       transform="translate(-97.21873,-175.65252)"
       fill="#ffffff"
       id="path94" />
    <path
       d="m 624.99453,445.41035 a 3.64689,3.64689 0 0 0 -4.58886,2.34208 l -18.80992,58.02537 a 3.64727,3.64727 0 0 0 2.34194,4.58928 L 837.85662,586.196 a 3.64729,3.64729 0 0 0 4.589,-2.3425 l 18.80993,-58.02537 a 3.64687,3.64687 0 0 0 -2.34208,-4.58886 z"
       transform="translate(-97.21873,-175.65252)"
       fill="#e6e6e6"
       id="path96" />
    <path
       d="m 605.63465,506.60859 233.05255,75.548 18.52908,-57.159 -233.05254,-75.548 z"
       transform="translate(-97.21873,-175.65252)"
       fill="#ffffff"
       id="path98" />
    <path
       d="m 645.3284,474.48951 a 3.18763,3.18763 0 0 0 -1.96594,6.06457 l 180.04983,58.36627 a 3.18763,3.18763 0 1 0 1.96855,-6.06372 l -0.003,-8.5e-4 z"
       transform="translate(-97.21873,-175.65252)"
       fill="#428dfc"
       id="path100" />
    <path
       d="m 639.43059,492.68321 a 3.18763,3.18763 0 0 0 -1.96593,6.06456 L 817.51449,557.114 a 3.1876341,3.1876341 0 0 0 1.97946,-6.06018 l -0.0135,-0.004 z"
       transform="translate(-97.21873,-175.65252)"
       fill="#428dfc"
       id="path102" />
    <path
       d="m 827.53864,540.728 a 7.53632,7.53632 0 0 0 -0.39673,-11.54925 l 8.64784,-25.347 -13.46991,3.49968 -6.14706,23.53337 a 7.57718,7.57718 0 0 0 11.36586,9.86316 z"
       transform="translate(-97.21873,-175.65252)"
       fill="#ffb7b7"
       id="path104" />
    <path
       d="m 831.40154,525.34659 -13.06878,-5.82559 4.39127,-44.21559 -4.0866,-44.58591 17.44635,-9.418 3.69833,4.663 0.004,0.1058 1.95962,56.37951 -0.0104,0.0428 z"
       transform="translate(-97.21873,-175.65252)"
       fill="#3f3d56"
       id="path106" />
  </g>
  <path
     d="M1101.255,724.34746l-683.44821,0a1.56682,1.56682,0,0,1-1.53909-1.13363,1.52912,1.52912,0,0,1,1.47725-1.91893l683.385,0a1.61535,1.61535,0,0,1,1.61617,1.19368A1.52819,1.52819,0,0,1,1101.255,724.34746Z"
     transform="translate(-97.21873 -175.65252)"
     fill="#ccc"
     id="path108" />
  <g
     id="g411"
     transform="matrix(1.0486167,0,0,1.0486167,230.34472,-26.675778)">
    <path
       d="m 305.19648,382.84914 a 8.40614,8.40614 0 0 0 -10.26268,7.799 l -28.6532,8.44748 11.86177,10.01357 25.391,-9.55705 a 8.45167,8.45167 0 0 0 1.66308,-16.703 z"
       transform="translate(-97.21873,-175.65252)"
       fill="#ffb6b6"
       id="path24" />
    <path
       d="m 189.42383,446.42383 a 11.952,11.952 0 0 1 -3.80811,-23.27588 l 58.064,-19.6001 45.29248,-16.5 5.5581,19.45508 -39.98388,26.34668 -62.62354,13.311 a 12.02473,12.02473 0 0 1 -2.49905,0.26322 z"
       transform="translate(-97.21873,-175.65252)"
       fill="#428dfc"
       id="path26" />
    <polygon
       points="140.572,507.347 128.539,507.347 128.541,538.792 136.693,538.792 "
       fill="#ffb6b6"
       id="polygon28" />
    <path
       d="m 223.67984,711.78319 16.0552,-6.5e-4 h 6.5e-4 a 10.23221,10.23221 0 0 1 10.23164,10.23146 v 0.33248 l -26.287,10e-4 z"
       transform="translate(-97.21873,-175.65252)"
       fill="#2f2e41"
       id="path30" />
    <polygon
       points="78.064,507.347 66.032,507.347 66.033,538.792 74.185,538.792 "
       fill="#ffb6b6"
       id="polygon32" />
    <path
       d="m 161.1721,711.78319 16.05521,-6.5e-4 h 6.5e-4 a 10.23219,10.23219 0 0 1 10.23163,10.23146 v 0.33248 l -26.287,10e-4 z"
       transform="translate(-97.21873,-175.65252)"
       fill="#2f2e41"
       id="path34" />
    <path
       d="m 163.171,525.829 a 43.78435,43.78435 0 0 0 -2.32742,27.54938 l -2.32741,155.984 h 17.9046 l 10.02438,-85.78189 16.6244,-56.523 17.95435,43.88841 v 91.47083 l 17.28937,-1.03411 9.30966,-97.08648 -10.63961,-69.15749 z"
       transform="translate(-97.21873,-175.65252)"
       fill="#2f2e41"
       id="path36" />
    <path
       d="m 228.67108,404.47092 -15.29444,-4.65484 -3.98986,-7.97971 h -19.64559 l -4.95852,8.64469 c 0,0 -19.94927,7.31473 -20.61425,42.55846 -0.66498,35.24373 -3.32488,91.76667 -3.32488,91.76667 l 78.66089,11.21416 z"
       transform="translate(-97.21873,-175.65252)"
       fill="#428dfc"
       id="path38" />
    <path
       d="M 251.2538,539.70888 A 8.40612,8.40612 0 0 0 245.759,528.049 l -2.30564,-29.78338 -12.26093,9.52066 4.06921,26.82319 a 8.45167,8.45167 0 0 0 15.99219,5.09942 z"
       transform="translate(-97.21873,-175.65252)"
       fill="#ffb6b6"
       id="path40" />
    <path
       d="m 230.33447,524.3584 -17.458,-44.58789 v -64.02295 a 11.95065,11.95065 0 0 1 23.82081,-1.38477 l 7.10009,60.87061 6.72263,47.73242 z"
       transform="translate(-97.21873,-175.65252)"
       fill="#428dfc"
       id="path42" />
    <circle
       cx="106.11386"
       cy="186.2002"
       r="19.63241"
       fill="#ffb9b9"
       id="circle44" />
    <path
       d="m 204.61818,355.88489 c -0.91858,1.17913 -2.17774,2.2436 -2.38,3.72454 -0.14984,1.09735 0.32953,2.18183 0.37521,3.28843 a 4.38775,4.38775 0 0 1 -4.10213,4.39293 4.86761,4.86761 0 0 0 -3.13333,-1.7918 2.89129,2.89129 0 0 0 -2.97665,1.71964 c -0.583,1.647 0.76647,3.31993 0.98346,5.05349 a 10.45248,10.45248 0 0 1 -0.612,3.76625 c -0.49747,1.989 -0.6304,4.09344 -1.50314,5.94869 -0.87274,1.85525 -2.81333,3.451 -4.82221,3.041 -1.68918,-0.34481 -2.83218,-1.981 -3.30461,-3.639 -0.47243,-1.658 -0.45121,-3.41606 -0.79314,-5.10585 -1.11092,-5.4907 -5.8371,-9.55879 -7.69135,-14.845 -2.376,-6.77346 0.47834,-14.52123 5.39758,-19.74869 a 16.07587,16.07587 0 0 1 7.48865,-4.84854 c 3.06552,-0.78061 6.30664,-0.2195 9.4523,-0.55331 3.364,-0.357 6.526,-1.724 9.79535,-2.59282 3.26935,-0.86882 6.92109,-1.196 9.89285,0.42029 2.07272,1.12731 3.57381,3.0711 5.505,4.42663 a 11.54819,11.54819 0 0 0 7.5865,2.03056 l -3.21036,1.40331 a 10.31051,10.31051 0 0 0 4.3248,2.36867 7.48,7.48 0 0 1 -4.60883,1.61788 5.26391,5.26391 0 0 0 3.31624,2.55 c -2.43766,1.14435 -5.02569,2.31676 -7.70618,2.05868 -1.313,-0.12638 -2.568,-0.59313 -3.865,-0.83336 -2.76456,-0.512 -5.60363,0.0187 -8.36495,0.54837 -1.45,0.27818 -3.22959,0.5451 -3.96184,1.93933 -0.60977,1.16105 -0.1434,2.45462 -1.08222,3.65968 z"
       transform="translate(-97.21873,-175.65252)"
       fill="#2f2e41"
       id="path46" />
    <path
       d="M 327.255,724.34746 H 98.80679 a 1.56682,1.56682 0 0 1 -1.53909,-1.13363 1.52912,1.52912 0 0 1 1.47725,-1.91893 h 228.385 a 1.61535,1.61535 0 0 1 1.61617,1.19368 1.52819,1.52819 0 0 1 -1.49112,1.85888 z"
       transform="translate(-97.21873,-175.65252)"
       fill="#cccccc"
       id="path110" />
  </g>
</svg>
